{"glyphs":{"0":{"ha":813,"x_min":103,"x_max":708,"o":"m 406 -11 q 195 23 256 -11 q 119 149 135 57 q 103 478 103 242 q 119 806 103 714 q 195 933 135 899 q 406 967 256 967 q 618 933 558 967 q 693 808 678 899 q 708 478 708 717 q 692 149 708 240 q 617 23 676 57 q 406 -11 557 -11 m 406 49 q 574 71 529 49 q 631 174 618 93 q 644 478 644 254 q 631 782 644 701 q 574 885 618 863 q 406 907 529 907 q 238 885 282 907 q 181 782 193 863 q 168 478 168 701 q 181 174 168 254 q 238 71 193 93 q 406 49 282 49 z "},"1":{"ha":443,"x_min":57,"x_max":294,"o":"m 229 0 l 229 872 l 57 782 l 57 846 l 246 956 l 294 956 l 294 0 l 229 0 z "},"2":{"ha":729,"x_min":90,"x_max":639,"o":"m 154 60 l 639 60 l 639 0 l 90 0 l 90 101 q 97 270 90 221 q 131 351 103 319 q 228 417 158 383 q 468 536 301 454 q 553 606 532 568 q 574 722 574 644 q 556 840 574 801 q 492 893 538 879 q 356 907 447 907 q 107 892 251 907 l 107 947 q 228 962 154 957 q 371 967 303 967 q 517 952 461 967 q 606 887 572 938 q 639 735 639 836 q 625 610 639 657 q 580 535 611 564 q 489 476 549 506 q 221 344 318 394 q 164 286 176 322 q 154 146 154 247 l 154 60 z "},"3":{"ha":711,"x_min":68,"x_max":614,"o":"m 307 -11 q 185 -6 251 -11 q 68 10 118 0 l 68 65 q 304 49 208 49 q 442 63 390 49 q 521 121 493 78 q 549 249 549 164 q 508 407 549 360 q 372 454 467 454 l 211 454 l 211 514 l 372 514 q 540 710 540 514 q 515 837 540 794 q 437 893 489 879 q 292 907 385 907 q 74 890 186 907 l 74 946 q 188 961 122 956 q 307 967 254 967 q 485 942 421 967 q 577 863 550 917 q 604 715 604 808 q 568 561 604 614 q 461 492 532 508 l 461 486 q 575 419 536 472 q 614 256 614 367 q 590 106 614 163 q 500 19 567 49 q 307 -11 433 -11 z "},"4":{"ha":772,"x_min":63,"x_max":707,"o":"m 514 0 l 514 239 l 63 239 l 63 293 l 388 956 l 460 956 l 133 299 l 515 299 l 521 699 l 579 699 l 579 299 l 707 299 l 707 239 l 579 239 l 579 0 l 514 0 z "},"5":{"ha":736,"x_min":103,"x_max":649,"o":"m 103 65 q 338 49 243 49 q 492 69 440 49 q 564 138 544 90 q 583 275 583 185 q 563 418 583 374 q 488 478 542 463 q 315 493 433 493 q 113 472 251 493 l 113 956 l 588 956 l 588 896 l 175 896 l 175 538 q 368 553 251 553 q 549 524 489 553 q 629 440 610 496 q 649 286 649 385 q 624 108 649 171 q 533 17 599 44 q 342 -11 467 -11 q 219 -6 286 -11 q 103 10 153 0 l 103 65 z "},"6":{"ha":785,"x_min":103,"x_max":711,"o":"m 419 -11 q 270 1 326 -11 q 178 47 214 13 q 122 150 142 82 q 107 261 111 188 q 103 465 103 335 q 108 669 103 590 q 128 796 113 747 q 226 930 157 893 q 433 967 296 967 q 542 961 478 967 q 665 946 607 956 l 665 890 q 446 907 546 907 q 262 876 318 907 q 187 760 206 844 q 168 485 168 675 l 175 485 q 254 538 200 518 q 422 557 308 557 q 598 539 539 557 q 684 466 657 521 q 711 294 711 411 q 689 105 711 168 q 606 15 667 42 q 419 -11 544 -11 m 411 49 q 561 63 514 49 q 627 123 608 78 q 646 268 646 168 q 628 424 646 378 q 565 483 611 471 q 411 496 519 496 q 253 479 303 496 q 188 426 203 463 q 172 315 172 389 q 193 142 172 197 q 263 67 214 86 q 411 49 311 49 z "},"7":{"ha":669,"x_min":50,"x_max":607,"o":"m 181 0 l 535 896 l 50 896 l 50 956 l 607 956 l 607 904 l 251 0 l 181 0 z "},"8":{"ha":819,"x_min":97,"x_max":722,"o":"m 410 -11 q 212 17 279 -11 q 121 102 144 46 q 97 256 97 158 q 114 382 97 336 q 163 450 131 428 q 249 485 194 472 l 249 490 q 139 558 174 506 q 104 715 104 611 q 131 862 104 808 q 223 941 157 915 q 410 967 289 967 q 597 941 531 967 q 689 862 663 915 q 715 715 715 808 q 681 558 715 611 q 571 490 646 506 l 571 485 q 657 450 625 472 q 706 382 689 428 q 722 256 722 336 q 699 102 722 158 q 608 17 675 46 q 410 -11 540 -11 m 410 513 q 559 530 508 513 q 630 589 610 547 q 650 710 650 631 q 631 831 650 790 q 562 890 613 872 q 410 907 511 907 q 258 890 308 907 q 188 831 207 872 q 169 710 169 790 q 190 589 169 631 q 260 530 210 547 q 410 513 311 513 m 410 49 q 560 65 508 49 q 635 123 613 81 q 657 249 657 165 q 637 381 657 339 q 566 439 617 424 q 410 454 515 454 q 253 439 304 454 q 183 381 203 424 q 163 249 163 339 q 185 123 163 165 q 259 65 207 81 q 410 49 311 49 z "},"9":{"ha":785,"x_min":74,"x_max":682,"o":"m 351 -11 q 238 -6 304 -11 q 119 10 172 0 l 119 65 q 339 49 233 49 q 523 80 467 49 q 598 196 579 111 q 617 471 617 281 l 608 471 q 531 418 585 438 q 363 399 476 399 q 187 417 246 399 q 101 490 128 435 q 74 661 74 544 q 96 851 74 788 q 178 940 118 914 q 364 967 239 967 q 514 956 457 967 q 606 912 571 944 q 660 817 642 879 q 678 694 674 769 q 682 490 682 619 q 676 278 682 358 q 653 144 671 197 q 555 22 624 56 q 351 -11 486 -11 m 374 460 q 532 476 482 460 q 597 530 582 493 q 613 640 613 567 q 592 814 613 758 q 522 888 571 869 q 374 907 474 907 q 224 892 271 907 q 157 833 176 878 q 138 688 138 788 q 156 531 138 578 q 219 472 174 485 q 374 460 265 460 z "},"\u0000":{"ha":0,"x_min":0,"x_max":0,"o":""},"\r":{"ha":289,"x_min":0,"x_max":0,"o":""}," ":{"ha":289,"x_min":0,"x_max":0,"o":""},"A":{"ha":822,"x_min":43,"x_max":779,"o":"m 710 0 l 608 296 l 211 296 l 110 0 l 43 0 l 374 956 l 447 956 l 779 0 l 710 0 m 414 865 l 407 865 l 231 356 l 588 356 l 414 865 z "},"Á":{"ha":822,"x_min":43,"x_max":779,"o":"m 710 0 l 608 296 l 211 296 l 110 0 l 43 0 l 374 956 l 447 956 l 779 0 l 710 0 m 414 865 l 407 865 l 231 356 l 588 356 l 414 865 m 374 1042 l 374 1049 l 488 1235 l 561 1235 l 561 1228 l 419 1042 l 374 1042 z "},"Ă":{"ha":822,"x_min":43,"x_max":779,"o":"m 710 0 l 608 296 l 211 296 l 110 0 l 43 0 l 374 956 l 447 956 l 779 0 l 710 0 m 414 865 l 407 865 l 231 356 l 588 356 l 414 865 m 575 1233 q 567 1124 575 1163 q 522 1061 558 1085 q 410 1038 486 1038 q 298 1061 333 1038 q 254 1123 263 1085 q 246 1233 246 1161 l 296 1233 q 301 1144 296 1174 q 331 1099 307 1115 q 410 1083 356 1083 q 488 1099 464 1083 q 519 1145 513 1115 q 525 1233 525 1175 l 575 1233 z "},"Ắ":{"ha":822,"x_min":43,"x_max":779,"o":"m 710 0 l 608 296 l 211 296 l 110 0 l 43 0 l 374 956 l 447 956 l 779 0 l 710 0 m 414 865 l 407 865 l 231 356 l 588 356 l 414 865 m 572 1233 q 564 1124 572 1163 q 519 1061 556 1085 q 407 1038 483 1038 q 295 1061 331 1038 q 251 1123 260 1085 q 243 1233 243 1161 l 293 1233 q 299 1144 293 1174 q 328 1099 304 1115 q 407 1083 353 1083 q 485 1099 461 1083 q 516 1145 510 1115 q 522 1233 522 1175 l 572 1233 m 382 1281 l 382 1288 l 496 1474 l 569 1474 l 569 1467 l 428 1281 l 382 1281 z "},"Ặ":{"ha":822,"x_min":43,"x_max":779,"o":"m 710 0 l 608 296 l 211 296 l 110 0 l 43 0 l 374 956 l 447 956 l 779 0 l 710 0 m 414 865 l 407 865 l 231 356 l 588 356 l 414 865 m 371 -187 l 371 -86 l 450 -86 l 450 -187 l 371 -187 m 575 1233 q 567 1124 575 1163 q 522 1061 558 1085 q 410 1038 486 1038 q 298 1061 333 1038 q 254 1123 263 1085 q 246 1233 246 1161 l 296 1233 q 301 1144 296 1174 q 331 1099 307 1115 q 410 1083 356 1083 q 488 1099 464 1083 q 519 1145 513 1115 q 525 1233 525 1175 l 575 1233 z "},"Ằ":{"ha":822,"x_min":43,"x_max":779,"o":"m 710 0 l 608 296 l 211 296 l 110 0 l 43 0 l 374 956 l 447 956 l 779 0 l 710 0 m 414 865 l 407 865 l 231 356 l 588 356 l 414 865 m 576 1233 q 568 1124 576 1163 q 524 1061 560 1085 q 411 1038 488 1038 q 299 1061 335 1038 q 256 1123 264 1085 q 247 1233 247 1161 l 297 1233 q 303 1144 297 1174 q 333 1099 308 1115 q 411 1083 357 1083 q 490 1099 465 1083 q 520 1145 514 1115 q 526 1233 526 1175 l 576 1233 m 403 1281 l 263 1467 l 263 1474 l 336 1474 l 450 1288 l 450 1281 l 403 1281 z "},"Ẳ":{"ha":822,"x_min":43,"x_max":779,"o":"m 710 0 l 608 296 l 211 296 l 110 0 l 43 0 l 374 956 l 447 956 l 779 0 l 710 0 m 414 865 l 407 865 l 231 356 l 588 356 l 414 865 m 575 1233 q 567 1124 575 1163 q 522 1061 558 1085 q 410 1038 486 1038 q 298 1061 333 1038 q 254 1123 263 1085 q 246 1233 246 1161 l 296 1233 q 301 1144 296 1174 q 331 1099 307 1115 q 410 1083 356 1083 q 488 1099 464 1083 q 519 1145 513 1115 q 525 1233 525 1175 l 575 1233 m 356 1247 q 367 1292 356 1279 q 411 1314 379 1304 l 440 1322 q 499 1346 486 1335 q 513 1385 513 1357 q 502 1422 513 1410 q 469 1436 492 1433 q 394 1439 446 1439 q 265 1432 344 1439 l 265 1475 q 404 1485 338 1485 q 529 1465 494 1485 q 564 1390 564 1446 q 551 1328 564 1349 q 492 1294 538 1308 l 460 1285 q 419 1271 429 1276 q 406 1258 408 1265 q 403 1233 403 1251 l 356 1233 l 356 1247 z "},"Ẵ":{"ha":822,"x_min":43,"x_max":779,"o":"m 710 0 l 608 296 l 211 296 l 110 0 l 43 0 l 374 956 l 447 956 l 779 0 l 710 0 m 414 865 l 407 865 l 231 356 l 588 356 l 414 865 m 572 1233 q 564 1124 572 1163 q 519 1061 556 1085 q 407 1038 483 1038 q 295 1061 331 1038 q 251 1123 260 1085 q 243 1233 243 1161 l 293 1233 q 299 1144 293 1174 q 328 1099 304 1115 q 407 1083 353 1083 q 485 1099 461 1083 q 516 1145 510 1115 q 522 1233 522 1175 l 572 1233 m 625 1475 q 609 1367 625 1396 q 542 1338 593 1338 q 479 1347 510 1338 q 399 1374 449 1356 q 332 1397 358 1389 q 281 1406 306 1406 q 247 1388 254 1406 q 239 1322 239 1371 l 194 1322 q 210 1431 194 1401 q 278 1460 226 1460 q 344 1450 311 1460 q 424 1422 378 1440 q 488 1399 461 1407 q 540 1392 515 1392 q 574 1409 567 1392 q 581 1475 581 1426 l 625 1475 z "},"Ǎ":{"ha":822,"x_min":43,"x_max":779,"o":"m 710 0 l 608 296 l 211 296 l 110 0 l 43 0 l 374 956 l 447 956 l 779 0 l 710 0 m 414 865 l 407 865 l 231 356 l 588 356 l 414 865 m 374 1042 l 243 1226 l 243 1233 l 290 1233 l 411 1088 l 532 1233 l 579 1233 l 579 1226 l 449 1042 l 374 1042 z "},"Â":{"ha":822,"x_min":43,"x_max":779,"o":"m 710 0 l 608 296 l 211 296 l 110 0 l 43 0 l 374 956 l 447 956 l 779 0 l 710 0 m 414 865 l 407 865 l 231 356 l 588 356 l 414 865 m 243 1042 l 243 1049 l 372 1233 l 447 1233 l 578 1049 l 578 1042 l 531 1042 l 410 1188 l 289 1042 l 243 1042 z "},"Ấ":{"ha":822,"x_min":43,"x_max":779,"o":"m 710 0 l 608 296 l 211 296 l 110 0 l 43 0 l 374 956 l 447 956 l 779 0 l 710 0 m 414 865 l 407 865 l 231 356 l 588 356 l 414 865 m 240 1038 l 240 1044 l 369 1229 l 444 1229 l 575 1044 l 575 1038 l 528 1038 l 407 1183 l 286 1038 l 240 1038 m 500 1233 l 500 1240 l 614 1426 l 688 1426 l 688 1419 l 546 1233 l 500 1233 z "},"Ậ":{"ha":822,"x_min":43,"x_max":779,"o":"m 710 0 l 608 296 l 211 296 l 110 0 l 43 0 l 374 956 l 447 956 l 779 0 l 710 0 m 414 865 l 407 865 l 231 356 l 588 356 l 414 865 m 371 -187 l 371 -86 l 450 -86 l 450 -187 l 371 -187 m 244 1042 l 244 1049 l 374 1233 l 449 1233 l 579 1049 l 579 1042 l 532 1042 l 411 1188 l 290 1042 l 244 1042 z "},"Ầ":{"ha":822,"x_min":43,"x_max":779,"o":"m 710 0 l 608 296 l 211 296 l 110 0 l 43 0 l 374 956 l 447 956 l 779 0 l 710 0 m 414 865 l 407 865 l 231 356 l 588 356 l 414 865 m 239 1036 l 239 1043 l 368 1228 l 443 1228 l 574 1043 l 574 1036 l 526 1036 l 406 1182 l 285 1036 l 239 1036 m 533 1232 l 393 1418 l 393 1425 l 467 1425 l 581 1239 l 581 1232 l 533 1232 z "},"Ẩ":{"ha":822,"x_min":43,"x_max":779,"o":"m 710 0 l 608 296 l 211 296 l 110 0 l 43 0 l 374 956 l 447 956 l 779 0 l 710 0 m 414 865 l 407 865 l 231 356 l 588 356 l 414 865 m 244 1036 l 244 1043 l 374 1228 l 449 1228 l 579 1043 l 579 1036 l 532 1036 l 411 1182 l 290 1036 l 244 1036 m 469 1244 q 481 1289 469 1276 q 525 1311 493 1301 l 554 1319 q 613 1343 600 1332 q 626 1382 626 1354 q 616 1419 626 1407 q 583 1433 606 1431 q 508 1436 560 1436 q 379 1429 458 1436 l 379 1472 q 518 1482 451 1482 q 643 1463 608 1482 q 678 1388 678 1443 q 665 1326 678 1346 q 606 1292 651 1306 l 574 1282 q 533 1268 543 1274 q 519 1256 522 1263 q 517 1231 517 1249 l 469 1231 l 469 1244 z "},"Ẫ":{"ha":822,"x_min":43,"x_max":779,"o":"m 710 0 l 608 296 l 211 296 l 110 0 l 43 0 l 374 956 l 447 956 l 779 0 l 710 0 m 414 865 l 407 865 l 231 356 l 588 356 l 414 865 m 242 1036 l 242 1043 l 371 1228 l 446 1228 l 576 1043 l 576 1036 l 529 1036 l 408 1182 l 288 1036 l 242 1036 m 625 1468 q 609 1360 625 1389 q 542 1331 593 1331 q 479 1340 510 1331 q 399 1367 449 1349 q 332 1390 358 1382 q 281 1399 306 1399 q 247 1381 254 1399 q 239 1315 239 1364 l 194 1315 q 210 1424 194 1394 q 278 1453 226 1453 q 344 1443 311 1453 q 424 1415 378 1433 q 488 1392 461 1400 q 540 1385 515 1385 q 574 1402 567 1385 q 581 1468 581 1419 l 625 1468 z "},"Ȁ":{"ha":822,"x_min":43,"x_max":779,"o":"m 710 0 l 608 296 l 211 296 l 110 0 l 43 0 l 374 956 l 447 956 l 779 0 l 710 0 m 414 865 l 407 865 l 231 356 l 588 356 l 414 865 m 329 1044 l 286 1044 l 147 1219 l 147 1226 l 218 1226 l 329 1051 l 329 1044 m 557 1044 l 513 1044 l 374 1219 l 374 1226 l 444 1226 l 557 1051 l 557 1044 z "},"Ä":{"ha":822,"x_min":43,"x_max":779,"o":"m 710 0 l 608 296 l 211 296 l 110 0 l 43 0 l 374 956 l 447 956 l 779 0 l 710 0 m 414 865 l 407 865 l 231 356 l 588 356 l 414 865 m 253 1071 l 253 1163 l 322 1163 l 322 1071 l 253 1071 m 500 1071 l 500 1163 l 569 1163 l 569 1071 l 500 1071 z "},"Ạ":{"ha":822,"x_min":43,"x_max":779,"o":"m 710 0 l 608 296 l 211 296 l 110 0 l 43 0 l 374 956 l 447 956 l 779 0 l 710 0 m 414 865 l 407 865 l 231 356 l 588 356 l 414 865 m 371 -187 l 371 -86 l 450 -86 l 450 -187 l 371 -187 z "},"À":{"ha":822,"x_min":43,"x_max":779,"o":"m 710 0 l 608 296 l 211 296 l 110 0 l 43 0 l 374 956 l 447 956 l 779 0 l 710 0 m 414 865 l 407 865 l 231 356 l 588 356 l 414 865 m 401 1042 l 261 1228 l 261 1235 l 335 1235 l 449 1049 l 449 1042 l 401 1042 z "},"Ả":{"ha":822,"x_min":43,"x_max":779,"o":"m 710 0 l 608 296 l 211 296 l 110 0 l 43 0 l 374 956 l 447 956 l 779 0 l 710 0 m 414 865 l 407 865 l 231 356 l 588 356 l 414 865 m 351 1031 q 363 1075 351 1063 q 407 1097 375 1088 l 436 1106 q 495 1129 482 1118 q 508 1168 508 1140 q 498 1205 508 1193 q 465 1219 488 1217 q 390 1222 442 1222 q 261 1215 340 1222 l 261 1258 q 400 1268 333 1268 q 525 1249 490 1268 q 560 1174 560 1229 q 547 1112 560 1132 q 488 1078 533 1092 l 456 1068 q 415 1054 425 1060 q 401 1042 404 1049 q 399 1017 399 1035 l 351 1017 l 351 1031 z "},"Ȃ":{"ha":822,"x_min":43,"x_max":779,"o":"m 710 0 l 608 296 l 211 296 l 110 0 l 43 0 l 374 956 l 447 956 l 779 0 l 710 0 m 414 865 l 407 865 l 231 356 l 588 356 l 414 865 m 246 1046 q 254 1156 246 1117 q 299 1218 263 1194 q 411 1242 335 1242 q 523 1218 488 1242 q 567 1156 558 1194 q 575 1046 575 1118 l 525 1046 q 519 1135 525 1106 q 490 1180 514 1164 q 411 1196 465 1196 q 333 1180 357 1196 q 302 1134 308 1164 q 296 1046 296 1104 l 246 1046 z "},"Ā":{"ha":822,"x_min":43,"x_max":779,"o":"m 710 0 l 608 296 l 211 296 l 110 0 l 43 0 l 374 956 l 447 956 l 779 0 l 710 0 m 414 865 l 407 865 l 231 356 l 588 356 l 414 865 m 265 1171 l 265 1232 l 556 1232 l 556 1171 l 265 1171 z "},"Ą":{"ha":822,"x_min":43,"x_max":779,"o":"m 685 -158 q 750 -221 685 -221 l 772 -219 l 772 -271 q 738 -272 758 -272 q 653 -244 679 -272 q 626 -171 626 -217 q 649 -83 626 -131 q 710 3 672 -36 l 608 294 l 211 294 l 110 0 l 43 0 l 374 956 l 449 956 l 779 0 l 765 0 q 710 -75 735 -29 q 685 -158 685 -121 m 231 354 l 589 354 l 414 865 l 407 865 l 231 354 z "},"Å":{"ha":822,"x_min":43,"x_max":779,"o":"m 779 0 l 710 0 l 608 296 l 211 296 l 110 0 l 43 0 l 364 931 q 297 949 318 935 q 270 987 276 963 q 264 1058 264 1011 q 273 1138 264 1113 q 313 1176 282 1164 q 410 1189 343 1189 q 508 1176 478 1189 q 548 1138 539 1164 q 557 1058 557 1113 q 551 988 557 1013 q 524 950 544 964 q 458 932 503 936 l 779 0 m 317 1058 q 322 1004 317 1021 q 346 981 326 988 q 410 974 365 974 q 475 981 456 974 q 500 1004 494 988 q 506 1058 506 1021 q 500 1114 506 1097 q 475 1138 494 1131 q 410 1146 456 1146 q 346 1138 365 1146 q 322 1114 326 1131 q 317 1058 317 1097 m 231 356 l 588 356 l 414 865 l 407 865 l 231 356 z "},"Ǻ":{"ha":822,"x_min":43,"x_max":779,"o":"m 779 0 l 710 0 l 608 296 l 211 296 l 110 0 l 43 0 l 364 931 q 297 949 318 935 q 270 987 276 963 q 264 1058 264 1011 q 273 1138 264 1113 q 313 1176 282 1164 q 410 1189 343 1189 q 508 1176 478 1189 q 548 1138 539 1164 q 557 1058 557 1113 q 551 988 557 1013 q 524 950 544 964 q 458 932 503 936 l 779 0 m 317 1058 q 322 1004 317 1021 q 346 981 326 988 q 410 974 365 974 q 475 981 456 974 q 500 1004 494 988 q 506 1058 506 1021 q 500 1114 506 1097 q 475 1138 494 1131 q 410 1146 456 1146 q 346 1138 365 1146 q 322 1114 326 1131 q 317 1058 317 1097 m 231 356 l 588 356 l 414 865 l 407 865 l 231 356 m 379 1274 l 379 1281 l 493 1467 l 567 1467 l 567 1460 l 425 1274 l 379 1274 z "},"Ã":{"ha":822,"x_min":43,"x_max":779,"o":"m 710 0 l 608 296 l 211 296 l 110 0 l 43 0 l 374 956 l 447 956 l 779 0 l 710 0 m 414 865 l 407 865 l 231 356 l 588 356 l 414 865 m 626 1194 q 610 1086 626 1115 q 543 1057 594 1057 q 481 1066 511 1057 q 400 1093 450 1075 q 333 1117 360 1108 q 282 1125 307 1125 q 248 1108 256 1125 q 240 1042 240 1090 l 196 1042 q 212 1150 196 1121 q 279 1179 228 1179 q 346 1169 313 1179 q 425 1142 379 1160 q 490 1119 463 1126 q 542 1111 517 1111 q 575 1128 568 1111 q 582 1194 582 1146 l 626 1194 z "},"Æ":{"ha":1136,"x_min":-1,"x_max":1069,"o":"m 665 0 l 592 296 l 194 296 l 65 0 l -1 0 l 421 956 l 1069 956 l 1069 896 l 508 896 l 606 513 l 1013 513 l 1013 453 l 619 453 l 719 60 l 1069 60 l 1069 0 l 665 0 m 451 865 l 444 865 l 219 356 l 578 356 l 451 865 z "},"Ǽ":{"ha":1136,"x_min":-1,"x_max":1069,"o":"m 665 0 l 592 296 l 194 296 l 65 0 l -1 0 l 421 956 l 1069 956 l 1069 896 l 508 896 l 606 513 l 1013 513 l 1013 453 l 619 453 l 719 60 l 1069 60 l 1069 0 l 665 0 m 451 865 l 444 865 l 219 356 l 578 356 l 451 865 m 533 1040 l 533 1047 l 647 1233 l 721 1233 l 721 1226 l 579 1040 l 533 1040 z "},"B":{"ha":825,"x_min":133,"x_max":728,"o":"m 133 956 l 490 956 q 667 893 615 956 q 719 717 719 831 q 567 492 719 522 l 567 486 q 695 407 663 469 q 728 250 728 344 q 677 69 728 138 q 481 0 626 0 l 133 0 l 133 956 m 475 514 q 608 563 561 514 q 654 706 654 613 q 615 851 654 807 q 475 896 576 896 l 197 896 l 197 514 l 475 514 m 479 60 q 623 106 582 60 q 664 257 664 153 q 620 408 664 361 q 479 454 576 454 l 197 454 l 197 60 l 479 60 z "},"C":{"ha":685,"x_min":103,"x_max":614,"o":"m 614 4 q 428 -11 538 -11 q 215 22 281 -11 q 126 155 150 56 q 103 478 103 254 q 126 799 103 700 q 216 933 150 899 q 428 967 282 967 q 526 962 475 967 q 610 949 578 957 l 610 893 q 444 907 529 907 q 257 881 311 907 q 185 770 203 854 q 168 478 168 686 q 185 185 168 269 q 257 75 203 101 q 444 49 311 49 q 614 63 538 49 l 614 4 z "},"Ć":{"ha":685,"x_min":103,"x_max":614,"o":"m 614 4 q 428 -11 538 -11 q 215 22 281 -11 q 126 155 150 56 q 103 478 103 254 q 126 799 103 700 q 216 933 150 899 q 428 967 282 967 q 526 962 475 967 q 610 949 578 957 l 610 893 q 444 907 529 907 q 257 881 311 907 q 185 770 203 854 q 168 478 168 686 q 185 185 168 269 q 257 75 203 101 q 444 49 311 49 q 614 63 538 49 l 614 4 m 311 1040 l 311 1047 l 425 1233 l 499 1233 l 499 1226 l 357 1040 l 311 1040 z "},"Č":{"ha":685,"x_min":103,"x_max":614,"o":"m 614 4 q 428 -11 538 -11 q 215 22 281 -11 q 126 155 150 56 q 103 478 103 254 q 126 799 103 700 q 216 933 150 899 q 428 967 282 967 q 526 962 475 967 q 610 949 578 957 l 610 893 q 444 907 529 907 q 257 881 311 907 q 185 770 203 854 q 168 478 168 686 q 185 185 168 269 q 257 75 203 101 q 444 49 311 49 q 614 63 538 49 l 614 4 m 304 1042 l 174 1226 l 174 1233 l 221 1233 l 342 1088 l 463 1233 l 510 1233 l 510 1226 l 379 1042 l 304 1042 z "},"Ç":{"ha":685,"x_min":103,"x_max":614,"o":"m 444 49 q 614 63 538 49 l 614 4 q 428 -11 538 -11 q 364 -10 383 -11 l 307 -264 l 239 -264 l 239 -257 l 315 -6 q 179 49 224 6 q 119 190 135 93 q 103 478 103 288 q 126 799 103 700 q 216 933 150 899 q 428 967 282 967 q 526 962 475 967 q 610 949 578 957 l 610 893 q 444 907 529 907 q 257 881 311 907 q 185 770 203 854 q 168 478 168 686 q 185 185 168 269 q 257 75 203 101 q 444 49 311 49 z "},"Ĉ":{"ha":685,"x_min":103,"x_max":614,"o":"m 614 4 q 428 -11 538 -11 q 215 22 281 -11 q 126 155 150 56 q 103 478 103 254 q 126 799 103 700 q 216 933 150 899 q 428 967 282 967 q 526 962 475 967 q 610 949 578 957 l 610 893 q 444 907 529 907 q 257 881 311 907 q 185 770 203 854 q 168 478 168 686 q 185 185 168 269 q 257 75 203 101 q 444 49 311 49 q 614 63 538 49 l 614 4 m 175 1042 l 175 1049 l 304 1233 l 379 1233 l 510 1049 l 510 1042 l 463 1042 l 342 1188 l 221 1042 l 175 1042 z "},"Ċ":{"ha":685,"x_min":103,"x_max":614,"o":"m 614 4 q 428 -11 538 -11 q 215 22 281 -11 q 126 155 150 56 q 103 478 103 254 q 126 799 103 700 q 216 933 150 899 q 428 967 282 967 q 526 962 475 967 q 610 949 578 957 l 610 893 q 444 907 529 907 q 257 881 311 907 q 185 770 203 854 q 168 478 168 686 q 185 185 168 269 q 257 75 203 101 q 444 49 311 49 q 614 63 538 49 l 614 4 m 307 1125 l 307 1217 l 375 1217 l 375 1125 l 307 1125 z "},"D":{"ha":832,"x_min":133,"x_max":729,"o":"m 133 956 l 388 956 q 622 923 553 956 q 710 797 690 890 q 729 478 729 704 q 710 158 729 251 q 622 33 690 65 q 388 0 553 0 l 133 0 l 133 956 m 369 60 q 575 81 521 60 q 647 181 629 101 q 664 478 664 261 q 647 774 664 693 q 574 875 629 854 q 369 896 519 896 l 197 896 l 197 60 l 369 60 z "},"Ǳ":{"ha":1547,"x_min":133,"x_max":1488,"o":"m 133 956 l 388 956 q 622 923 553 956 q 710 797 690 890 q 729 478 729 704 q 710 158 729 251 q 622 33 690 65 q 388 0 553 0 l 133 0 l 133 956 m 369 60 q 575 81 521 60 q 647 181 629 101 q 664 478 664 261 q 647 774 664 693 q 574 875 629 854 q 369 896 519 896 l 197 896 l 197 60 l 369 60 m 896 0 l 896 56 l 1400 896 l 910 896 l 910 956 l 1479 956 l 1479 900 l 975 60 l 1488 60 l 1488 0 l 896 0 z "},"Ǆ":{"ha":1547,"x_min":133,"x_max":1488,"o":"m 133 956 l 388 956 q 622 923 553 956 q 710 797 690 890 q 729 478 729 704 q 710 158 729 251 q 622 33 690 65 q 388 0 553 0 l 133 0 l 133 956 m 369 60 q 575 81 521 60 q 647 181 629 101 q 664 478 664 261 q 647 774 664 693 q 574 875 629 854 q 369 896 519 896 l 197 896 l 197 60 l 369 60 m 896 0 l 896 56 l 1400 896 l 910 896 l 910 956 l 1479 956 l 1479 900 l 975 60 l 1488 60 l 1488 0 l 896 0 m 1153 1042 l 1022 1226 l 1022 1233 l 1069 1233 l 1190 1088 l 1311 1233 l 1358 1233 l 1358 1226 l 1228 1042 l 1153 1042 z "},"Ð":{"ha":832,"x_min":43,"x_max":729,"o":"m 133 454 l 43 454 l 43 515 l 133 515 l 133 956 l 388 956 q 622 923 553 956 q 710 797 690 890 q 729 478 729 704 q 710 158 729 251 q 622 33 690 65 q 388 0 553 0 l 133 0 l 133 454 m 369 60 q 575 81 521 60 q 647 181 629 101 q 664 478 664 261 q 647 774 664 693 q 574 875 629 854 q 369 896 519 896 l 197 896 l 197 515 l 364 515 l 364 454 l 197 454 l 197 60 l 369 60 z "},"Ď":{"ha":832,"x_min":133,"x_max":729,"o":"m 133 956 l 388 956 q 622 923 553 956 q 710 797 690 890 q 729 478 729 704 q 710 158 729 251 q 622 33 690 65 q 388 0 553 0 l 133 0 l 133 956 m 369 60 q 575 81 521 60 q 647 181 629 101 q 664 478 664 261 q 647 774 664 693 q 574 875 629 854 q 369 896 519 896 l 197 896 l 197 60 l 369 60 m 379 1042 l 249 1226 l 249 1233 l 296 1233 l 417 1088 l 538 1233 l 585 1233 l 585 1226 l 454 1042 l 379 1042 z "},"Đ":{"ha":832,"x_min":43,"x_max":729,"o":"m 133 454 l 43 454 l 43 515 l 133 515 l 133 956 l 388 956 q 622 923 553 956 q 710 797 690 890 q 729 478 729 704 q 710 158 729 251 q 622 33 690 65 q 388 0 553 0 l 133 0 l 133 454 m 369 60 q 575 81 521 60 q 647 181 629 101 q 664 478 664 261 q 647 774 664 693 q 574 875 629 854 q 369 896 519 896 l 197 896 l 197 515 l 364 515 l 364 454 l 197 454 l 197 60 l 369 60 z "},"Ḍ":{"ha":832,"x_min":133,"x_max":729,"o":"m 133 956 l 388 956 q 622 923 553 956 q 710 797 690 890 q 729 478 729 704 q 710 158 729 251 q 622 33 690 65 q 388 0 553 0 l 133 0 l 133 956 m 369 60 q 575 81 521 60 q 647 181 629 101 q 664 478 664 261 q 647 774 664 693 q 574 875 629 854 q 369 896 519 896 l 197 896 l 197 60 l 369 60 m 376 -187 l 376 -86 l 456 -86 l 456 -187 l 376 -187 z "},"ǲ":{"ha":1436,"x_min":133,"x_max":1374,"o":"m 133 956 l 388 956 q 622 923 553 956 q 710 797 690 890 q 729 478 729 704 q 710 158 729 251 q 622 33 690 65 q 388 0 553 0 l 133 0 l 133 956 m 369 60 q 575 81 521 60 q 647 181 629 101 q 664 478 664 261 q 647 774 664 693 q 574 875 629 854 q 369 896 519 896 l 197 896 l 197 60 l 369 60 m 894 0 l 894 50 l 1292 653 l 910 653 l 910 708 l 1371 708 l 1371 658 l 975 56 l 1374 56 l 1374 0 l 894 0 z "},"ǅ":{"ha":1436,"x_min":133,"x_max":1374,"o":"m 133 956 l 388 956 q 622 923 553 956 q 710 797 690 890 q 729 478 729 704 q 710 158 729 251 q 622 33 690 65 q 388 0 553 0 l 133 0 l 133 956 m 369 60 q 575 81 521 60 q 647 181 629 101 q 664 478 664 261 q 647 774 664 693 q 574 875 629 854 q 369 896 519 896 l 197 896 l 197 60 l 369 60 m 894 0 l 894 50 l 1292 653 l 910 653 l 910 708 l 1371 708 l 1371 658 l 975 56 l 1374 56 l 1374 0 l 894 0 m 1111 840 l 981 1025 l 981 1032 l 1028 1032 l 1149 886 l 1269 1032 l 1317 1032 l 1317 1025 l 1186 840 l 1111 840 z "},"E":{"ha":719,"x_min":133,"x_max":653,"o":"m 133 0 l 133 956 l 653 956 l 653 896 l 199 896 l 199 513 l 597 513 l 597 453 l 199 453 l 199 60 l 653 60 l 653 0 l 133 0 z "},"É":{"ha":719,"x_min":133,"x_max":653,"o":"m 133 0 l 133 956 l 653 956 l 653 896 l 199 896 l 199 513 l 597 513 l 597 453 l 199 453 l 199 60 l 653 60 l 653 0 l 133 0 m 361 1042 l 361 1049 l 475 1235 l 549 1235 l 549 1228 l 407 1042 l 361 1042 z "},"Ĕ":{"ha":719,"x_min":133,"x_max":653,"o":"m 133 0 l 133 956 l 653 956 l 653 896 l 199 896 l 199 513 l 597 513 l 597 453 l 199 453 l 199 60 l 653 60 l 653 0 l 133 0 m 557 1233 q 549 1124 557 1163 q 504 1061 540 1085 q 392 1038 468 1038 q 280 1061 315 1038 q 236 1123 244 1085 q 228 1233 228 1161 l 278 1233 q 283 1144 278 1174 q 313 1099 289 1115 q 392 1083 338 1083 q 470 1099 446 1083 q 501 1145 494 1115 q 507 1233 507 1175 l 557 1233 z "},"Ě":{"ha":719,"x_min":133,"x_max":653,"o":"m 133 0 l 133 956 l 653 956 l 653 896 l 199 896 l 199 513 l 597 513 l 597 453 l 199 453 l 199 60 l 653 60 l 653 0 l 133 0 m 356 1042 l 225 1226 l 225 1233 l 272 1233 l 393 1088 l 514 1233 l 561 1233 l 561 1226 l 431 1042 l 356 1042 z "},"Ê":{"ha":719,"x_min":133,"x_max":653,"o":"m 133 0 l 133 956 l 653 956 l 653 896 l 199 896 l 199 513 l 597 513 l 597 453 l 199 453 l 199 60 l 653 60 l 653 0 l 133 0 m 231 1042 l 231 1049 l 360 1233 l 435 1233 l 565 1049 l 565 1042 l 518 1042 l 397 1188 l 276 1042 l 231 1042 z "},"Ế":{"ha":719,"x_min":133,"x_max":669,"o":"m 133 0 l 133 956 l 653 956 l 653 896 l 199 896 l 199 513 l 597 513 l 597 453 l 199 453 l 199 60 l 653 60 l 653 0 l 133 0 m 222 1038 l 222 1044 l 351 1229 l 426 1229 l 557 1044 l 557 1038 l 510 1038 l 389 1183 l 268 1038 l 222 1038 m 482 1233 l 482 1240 l 596 1426 l 669 1426 l 669 1419 l 528 1233 l 482 1233 z "},"Ệ":{"ha":719,"x_min":133,"x_max":653,"o":"m 133 0 l 133 956 l 653 956 l 653 896 l 199 896 l 199 513 l 597 513 l 597 453 l 199 453 l 199 60 l 653 60 l 653 0 l 133 0 m 353 -187 l 353 -86 l 432 -86 l 432 -187 l 353 -187 m 226 1042 l 226 1049 l 356 1233 l 431 1233 l 561 1049 l 561 1042 l 514 1042 l 393 1188 l 272 1042 l 226 1042 z "},"Ề":{"ha":719,"x_min":133,"x_max":653,"o":"m 133 0 l 133 956 l 653 956 l 653 896 l 199 896 l 199 513 l 597 513 l 597 453 l 199 453 l 199 60 l 653 60 l 653 0 l 133 0 m 221 1036 l 221 1043 l 350 1228 l 425 1228 l 556 1043 l 556 1036 l 508 1036 l 388 1182 l 267 1036 l 221 1036 m 515 1232 l 375 1418 l 375 1425 l 449 1425 l 563 1239 l 563 1232 l 515 1232 z "},"Ể":{"ha":719,"x_min":133,"x_max":660,"o":"m 133 0 l 133 956 l 653 956 l 653 896 l 199 896 l 199 513 l 597 513 l 597 453 l 199 453 l 199 60 l 653 60 l 653 0 l 133 0 m 226 1036 l 226 1043 l 356 1228 l 431 1228 l 561 1043 l 561 1036 l 514 1036 l 393 1182 l 272 1036 l 226 1036 m 451 1244 q 463 1289 451 1276 q 507 1311 475 1301 l 536 1319 q 595 1343 582 1332 q 608 1382 608 1354 q 598 1419 608 1407 q 565 1433 588 1431 q 490 1436 542 1436 q 361 1429 440 1436 l 361 1472 q 500 1482 433 1482 q 625 1463 590 1482 q 660 1388 660 1443 q 647 1326 660 1346 q 588 1292 633 1306 l 556 1282 q 515 1268 525 1274 q 501 1256 504 1263 q 499 1231 499 1249 l 451 1231 l 451 1244 z "},"Ễ":{"ha":719,"x_min":133,"x_max":653,"o":"m 133 0 l 133 956 l 653 956 l 653 896 l 199 896 l 199 513 l 597 513 l 597 453 l 199 453 l 199 60 l 653 60 l 653 0 l 133 0 m 224 1036 l 224 1043 l 353 1228 l 428 1228 l 558 1043 l 558 1036 l 511 1036 l 390 1182 l 269 1036 l 224 1036 m 607 1468 q 591 1360 607 1389 q 524 1331 575 1331 q 461 1340 492 1331 q 381 1367 431 1349 q 314 1390 340 1382 q 263 1399 288 1399 q 228 1381 236 1399 q 221 1315 221 1364 l 176 1315 q 192 1424 176 1394 q 260 1453 208 1453 q 326 1443 293 1453 q 406 1415 360 1433 q 470 1392 443 1400 q 522 1385 497 1385 q 556 1402 549 1385 q 563 1468 563 1419 l 607 1468 z "},"Ȅ":{"ha":719,"x_min":129,"x_max":653,"o":"m 133 0 l 133 956 l 653 956 l 653 896 l 199 896 l 199 513 l 597 513 l 597 453 l 199 453 l 199 60 l 653 60 l 653 0 l 133 0 m 311 1044 l 268 1044 l 129 1219 l 129 1226 l 200 1226 l 311 1051 l 311 1044 m 539 1044 l 494 1044 l 356 1219 l 356 1226 l 426 1226 l 539 1051 l 539 1044 z "},"Ë":{"ha":719,"x_min":133,"x_max":653,"o":"m 133 0 l 133 956 l 653 956 l 653 896 l 199 896 l 199 513 l 597 513 l 597 453 l 199 453 l 199 60 l 653 60 l 653 0 l 133 0 m 242 1071 l 242 1163 l 311 1163 l 311 1071 l 242 1071 m 489 1071 l 489 1163 l 558 1163 l 558 1071 l 489 1071 z "},"Ė":{"ha":719,"x_min":133,"x_max":653,"o":"m 133 0 l 133 956 l 653 956 l 653 896 l 199 896 l 199 513 l 597 513 l 597 453 l 199 453 l 199 60 l 653 60 l 653 0 l 133 0 m 358 1125 l 358 1217 l 426 1217 l 426 1125 l 358 1125 z "},"Ẹ":{"ha":719,"x_min":133,"x_max":653,"o":"m 133 0 l 133 956 l 653 956 l 653 896 l 199 896 l 199 513 l 597 513 l 597 453 l 199 453 l 199 60 l 653 60 l 653 0 l 133 0 m 353 -187 l 353 -86 l 432 -86 l 432 -187 l 353 -187 z "},"È":{"ha":719,"x_min":133,"x_max":653,"o":"m 133 0 l 133 956 l 653 956 l 653 896 l 199 896 l 199 513 l 597 513 l 597 453 l 199 453 l 199 60 l 653 60 l 653 0 l 133 0 m 389 1042 l 249 1228 l 249 1235 l 322 1235 l 436 1049 l 436 1042 l 389 1042 z "},"Ẻ":{"ha":719,"x_min":133,"x_max":653,"o":"m 133 0 l 133 956 l 653 956 l 653 896 l 199 896 l 199 513 l 597 513 l 597 453 l 199 453 l 199 60 l 653 60 l 653 0 l 133 0 m 333 1031 q 345 1075 333 1063 q 389 1097 357 1088 l 418 1106 q 477 1129 464 1118 q 490 1168 490 1140 q 480 1205 490 1193 q 447 1219 469 1217 q 372 1222 424 1222 q 243 1215 322 1222 l 243 1258 q 382 1268 315 1268 q 507 1249 472 1268 q 542 1174 542 1229 q 528 1112 542 1132 q 469 1078 515 1092 l 438 1068 q 397 1054 407 1060 q 383 1042 386 1049 q 381 1017 381 1035 l 333 1017 l 333 1031 z "},"Ȇ":{"ha":719,"x_min":133,"x_max":653,"o":"m 133 0 l 133 956 l 653 956 l 653 896 l 199 896 l 199 513 l 597 513 l 597 453 l 199 453 l 199 60 l 653 60 l 653 0 l 133 0 m 228 1046 q 236 1156 228 1117 q 281 1218 244 1194 q 393 1242 317 1242 q 505 1218 469 1242 q 549 1156 540 1194 q 557 1046 557 1118 l 507 1046 q 501 1135 507 1106 q 472 1180 496 1164 q 393 1196 447 1196 q 315 1180 339 1196 q 284 1134 290 1164 q 278 1046 278 1104 l 228 1046 z "},"Ē":{"ha":719,"x_min":133,"x_max":653,"o":"m 133 0 l 133 956 l 653 956 l 653 896 l 199 896 l 199 513 l 597 513 l 597 453 l 199 453 l 199 60 l 653 60 l 653 0 l 133 0 m 247 1171 l 247 1232 l 538 1232 l 538 1171 l 247 1171 z "},"Ę":{"ha":719,"x_min":133,"x_max":653,"o":"m 613 -272 q 528 -244 556 -272 q 501 -174 501 -217 q 527 -84 501 -131 q 594 0 553 -37 l 133 0 l 133 956 l 653 956 l 653 896 l 199 896 l 199 513 l 597 513 l 597 453 l 199 453 l 199 60 l 653 60 l 653 0 q 590 -73 619 -25 q 560 -161 560 -121 q 575 -204 560 -187 q 624 -221 590 -221 q 647 -219 636 -221 l 647 -271 q 613 -272 635 -272 z "},"Ẽ":{"ha":719,"x_min":133,"x_max":653,"o":"m 133 0 l 133 956 l 653 956 l 653 896 l 199 896 l 199 513 l 597 513 l 597 453 l 199 453 l 199 60 l 653 60 l 653 0 l 133 0 m 607 1233 q 591 1125 607 1154 q 524 1096 575 1096 q 461 1105 492 1096 q 381 1132 431 1114 q 314 1156 340 1147 q 263 1164 288 1164 q 228 1147 236 1164 q 221 1081 221 1129 l 176 1081 q 192 1189 176 1160 q 260 1218 208 1218 q 326 1208 293 1218 q 406 1181 360 1199 q 470 1158 443 1165 q 522 1150 497 1150 q 556 1167 549 1150 q 563 1233 563 1185 l 607 1233 z "},"F":{"ha":676,"x_min":133,"x_max":629,"o":"m 133 0 l 133 956 l 629 956 l 629 896 l 199 896 l 199 493 l 585 493 l 585 433 l 199 433 l 199 0 l 133 0 z "},"G":{"ha":815,"x_min":103,"x_max":704,"o":"m 424 432 l 424 492 l 704 492 l 704 14 q 575 -4 647 3 q 446 -11 503 -11 q 226 23 296 -11 q 129 158 156 57 q 103 478 103 258 q 130 797 103 696 q 227 932 157 897 q 447 967 297 967 q 581 960 508 967 q 701 942 653 953 l 701 885 q 588 901 649 894 q 486 907 526 907 q 278 885 338 907 q 193 777 218 864 q 168 478 168 690 q 186 194 168 281 q 260 78 204 108 q 446 47 317 47 q 544 52 486 47 q 640 64 601 57 l 640 432 l 424 432 z "},"Ǵ":{"ha":815,"x_min":103,"x_max":704,"o":"m 424 432 l 424 492 l 704 492 l 704 14 q 575 -4 647 3 q 446 -11 503 -11 q 226 23 296 -11 q 129 158 156 57 q 103 478 103 258 q 130 797 103 696 q 227 932 157 897 q 447 967 297 967 q 581 960 508 967 q 701 942 653 953 l 701 885 q 588 901 649 894 q 486 907 526 907 q 278 885 338 907 q 193 777 218 864 q 168 478 168 690 q 186 194 168 281 q 260 78 204 108 q 446 47 317 47 q 544 52 486 47 q 640 64 601 57 l 640 432 l 424 432 m 378 1040 l 378 1047 l 492 1233 l 565 1233 l 565 1226 l 424 1040 l 378 1040 z "},"Ğ":{"ha":815,"x_min":103,"x_max":704,"o":"m 424 432 l 424 492 l 704 492 l 704 14 q 575 -4 647 3 q 446 -11 503 -11 q 226 23 296 -11 q 129 158 156 57 q 103 478 103 258 q 130 797 103 696 q 227 932 157 897 q 447 967 297 967 q 581 960 508 967 q 701 942 653 953 l 701 885 q 588 901 649 894 q 486 907 526 907 q 278 885 338 907 q 193 777 218 864 q 168 478 168 690 q 186 194 168 281 q 260 78 204 108 q 446 47 317 47 q 544 52 486 47 q 640 64 601 57 l 640 432 l 424 432 m 572 1233 q 564 1124 572 1163 q 519 1061 556 1085 q 407 1038 483 1038 q 295 1061 331 1038 q 251 1123 260 1085 q 243 1233 243 1161 l 293 1233 q 299 1144 293 1174 q 328 1099 304 1115 q 407 1083 353 1083 q 485 1099 461 1083 q 516 1145 510 1115 q 522 1233 522 1175 l 572 1233 z "},"Ǧ":{"ha":815,"x_min":103,"x_max":704,"o":"m 424 432 l 424 492 l 704 492 l 704 14 q 575 -4 647 3 q 446 -11 503 -11 q 226 23 296 -11 q 129 158 156 57 q 103 478 103 258 q 130 797 103 696 q 227 932 157 897 q 447 967 297 967 q 581 960 508 967 q 701 942 653 953 l 701 885 q 588 901 649 894 q 486 907 526 907 q 278 885 338 907 q 193 777 218 864 q 168 478 168 690 q 186 194 168 281 q 260 78 204 108 q 446 47 317 47 q 544 52 486 47 q 640 64 601 57 l 640 432 l 424 432 m 371 1042 l 240 1226 l 240 1233 l 288 1233 l 408 1088 l 529 1233 l 576 1233 l 576 1226 l 446 1042 l 371 1042 z "},"Ĝ":{"ha":815,"x_min":103,"x_max":704,"o":"m 424 432 l 424 492 l 704 492 l 704 14 q 575 -4 647 3 q 446 -11 503 -11 q 226 23 296 -11 q 129 158 156 57 q 103 478 103 258 q 130 797 103 696 q 227 932 157 897 q 447 967 297 967 q 581 960 508 967 q 701 942 653 953 l 701 885 q 588 901 649 894 q 486 907 526 907 q 278 885 338 907 q 193 777 218 864 q 168 478 168 690 q 186 194 168 281 q 260 78 204 108 q 446 47 317 47 q 544 52 486 47 q 640 64 601 57 l 640 432 l 424 432 m 242 1042 l 242 1049 l 371 1233 l 446 1233 l 576 1049 l 576 1042 l 529 1042 l 408 1188 l 288 1042 l 242 1042 z "},"Ģ":{"ha":815,"x_min":103,"x_max":704,"o":"m 424 432 l 424 492 l 704 492 l 704 14 q 575 -4 647 3 q 446 -11 503 -11 q 226 23 296 -11 q 129 158 156 57 q 103 478 103 258 q 130 797 103 696 q 227 932 157 897 q 447 967 297 967 q 581 960 508 967 q 701 942 653 953 l 701 885 q 588 901 649 894 q 486 907 526 907 q 278 885 338 907 q 193 777 218 864 q 168 478 168 690 q 186 194 168 281 q 260 78 204 108 q 446 47 317 47 q 544 52 486 47 q 640 64 601 57 l 640 432 l 424 432 m 351 -293 q 408 -277 396 -293 q 419 -208 419 -261 l 419 -185 l 388 -185 l 388 -86 l 465 -86 l 465 -192 q 456 -276 465 -249 q 424 -316 447 -304 q 351 -328 400 -328 l 351 -293 z "},"Ġ":{"ha":815,"x_min":103,"x_max":704,"o":"m 424 432 l 424 492 l 704 492 l 704 14 q 575 -4 647 3 q 446 -11 503 -11 q 226 23 296 -11 q 129 158 156 57 q 103 478 103 258 q 130 797 103 696 q 227 932 157 897 q 447 967 297 967 q 581 960 508 967 q 701 942 653 953 l 701 885 q 588 901 649 894 q 486 907 526 907 q 278 885 338 907 q 193 777 218 864 q 168 478 168 690 q 186 194 168 281 q 260 78 204 108 q 446 47 317 47 q 544 52 486 47 q 640 64 601 57 l 640 432 l 424 432 m 374 1125 l 374 1217 l 442 1217 l 442 1125 l 374 1125 z "},"H":{"ha":886,"x_min":133,"x_max":753,"o":"m 689 0 l 689 453 l 197 453 l 197 0 l 133 0 l 133 956 l 197 956 l 197 514 l 689 514 l 689 956 l 753 956 l 753 0 l 689 0 z "},"Ħ":{"ha":886,"x_min":133,"x_max":753,"o":"m 689 956 l 753 956 l 753 0 l 689 0 l 689 421 l 197 421 l 197 0 l 133 0 l 133 956 l 197 956 l 197 743 l 689 743 l 689 956 m 197 482 l 689 482 l 689 682 l 197 682 l 197 482 z "},"Ĥ":{"ha":886,"x_min":133,"x_max":753,"o":"m 689 0 l 689 453 l 197 453 l 197 0 l 133 0 l 133 956 l 197 956 l 197 514 l 689 514 l 689 956 l 753 956 l 753 0 l 689 0 m 276 1042 l 276 1049 l 406 1233 l 481 1233 l 611 1049 l 611 1042 l 564 1042 l 443 1188 l 322 1042 l 276 1042 z "},"Ḥ":{"ha":886,"x_min":133,"x_max":753,"o":"m 689 0 l 689 453 l 197 453 l 197 0 l 133 0 l 133 956 l 197 956 l 197 514 l 689 514 l 689 956 l 753 956 l 753 0 l 689 0 m 403 -187 l 403 -86 l 482 -86 l 482 -187 l 403 -187 z "},"I":{"ha":335,"x_min":135,"x_max":200,"o":"m 135 0 l 135 956 l 200 956 l 200 0 l 135 0 z "},"Ĳ":{"ha":728,"x_min":135,"x_max":607,"o":"m 135 0 l 135 956 l 200 956 l 200 0 l 135 0 m 375 58 q 496 76 465 61 q 534 140 526 90 q 542 335 542 189 l 542 956 l 607 956 l 607 356 q 594 108 607 174 q 539 22 582 42 q 375 0 496 3 l 375 58 z "},"Í":{"ha":335,"x_min":129,"x_max":317,"o":"m 135 0 l 135 956 l 200 956 l 200 0 l 135 0 m 129 1042 l 129 1049 l 243 1235 l 317 1235 l 317 1228 l 175 1042 l 129 1042 z "},"Ĭ":{"ha":335,"x_min":3,"x_max":332,"o":"m 135 0 l 135 956 l 200 956 l 200 0 l 135 0 m 332 1233 q 324 1124 332 1163 q 279 1061 315 1085 q 167 1038 243 1038 q 55 1061 90 1038 q 11 1123 19 1085 q 3 1233 3 1161 l 53 1233 q 58 1144 53 1174 q 88 1099 64 1115 q 167 1083 113 1083 q 245 1099 221 1083 q 276 1145 269 1115 q 282 1233 282 1175 l 332 1233 z "},"Ǐ":{"ha":335,"x_min":0,"x_max":336,"o":"m 135 0 l 135 956 l 200 956 l 200 0 l 135 0 m 131 1042 l 0 1226 l 0 1233 l 47 1233 l 168 1088 l 289 1233 l 336 1233 l 336 1226 l 206 1042 l 131 1042 z "},"Î":{"ha":335,"x_min":0,"x_max":335,"o":"m 135 0 l 135 956 l 200 956 l 200 0 l 135 0 m 0 1042 l 0 1049 l 129 1233 l 204 1233 l 335 1049 l 335 1042 l 288 1042 l 167 1188 l 46 1042 l 0 1042 z "},"Ȉ":{"ha":335,"x_min":-96,"x_max":314,"o":"m 135 0 l 135 956 l 200 956 l 200 0 l 135 0 m 86 1044 l 43 1044 l -96 1219 l -96 1226 l -25 1226 l 86 1051 l 86 1044 m 314 1044 l 269 1044 l 131 1219 l 131 1226 l 201 1226 l 314 1051 l 314 1044 z "},"Ï":{"ha":335,"x_min":8,"x_max":325,"o":"m 135 0 l 135 956 l 200 956 l 200 0 l 135 0 m 8 1071 l 8 1163 l 78 1163 l 78 1071 l 8 1071 m 256 1071 l 256 1163 l 325 1163 l 325 1071 l 256 1071 z "},"İ":{"ha":335,"x_min":133,"x_max":201,"o":"m 135 0 l 135 956 l 200 956 l 200 0 l 135 0 m 133 1125 l 133 1217 l 201 1217 l 201 1125 l 133 1125 z "},"Ị":{"ha":335,"x_min":128,"x_max":207,"o":"m 135 0 l 135 956 l 200 956 l 200 0 l 135 0 m 128 -187 l 128 -86 l 207 -86 l 207 -187 l 128 -187 z "},"Ì":{"ha":335,"x_min":21,"x_max":208,"o":"m 135 0 l 135 956 l 200 956 l 200 0 l 135 0 m 161 1042 l 21 1228 l 21 1235 l 94 1235 l 208 1049 l 208 1042 l 161 1042 z "},"Ỉ":{"ha":335,"x_min":18,"x_max":317,"o":"m 135 0 l 135 956 l 200 956 l 200 0 l 135 0 m 108 1031 q 120 1075 108 1063 q 164 1097 132 1088 l 193 1106 q 252 1129 239 1118 q 265 1168 265 1140 q 255 1205 265 1193 q 222 1219 244 1217 q 147 1222 199 1222 q 18 1215 97 1222 l 18 1258 q 157 1268 90 1268 q 282 1249 247 1268 q 317 1174 317 1229 q 303 1112 317 1132 q 244 1078 290 1092 l 213 1068 q 172 1054 182 1060 q 158 1042 161 1049 q 156 1017 156 1035 l 108 1017 l 108 1031 z "},"Ȋ":{"ha":335,"x_min":3,"x_max":332,"o":"m 135 0 l 135 956 l 200 956 l 200 0 l 135 0 m 3 1046 q 11 1156 3 1117 q 56 1218 19 1194 q 168 1242 92 1242 q 280 1218 244 1242 q 324 1156 315 1194 q 332 1046 332 1118 l 282 1046 q 276 1135 282 1106 q 247 1180 271 1164 q 168 1196 222 1196 q 90 1180 114 1196 q 59 1134 65 1164 q 53 1046 53 1104 l 3 1046 z "},"Ī":{"ha":335,"x_min":22,"x_max":313,"o":"m 135 0 l 135 956 l 200 956 l 200 0 l 135 0 m 22 1171 l 22 1232 l 313 1232 l 313 1171 l 22 1171 z "},"Į":{"ha":335,"x_min":56,"x_max":201,"o":"m 165 -272 q 82 -244 108 -272 q 56 -171 56 -217 q 79 -84 56 -131 q 140 0 103 -37 l 135 0 l 135 956 l 200 956 l 200 0 q 141 -73 169 -25 q 113 -158 113 -121 q 178 -221 113 -221 q 201 -219 190 -221 l 201 -271 q 165 -272 189 -272 z "},"Ĩ":{"ha":335,"x_min":-49,"x_max":382,"o":"m 135 0 l 135 956 l 200 956 l 200 0 l 135 0 m 382 1233 q 366 1125 382 1154 q 299 1096 350 1096 q 236 1105 267 1096 q 156 1132 206 1114 q 89 1156 115 1147 q 38 1164 63 1164 q 3 1147 11 1164 q -4 1081 -4 1129 l -49 1081 q -33 1189 -49 1160 q 35 1218 -17 1218 q 101 1208 68 1218 q 181 1181 135 1199 q 245 1158 218 1165 q 297 1150 272 1150 q 331 1167 324 1150 q 338 1233 338 1185 l 382 1233 z "},"J":{"ha":393,"x_min":40,"x_max":272,"o":"m 40 58 q 161 76 131 61 q 199 140 192 90 q 207 335 207 189 l 207 956 l 272 956 l 272 356 q 260 108 272 174 q 204 22 247 42 q 40 0 161 3 l 40 58 z "},"Ĵ":{"ha":393,"x_min":40,"x_max":407,"o":"m 40 58 q 161 76 131 61 q 199 140 192 90 q 207 335 207 189 l 207 956 l 272 956 l 272 356 q 260 108 272 174 q 204 22 247 42 q 40 0 161 3 l 40 58 m 72 1042 l 72 1049 l 201 1233 l 276 1233 l 407 1049 l 407 1042 l 360 1042 l 239 1188 l 118 1042 l 72 1042 z "},"K":{"ha":800,"x_min":133,"x_max":758,"o":"m 683 0 l 383 456 l 197 456 l 197 0 l 133 0 l 133 956 l 197 956 l 197 514 l 383 514 l 682 956 l 754 956 l 438 486 l 758 0 l 683 0 z "},"Ķ":{"ha":800,"x_min":133,"x_max":758,"o":"m 683 0 l 383 456 l 197 456 l 197 0 l 133 0 l 133 956 l 197 956 l 197 514 l 383 514 l 682 956 l 754 956 l 438 486 l 758 0 l 683 0 m 343 -293 q 399 -277 388 -293 q 411 -208 411 -261 l 411 -185 l 379 -185 l 379 -86 l 457 -86 l 457 -192 q 448 -276 457 -249 q 415 -316 439 -304 q 343 -328 392 -328 l 343 -293 z "},"L":{"ha":639,"x_min":133,"x_max":606,"o":"m 133 0 l 133 956 l 199 956 l 199 60 l 606 60 l 606 0 l 133 0 z "},"Ǉ":{"ha":1032,"x_min":133,"x_max":911,"o":"m 133 0 l 133 956 l 199 956 l 199 60 l 606 60 l 606 0 l 133 0 m 679 58 q 800 76 769 61 q 838 140 831 90 q 846 335 846 189 l 846 956 l 911 956 l 911 356 q 899 108 911 174 q 843 22 886 42 q 679 0 800 3 l 679 58 z "},"Ĺ":{"ha":639,"x_min":133,"x_max":606,"o":"m 133 0 l 133 956 l 199 956 l 199 60 l 606 60 l 606 0 l 133 0 m 139 1040 l 139 1047 l 253 1233 l 326 1233 l 326 1226 l 185 1040 l 139 1040 z "},"Ľ":{"ha":639,"x_min":133,"x_max":606,"o":"m 133 0 l 133 956 l 199 956 l 199 60 l 606 60 l 606 0 l 133 0 m 393 633 l 411 843 l 411 963 l 478 963 l 478 843 l 436 633 l 393 633 z "},"Ļ":{"ha":639,"x_min":133,"x_max":606,"o":"m 133 0 l 133 956 l 199 956 l 199 60 l 606 60 l 606 0 l 133 0 m 285 -293 q 341 -277 329 -293 q 353 -208 353 -261 l 353 -185 l 321 -185 l 321 -86 l 399 -86 l 399 -192 q 390 -276 399 -249 q 357 -316 381 -304 q 285 -328 333 -328 l 285 -293 z "},"Ŀ":{"ha":639,"x_min":133,"x_max":606,"o":"m 133 0 l 133 956 l 199 956 l 199 60 l 606 60 l 606 0 l 133 0 m 456 449 l 456 550 l 535 550 l 535 449 l 456 449 z "},"ǈ":{"ha":935,"x_min":133,"x_max":822,"o":"m 133 0 l 133 956 l 199 956 l 199 60 l 606 60 l 606 0 l 133 0 m 751 939 l 751 1032 l 822 1032 l 822 939 l 751 939 m 635 -221 q 715 -214 690 -221 q 748 -192 740 -207 q 756 -143 756 -176 l 756 708 l 818 708 l 818 -125 q 800 -225 818 -193 q 745 -265 782 -257 q 635 -274 708 -274 l 635 -221 z "},"Ł":{"ha":639,"x_min":49,"x_max":606,"o":"m 199 60 l 606 60 l 606 0 l 133 0 l 133 415 l 49 385 l 49 443 l 133 474 l 133 956 l 199 956 l 199 499 l 450 590 l 450 532 l 199 440 l 199 60 z "},"M":{"ha":1103,"x_min":133,"x_max":971,"o":"m 906 0 l 906 831 l 900 831 l 581 0 l 519 0 l 201 831 l 196 831 l 196 0 l 133 0 l 133 956 l 222 956 l 549 107 l 556 107 l 883 956 l 971 956 l 971 0 l 906 0 z "},"N":{"ha":886,"x_min":133,"x_max":754,"o":"m 688 0 l 201 822 l 196 822 l 196 0 l 133 0 l 133 956 l 200 956 l 685 136 l 690 136 l 690 956 l 754 956 l 754 0 l 688 0 z "},"Ǌ":{"ha":1279,"x_min":133,"x_max":1158,"o":"m 688 0 l 201 822 l 196 822 l 196 0 l 133 0 l 133 956 l 200 956 l 685 136 l 690 136 l 690 956 l 754 956 l 754 0 l 688 0 m 926 58 q 1047 76 1017 61 q 1085 140 1078 90 q 1093 335 1093 189 l 1093 956 l 1158 956 l 1158 356 q 1146 108 1158 174 q 1090 22 1133 42 q 926 0 1047 3 l 926 58 z "},"Ń":{"ha":886,"x_min":133,"x_max":754,"o":"m 688 0 l 201 822 l 196 822 l 196 0 l 133 0 l 133 956 l 200 956 l 685 136 l 690 136 l 690 956 l 754 956 l 754 0 l 688 0 m 413 1040 l 413 1047 l 526 1233 l 600 1233 l 600 1226 l 458 1040 l 413 1040 z "},"Ň":{"ha":886,"x_min":133,"x_max":754,"o":"m 688 0 l 201 822 l 196 822 l 196 0 l 133 0 l 133 956 l 200 956 l 685 136 l 690 136 l 690 956 l 754 956 l 754 0 l 688 0 m 406 1042 l 275 1226 l 275 1233 l 322 1233 l 443 1088 l 564 1233 l 611 1233 l 611 1226 l 481 1042 l 406 1042 z "},"Ņ":{"ha":886,"x_min":133,"x_max":754,"o":"m 688 0 l 201 822 l 196 822 l 196 0 l 133 0 l 133 956 l 200 956 l 685 136 l 690 136 l 690 956 l 754 956 l 754 0 l 688 0 m 386 -293 q 442 -277 431 -293 q 454 -208 454 -261 l 454 -185 l 422 -185 l 422 -86 l 500 -86 l 500 -192 q 491 -276 500 -249 q 458 -316 482 -304 q 386 -328 435 -328 l 386 -293 z "},"Ṅ":{"ha":886,"x_min":133,"x_max":754,"o":"m 688 0 l 201 822 l 196 822 l 196 0 l 133 0 l 133 956 l 200 956 l 685 136 l 690 136 l 690 956 l 754 956 l 754 0 l 688 0 m 408 1125 l 408 1217 l 476 1217 l 476 1125 l 408 1125 z "},"Ŋ":{"ha":886,"x_min":133,"x_max":754,"o":"m 754 956 l 754 -125 q 735 -225 754 -193 q 680 -265 717 -257 q 569 -274 643 -274 l 569 -221 q 650 -214 625 -221 q 683 -192 675 -207 q 690 -143 690 -176 l 690 0 l 201 822 l 196 822 l 196 0 l 133 0 l 133 956 l 200 956 l 685 140 l 690 140 l 690 956 l 754 956 z "},"Ɲ":{"ha":886,"x_min":11,"x_max":754,"o":"m 754 956 l 754 0 l 688 0 l 201 822 l 196 822 l 196 -125 q 177 -225 196 -193 q 122 -265 158 -257 q 11 -274 85 -274 l 11 -221 q 92 -214 67 -221 q 126 -192 118 -207 q 133 -143 133 -176 l 133 956 l 200 956 l 685 136 l 690 136 l 690 956 l 754 956 z "},"ǋ":{"ha":1182,"x_min":133,"x_max":1069,"o":"m 688 0 l 201 822 l 196 822 l 196 0 l 133 0 l 133 956 l 200 956 l 685 136 l 690 136 l 690 956 l 754 956 l 754 0 l 688 0 m 999 939 l 999 1032 l 1069 1032 l 1069 939 l 999 939 m 882 -221 q 963 -214 938 -221 q 995 -192 988 -207 q 1003 -143 1003 -176 l 1003 708 l 1065 708 l 1065 -125 q 1047 -225 1065 -193 q 992 -265 1029 -257 q 882 -274 956 -274 l 882 -221 z "},"Ñ":{"ha":886,"x_min":133,"x_max":754,"o":"m 688 0 l 201 822 l 196 822 l 196 0 l 133 0 l 133 956 l 200 956 l 685 136 l 690 136 l 690 956 l 754 956 l 754 0 l 688 0 m 661 1194 q 645 1086 661 1115 q 578 1057 629 1057 q 515 1066 546 1057 q 435 1093 485 1075 q 368 1117 394 1108 q 317 1125 342 1125 q 283 1108 290 1125 q 275 1042 275 1090 l 231 1042 q 247 1150 231 1121 q 314 1179 263 1179 q 381 1169 347 1179 q 460 1142 414 1160 q 524 1119 497 1126 q 576 1111 551 1111 q 610 1128 603 1111 q 617 1194 617 1146 l 661 1194 z "},"O":{"ha":871,"x_min":103,"x_max":768,"o":"m 436 -11 q 208 23 275 -11 q 122 152 142 57 q 103 478 103 247 q 122 803 103 708 q 208 933 142 899 q 436 967 275 967 q 663 933 597 967 q 749 803 729 899 q 768 478 768 708 q 749 152 768 247 q 663 23 729 57 q 436 -11 597 -11 m 436 49 q 620 70 571 49 q 686 175 669 92 q 703 478 703 258 q 686 781 703 697 q 620 885 669 864 q 436 907 571 907 q 251 885 301 907 q 185 781 201 864 q 168 478 168 697 q 185 175 168 258 q 251 70 201 92 q 436 49 301 49 z "},"Ó":{"ha":871,"x_min":103,"x_max":768,"o":"m 436 -11 q 208 23 275 -11 q 122 152 142 57 q 103 478 103 247 q 122 803 103 708 q 208 933 142 899 q 436 967 275 967 q 663 933 597 967 q 749 803 729 899 q 768 478 768 708 q 749 152 768 247 q 663 23 729 57 q 436 -11 597 -11 m 436 49 q 620 70 571 49 q 686 175 669 92 q 703 478 703 258 q 686 781 703 697 q 620 885 669 864 q 436 907 571 907 q 251 885 301 907 q 185 781 201 864 q 168 478 168 697 q 185 175 168 258 q 251 70 201 92 q 436 49 301 49 m 401 1042 l 401 1049 l 515 1235 l 589 1235 l 589 1228 l 447 1042 l 401 1042 z "},"Ŏ":{"ha":871,"x_min":103,"x_max":768,"o":"m 436 -11 q 208 23 275 -11 q 122 152 142 57 q 103 478 103 247 q 122 803 103 708 q 208 933 142 899 q 436 967 275 967 q 663 933 597 967 q 749 803 729 899 q 768 478 768 708 q 749 152 768 247 q 663 23 729 57 q 436 -11 597 -11 m 436 49 q 620 70 571 49 q 686 175 669 92 q 703 478 703 258 q 686 781 703 697 q 620 885 669 864 q 436 907 571 907 q 251 885 301 907 q 185 781 201 864 q 168 478 168 697 q 185 175 168 258 q 251 70 201 92 q 436 49 301 49 m 600 1233 q 592 1124 600 1163 q 547 1061 583 1085 q 435 1038 511 1038 q 323 1061 358 1038 q 279 1123 288 1085 q 271 1233 271 1161 l 321 1233 q 326 1144 321 1174 q 356 1099 332 1115 q 435 1083 381 1083 q 513 1099 489 1083 q 544 1145 538 1115 q 550 1233 550 1175 l 600 1233 z "},"Ǒ":{"ha":871,"x_min":103,"x_max":768,"o":"m 436 -11 q 208 23 275 -11 q 122 152 142 57 q 103 478 103 247 q 122 803 103 708 q 208 933 142 899 q 436 967 275 967 q 663 933 597 967 q 749 803 729 899 q 768 478 768 708 q 749 152 768 247 q 663 23 729 57 q 436 -11 597 -11 m 436 49 q 620 70 571 49 q 686 175 669 92 q 703 478 703 258 q 686 781 703 697 q 620 885 669 864 q 436 907 571 907 q 251 885 301 907 q 185 781 201 864 q 168 478 168 697 q 185 175 168 258 q 251 70 201 92 q 436 49 301 49 m 399 1042 l 268 1226 l 268 1233 l 315 1233 l 436 1088 l 557 1233 l 604 1233 l 604 1226 l 474 1042 l 399 1042 z "},"Ô":{"ha":871,"x_min":103,"x_max":768,"o":"m 436 -11 q 208 23 275 -11 q 122 152 142 57 q 103 478 103 247 q 122 803 103 708 q 208 933 142 899 q 436 967 275 967 q 663 933 597 967 q 749 803 729 899 q 768 478 768 708 q 749 152 768 247 q 663 23 729 57 q 436 -11 597 -11 m 436 49 q 620 70 571 49 q 686 175 669 92 q 703 478 703 258 q 686 781 703 697 q 620 885 669 864 q 436 907 571 907 q 251 885 301 907 q 185 781 201 864 q 168 478 168 697 q 185 175 168 258 q 251 70 201 92 q 436 49 301 49 m 269 1042 l 269 1049 l 399 1233 l 474 1233 l 604 1049 l 604 1042 l 557 1042 l 436 1188 l 315 1042 l 269 1042 z "},"Ố":{"ha":871,"x_min":103,"x_max":768,"o":"m 436 -11 q 208 23 275 -11 q 122 152 142 57 q 103 478 103 247 q 122 803 103 708 q 208 933 142 899 q 436 967 275 967 q 663 933 597 967 q 749 803 729 899 q 768 478 768 708 q 749 152 768 247 q 663 23 729 57 q 436 -11 597 -11 m 436 49 q 620 70 571 49 q 686 175 669 92 q 703 478 703 258 q 686 781 703 697 q 620 885 669 864 q 436 907 571 907 q 251 885 301 907 q 185 781 201 864 q 168 478 168 697 q 185 175 168 258 q 251 70 201 92 q 436 49 301 49 m 265 1038 l 265 1044 l 394 1229 l 469 1229 l 600 1044 l 600 1038 l 553 1038 l 432 1183 l 311 1038 l 265 1038 m 525 1233 l 525 1240 l 639 1426 l 713 1426 l 713 1419 l 571 1233 l 525 1233 z "},"Ộ":{"ha":871,"x_min":103,"x_max":768,"o":"m 436 -11 q 208 23 275 -11 q 122 152 142 57 q 103 478 103 247 q 122 803 103 708 q 208 933 142 899 q 436 967 275 967 q 663 933 597 967 q 749 803 729 899 q 768 478 768 708 q 749 152 768 247 q 663 23 729 57 q 436 -11 597 -11 m 436 49 q 620 70 571 49 q 686 175 669 92 q 703 478 703 258 q 686 781 703 697 q 620 885 669 864 q 436 907 571 907 q 251 885 301 907 q 185 781 201 864 q 168 478 168 697 q 185 175 168 258 q 251 70 201 92 q 436 49 301 49 m 396 -187 l 396 -86 l 475 -86 l 475 -187 l 396 -187 m 269 1042 l 269 1049 l 399 1233 l 474 1233 l 604 1049 l 604 1042 l 557 1042 l 436 1188 l 315 1042 l 269 1042 z "},"Ồ":{"ha":871,"x_min":103,"x_max":768,"o":"m 436 -11 q 208 23 275 -11 q 122 152 142 57 q 103 478 103 247 q 122 803 103 708 q 208 933 142 899 q 436 967 275 967 q 663 933 597 967 q 749 803 729 899 q 768 478 768 708 q 749 152 768 247 q 663 23 729 57 q 436 -11 597 -11 m 436 49 q 620 70 571 49 q 686 175 669 92 q 703 478 703 258 q 686 781 703 697 q 620 885 669 864 q 436 907 571 907 q 251 885 301 907 q 185 781 201 864 q 168 478 168 697 q 185 175 168 258 q 251 70 201 92 q 436 49 301 49 m 264 1036 l 264 1043 l 393 1228 l 468 1228 l 599 1043 l 599 1036 l 551 1036 l 431 1182 l 310 1036 l 264 1036 m 558 1232 l 418 1418 l 418 1425 l 492 1425 l 606 1239 l 606 1232 l 558 1232 z "},"Ổ":{"ha":871,"x_min":103,"x_max":768,"o":"m 436 -11 q 208 23 275 -11 q 122 152 142 57 q 103 478 103 247 q 122 803 103 708 q 208 933 142 899 q 436 967 275 967 q 663 933 597 967 q 749 803 729 899 q 768 478 768 708 q 749 152 768 247 q 663 23 729 57 q 436 -11 597 -11 m 436 49 q 620 70 571 49 q 686 175 669 92 q 703 478 703 258 q 686 781 703 697 q 620 885 669 864 q 436 907 571 907 q 251 885 301 907 q 185 781 201 864 q 168 478 168 697 q 185 175 168 258 q 251 70 201 92 q 436 49 301 49 m 269 1036 l 269 1043 l 399 1228 l 474 1228 l 604 1043 l 604 1036 l 557 1036 l 436 1182 l 315 1036 l 269 1036 m 494 1244 q 506 1289 494 1276 q 550 1311 518 1301 l 579 1319 q 638 1343 625 1332 q 651 1382 651 1354 q 641 1419 651 1407 q 608 1433 631 1431 q 533 1436 585 1436 q 404 1429 483 1436 l 404 1472 q 543 1482 476 1482 q 668 1463 633 1482 q 703 1388 703 1443 q 690 1326 703 1346 q 631 1292 676 1306 l 599 1282 q 558 1268 568 1274 q 544 1256 547 1263 q 542 1231 542 1249 l 494 1231 l 494 1244 z "},"Ỗ":{"ha":871,"x_min":103,"x_max":768,"o":"m 436 -11 q 208 23 275 -11 q 122 152 142 57 q 103 478 103 247 q 122 803 103 708 q 208 933 142 899 q 436 967 275 967 q 663 933 597 967 q 749 803 729 899 q 768 478 768 708 q 749 152 768 247 q 663 23 729 57 q 436 -11 597 -11 m 436 49 q 620 70 571 49 q 686 175 669 92 q 703 478 703 258 q 686 781 703 697 q 620 885 669 864 q 436 907 571 907 q 251 885 301 907 q 185 781 201 864 q 168 478 168 697 q 185 175 168 258 q 251 70 201 92 q 436 49 301 49 m 267 1036 l 267 1043 l 396 1228 l 471 1228 l 601 1043 l 601 1036 l 554 1036 l 433 1182 l 313 1036 l 267 1036 m 650 1468 q 634 1360 650 1389 q 567 1331 618 1331 q 504 1340 535 1331 q 424 1367 474 1349 q 357 1390 383 1382 q 306 1399 331 1399 q 272 1381 279 1399 q 264 1315 264 1364 l 219 1315 q 235 1424 219 1394 q 303 1453 251 1453 q 369 1443 336 1453 q 449 1415 403 1433 q 513 1392 486 1400 q 565 1385 540 1385 q 599 1402 592 1385 q 606 1468 606 1419 l 650 1468 z "},"Ȍ":{"ha":871,"x_min":103,"x_max":768,"o":"m 436 -11 q 208 23 275 -11 q 122 152 142 57 q 103 478 103 247 q 122 803 103 708 q 208 933 142 899 q 436 967 275 967 q 663 933 597 967 q 749 803 729 899 q 768 478 768 708 q 749 152 768 247 q 663 23 729 57 q 436 -11 597 -11 m 436 49 q 620 70 571 49 q 686 175 669 92 q 703 478 703 258 q 686 781 703 697 q 620 885 669 864 q 436 907 571 907 q 251 885 301 907 q 185 781 201 864 q 168 478 168 697 q 185 175 168 258 q 251 70 201 92 q 436 49 301 49 m 354 1044 l 311 1044 l 172 1219 l 172 1226 l 243 1226 l 354 1051 l 354 1044 m 582 1044 l 538 1044 l 399 1219 l 399 1226 l 469 1226 l 582 1051 l 582 1044 z "},"Ö":{"ha":871,"x_min":103,"x_max":768,"o":"m 436 -11 q 208 23 275 -11 q 122 152 142 57 q 103 478 103 247 q 122 803 103 708 q 208 933 142 899 q 436 967 275 967 q 663 933 597 967 q 749 803 729 899 q 768 478 768 708 q 749 152 768 247 q 663 23 729 57 q 436 -11 597 -11 m 436 49 q 620 70 571 49 q 686 175 669 92 q 703 478 703 258 q 686 781 703 697 q 620 885 669 864 q 436 907 571 907 q 251 885 301 907 q 185 781 201 864 q 168 478 168 697 q 185 175 168 258 q 251 70 201 92 q 436 49 301 49 m 276 1071 l 276 1163 l 346 1163 l 346 1071 l 276 1071 m 524 1071 l 524 1163 l 593 1163 l 593 1071 l 524 1071 z "},"Ọ":{"ha":871,"x_min":103,"x_max":768,"o":"m 436 -11 q 208 23 275 -11 q 122 152 142 57 q 103 478 103 247 q 122 803 103 708 q 208 933 142 899 q 436 967 275 967 q 663 933 597 967 q 749 803 729 899 q 768 478 768 708 q 749 152 768 247 q 663 23 729 57 q 436 -11 597 -11 m 436 49 q 620 70 571 49 q 686 175 669 92 q 703 478 703 258 q 686 781 703 697 q 620 885 669 864 q 436 907 571 907 q 251 885 301 907 q 185 781 201 864 q 168 478 168 697 q 185 175 168 258 q 251 70 201 92 q 436 49 301 49 m 396 -187 l 396 -86 l 475 -86 l 475 -187 l 396 -187 z "},"Ò":{"ha":871,"x_min":103,"x_max":768,"o":"m 436 -11 q 208 23 275 -11 q 122 152 142 57 q 103 478 103 247 q 122 803 103 708 q 208 933 142 899 q 436 967 275 967 q 663 933 597 967 q 749 803 729 899 q 768 478 768 708 q 749 152 768 247 q 663 23 729 57 q 436 -11 597 -11 m 436 49 q 620 70 571 49 q 686 175 669 92 q 703 478 703 258 q 686 781 703 697 q 620 885 669 864 q 436 907 571 907 q 251 885 301 907 q 185 781 201 864 q 168 478 168 697 q 185 175 168 258 q 251 70 201 92 q 436 49 301 49 m 418 1042 l 278 1228 l 278 1235 l 351 1235 l 465 1049 l 465 1042 l 418 1042 z "},"Ỏ":{"ha":871,"x_min":103,"x_max":768,"o":"m 436 -11 q 208 23 275 -11 q 122 152 142 57 q 103 478 103 247 q 122 803 103 708 q 208 933 142 899 q 436 967 275 967 q 663 933 597 967 q 749 803 729 899 q 768 478 768 708 q 749 152 768 247 q 663 23 729 57 q 436 -11 597 -11 m 436 49 q 620 70 571 49 q 686 175 669 92 q 703 478 703 258 q 686 781 703 697 q 620 885 669 864 q 436 907 571 907 q 251 885 301 907 q 185 781 201 864 q 168 478 168 697 q 185 175 168 258 q 251 70 201 92 q 436 49 301 49 m 376 1031 q 388 1075 376 1063 q 432 1097 400 1088 l 461 1106 q 520 1129 507 1118 q 533 1168 533 1140 q 523 1205 533 1193 q 490 1219 513 1217 q 415 1222 467 1222 q 286 1215 365 1222 l 286 1258 q 425 1268 358 1268 q 550 1249 515 1268 q 585 1174 585 1229 q 572 1112 585 1132 q 513 1078 558 1092 l 481 1068 q 440 1054 450 1060 q 426 1042 429 1049 q 424 1017 424 1035 l 376 1017 l 376 1031 z "},"Ơ":{"ha":871,"x_min":103,"x_max":786,"o":"m 786 1049 q 767 946 786 974 q 692 914 749 918 q 754 777 740 871 q 768 478 768 683 q 749 152 768 247 q 663 23 729 57 q 436 -11 597 -11 q 208 23 275 -11 q 122 152 142 57 q 103 478 103 247 q 122 803 103 708 q 208 933 142 899 q 436 967 275 967 q 596 956 539 967 l 664 956 q 710 963 696 956 q 729 987 725 971 q 733 1038 733 1003 l 733 1092 l 786 1092 l 786 1049 m 703 478 q 686 781 703 697 q 620 885 669 864 q 436 907 571 907 q 251 885 301 907 q 185 781 201 864 q 168 478 168 697 q 185 175 168 258 q 251 70 201 92 q 436 49 301 49 q 620 70 571 49 q 686 175 669 92 q 703 478 703 258 z "},"Ớ":{"ha":871,"x_min":103,"x_max":786,"o":"m 786 1049 q 767 946 786 974 q 692 914 749 918 q 754 777 740 871 q 768 478 768 683 q 749 152 768 247 q 663 23 729 57 q 436 -11 597 -11 q 208 23 275 -11 q 122 152 142 57 q 103 478 103 247 q 122 803 103 708 q 208 933 142 899 q 436 967 275 967 q 596 956 539 967 l 664 956 q 710 963 696 956 q 729 987 725 971 q 733 1038 733 1003 l 733 1092 l 786 1092 l 786 1049 m 703 478 q 686 781 703 697 q 620 885 669 864 q 436 907 571 907 q 251 885 301 907 q 185 781 201 864 q 168 478 168 697 q 185 175 168 258 q 251 70 201 92 q 436 49 301 49 q 620 70 571 49 q 686 175 669 92 q 703 478 703 258 m 406 1040 l 406 1047 l 519 1233 l 593 1233 l 593 1226 l 451 1040 l 406 1040 z "},"Ợ":{"ha":871,"x_min":103,"x_max":786,"o":"m 786 1049 q 767 946 786 974 q 692 914 749 918 q 754 777 740 871 q 768 478 768 683 q 749 152 768 247 q 663 23 729 57 q 436 -11 597 -11 q 208 23 275 -11 q 122 152 142 57 q 103 478 103 247 q 122 803 103 708 q 208 933 142 899 q 436 967 275 967 q 596 956 539 967 l 664 956 q 710 963 696 956 q 729 987 725 971 q 733 1038 733 1003 l 733 1092 l 786 1092 l 786 1049 m 703 478 q 686 781 703 697 q 620 885 669 864 q 436 907 571 907 q 251 885 301 907 q 185 781 201 864 q 168 478 168 697 q 185 175 168 258 q 251 70 201 92 q 436 49 301 49 q 620 70 571 49 q 686 175 669 92 q 703 478 703 258 m 396 -187 l 396 -86 l 475 -86 l 475 -187 l 396 -187 z "},"Ờ":{"ha":871,"x_min":103,"x_max":786,"o":"m 786 1049 q 767 946 786 974 q 692 914 749 918 q 754 777 740 871 q 768 478 768 683 q 749 152 768 247 q 663 23 729 57 q 436 -11 597 -11 q 208 23 275 -11 q 122 152 142 57 q 103 478 103 247 q 122 803 103 708 q 208 933 142 899 q 436 967 275 967 q 596 956 539 967 l 664 956 q 710 963 696 956 q 729 987 725 971 q 733 1038 733 1003 l 733 1092 l 786 1092 l 786 1049 m 703 478 q 686 781 703 697 q 620 885 669 864 q 436 907 571 907 q 251 885 301 907 q 185 781 201 864 q 168 478 168 697 q 185 175 168 258 q 251 70 201 92 q 436 49 301 49 q 620 70 571 49 q 686 175 669 92 q 703 478 703 258 m 425 1040 l 285 1226 l 285 1233 l 358 1233 l 472 1047 l 472 1040 l 425 1040 z "},"Ở":{"ha":871,"x_min":103,"x_max":786,"o":"m 786 1049 q 767 946 786 974 q 692 914 749 918 q 754 777 740 871 q 768 478 768 683 q 749 152 768 247 q 663 23 729 57 q 436 -11 597 -11 q 208 23 275 -11 q 122 152 142 57 q 103 478 103 247 q 122 803 103 708 q 208 933 142 899 q 436 967 275 967 q 596 956 539 967 l 664 956 q 710 963 696 956 q 729 987 725 971 q 733 1038 733 1003 l 733 1092 l 786 1092 l 786 1049 m 703 478 q 686 781 703 697 q 620 885 669 864 q 436 907 571 907 q 251 885 301 907 q 185 781 201 864 q 168 478 168 697 q 185 175 168 258 q 251 70 201 92 q 436 49 301 49 q 620 70 571 49 q 686 175 669 92 q 703 478 703 258 m 376 1031 q 388 1075 376 1063 q 432 1097 400 1088 l 461 1106 q 520 1129 507 1118 q 533 1168 533 1140 q 523 1205 533 1193 q 490 1219 513 1217 q 415 1222 467 1222 q 286 1215 365 1222 l 286 1258 q 425 1268 358 1268 q 550 1249 515 1268 q 585 1174 585 1229 q 572 1112 585 1132 q 513 1078 558 1092 l 481 1068 q 440 1054 450 1060 q 426 1042 429 1049 q 424 1017 424 1035 l 376 1017 l 376 1031 z "},"Ỡ":{"ha":871,"x_min":103,"x_max":786,"o":"m 786 1049 q 767 946 786 974 q 692 914 749 918 q 754 777 740 871 q 768 478 768 683 q 749 152 768 247 q 663 23 729 57 q 436 -11 597 -11 q 208 23 275 -11 q 122 152 142 57 q 103 478 103 247 q 122 803 103 708 q 208 933 142 899 q 436 967 275 967 q 596 956 539 967 l 664 956 q 710 963 696 956 q 729 987 725 971 q 733 1038 733 1003 l 733 1092 l 786 1092 l 786 1049 m 703 478 q 686 781 703 697 q 620 885 669 864 q 436 907 571 907 q 251 885 301 907 q 185 781 201 864 q 168 478 168 697 q 185 175 168 258 q 251 70 201 92 q 436 49 301 49 q 620 70 571 49 q 686 175 669 92 q 703 478 703 258 m 650 1233 q 634 1125 650 1154 q 567 1096 618 1096 q 504 1105 535 1096 q 424 1132 474 1114 q 357 1156 383 1147 q 306 1164 331 1164 q 272 1147 279 1164 q 264 1081 264 1129 l 219 1081 q 235 1189 219 1160 q 303 1218 251 1218 q 369 1208 336 1218 q 449 1181 403 1199 q 513 1158 486 1165 q 565 1150 540 1150 q 599 1167 592 1150 q 606 1233 606 1185 l 650 1233 z "},"Ő":{"ha":871,"x_min":103,"x_max":768,"o":"m 436 -11 q 208 23 275 -11 q 122 152 142 57 q 103 478 103 247 q 122 803 103 708 q 208 933 142 899 q 436 967 275 967 q 663 933 597 967 q 749 803 729 899 q 768 478 768 708 q 749 152 768 247 q 663 23 729 57 q 436 -11 597 -11 m 436 49 q 620 70 571 49 q 686 175 669 92 q 703 478 703 258 q 686 781 703 697 q 620 885 669 864 q 436 907 571 907 q 251 885 301 907 q 185 781 201 864 q 168 478 168 697 q 185 175 168 258 q 251 70 201 92 q 436 49 301 49 m 300 1044 l 300 1051 l 413 1226 l 483 1226 l 483 1219 l 344 1044 l 300 1044 m 528 1044 l 528 1051 l 639 1226 l 710 1226 l 710 1219 l 571 1044 l 528 1044 z "},"Ȏ":{"ha":871,"x_min":103,"x_max":768,"o":"m 436 -11 q 208 23 275 -11 q 122 152 142 57 q 103 478 103 247 q 122 803 103 708 q 208 933 142 899 q 436 967 275 967 q 663 933 597 967 q 749 803 729 899 q 768 478 768 708 q 749 152 768 247 q 663 23 729 57 q 436 -11 597 -11 m 436 49 q 620 70 571 49 q 686 175 669 92 q 703 478 703 258 q 686 781 703 697 q 620 885 669 864 q 436 907 571 907 q 251 885 301 907 q 185 781 201 864 q 168 478 168 697 q 185 175 168 258 q 251 70 201 92 q 436 49 301 49 m 271 1046 q 279 1156 271 1117 q 324 1218 288 1194 q 436 1242 360 1242 q 548 1218 513 1242 q 592 1156 583 1194 q 600 1046 600 1118 l 550 1046 q 544 1135 550 1106 q 515 1180 539 1164 q 436 1196 490 1196 q 358 1180 382 1196 q 327 1134 333 1164 q 321 1046 321 1104 l 271 1046 z "},"Ō":{"ha":871,"x_min":103,"x_max":768,"o":"m 436 -11 q 208 23 275 -11 q 122 152 142 57 q 103 478 103 247 q 122 803 103 708 q 208 933 142 899 q 436 967 275 967 q 663 933 597 967 q 749 803 729 899 q 768 478 768 708 q 749 152 768 247 q 663 23 729 57 q 436 -11 597 -11 m 436 49 q 620 70 571 49 q 686 175 669 92 q 703 478 703 258 q 686 781 703 697 q 620 885 669 864 q 436 907 571 907 q 251 885 301 907 q 185 781 201 864 q 168 478 168 697 q 185 175 168 258 q 251 70 201 92 q 436 49 301 49 m 290 1171 l 290 1232 l 581 1232 l 581 1171 l 290 1171 z "},"Ǫ":{"ha":871,"x_min":103,"x_max":768,"o":"m 601 -272 q 518 -244 544 -272 q 492 -174 492 -217 q 515 -88 492 -133 q 581 -3 539 -43 q 436 -11 522 -11 q 208 23 275 -11 q 122 152 142 57 q 103 478 103 247 q 122 803 103 708 q 208 933 142 899 q 436 967 275 967 q 663 933 597 967 q 749 803 729 899 q 768 478 768 708 q 762 241 768 325 q 735 105 756 157 q 671 26 714 53 q 585 -59 622 -4 q 549 -161 549 -114 q 564 -204 549 -187 q 614 -221 579 -221 l 638 -219 l 638 -271 q 601 -272 622 -272 m 436 49 q 619 70 569 49 q 686 175 669 92 q 703 478 703 258 q 686 781 703 697 q 619 885 669 864 q 436 907 569 907 q 251 885 301 907 q 185 781 201 864 q 168 478 168 697 q 185 175 168 258 q 251 70 201 92 q 436 49 301 49 z "},"Ø":{"ha":871,"x_min":103,"x_max":768,"o":"m 700 906 q 756 769 743 861 q 768 478 768 676 q 749 152 768 247 q 663 23 729 57 q 436 -11 597 -11 q 306 -5 358 -11 q 217 18 253 1 l 165 -76 l 103 -76 l 172 50 q 115 188 128 94 q 103 478 103 281 q 122 803 103 708 q 208 933 142 899 q 436 967 275 967 q 567 960 514 967 q 654 938 619 954 l 706 1032 l 768 1032 l 700 906 m 168 478 q 175 231 168 311 q 206 113 182 151 l 625 885 q 557 903 599 899 q 436 907 515 907 q 251 885 301 907 q 185 781 201 864 q 168 478 168 697 m 703 478 q 696 724 703 644 q 665 843 689 804 l 246 72 q 315 53 274 57 q 436 49 357 49 q 620 70 571 49 q 686 175 669 92 q 703 478 703 258 z "},"Ǿ":{"ha":871,"x_min":103,"x_max":768,"o":"m 700 906 q 756 769 743 861 q 768 478 768 676 q 749 152 768 247 q 663 23 729 57 q 436 -11 597 -11 q 306 -5 358 -11 q 217 18 253 1 l 165 -76 l 103 -76 l 172 50 q 115 188 128 94 q 103 478 103 281 q 122 803 103 708 q 208 933 142 899 q 436 967 275 967 q 567 960 514 967 q 654 938 619 954 l 706 1032 l 768 1032 l 700 906 m 168 478 q 175 231 168 311 q 206 113 182 151 l 625 885 q 557 903 599 899 q 436 907 515 907 q 251 885 301 907 q 185 781 201 864 q 168 478 168 697 m 703 478 q 696 724 703 644 q 665 843 689 804 l 246 72 q 315 53 274 57 q 436 49 357 49 q 620 70 571 49 q 686 175 669 92 q 703 478 703 258 m 404 1040 l 404 1047 l 518 1233 l 592 1233 l 592 1226 l 450 1040 l 404 1040 z "},"Õ":{"ha":871,"x_min":103,"x_max":768,"o":"m 436 -11 q 208 23 275 -11 q 122 152 142 57 q 103 478 103 247 q 122 803 103 708 q 208 933 142 899 q 436 967 275 967 q 663 933 597 967 q 749 803 729 899 q 768 478 768 708 q 749 152 768 247 q 663 23 729 57 q 436 -11 597 -11 m 436 49 q 620 70 571 49 q 686 175 669 92 q 703 478 703 258 q 686 781 703 697 q 620 885 669 864 q 436 907 571 907 q 251 885 301 907 q 185 781 201 864 q 168 478 168 697 q 185 175 168 258 q 251 70 201 92 q 436 49 301 49 m 650 1194 q 634 1086 650 1115 q 567 1057 618 1057 q 504 1066 535 1057 q 424 1093 474 1075 q 357 1117 383 1108 q 306 1125 331 1125 q 272 1108 279 1125 q 264 1042 264 1090 l 219 1042 q 235 1150 219 1121 q 303 1179 251 1179 q 369 1169 336 1179 q 449 1142 403 1160 q 513 1119 486 1126 q 565 1111 540 1111 q 599 1128 592 1111 q 606 1194 606 1146 l 650 1194 z "},"Œ":{"ha":1272,"x_min":103,"x_max":1206,"o":"m 436 0 q 208 33 275 0 q 122 159 142 67 q 103 478 103 251 q 122 797 103 704 q 208 922 142 889 q 436 956 275 956 l 1206 956 l 1206 896 l 774 896 q 682 901 721 896 q 750 778 733 863 q 768 513 767 693 l 1150 513 l 1150 453 l 768 453 q 750 179 767 267 q 682 53 733 92 q 774 60 713 60 l 1206 60 l 1206 0 l 436 0 m 436 60 q 620 81 571 60 q 686 183 669 101 q 703 478 703 264 q 686 772 703 690 q 619 874 669 853 q 436 896 569 896 q 251 875 301 896 q 185 773 201 854 q 168 478 168 692 q 185 183 168 264 q 251 81 201 101 q 436 60 301 60 z "},"P":{"ha":783,"x_min":133,"x_max":714,"o":"m 133 956 l 474 956 q 634 917 582 956 q 700 820 686 879 q 714 665 714 761 q 699 510 714 571 q 632 412 685 450 q 474 374 579 374 l 197 374 l 197 0 l 133 0 l 133 956 m 464 433 q 587 460 547 433 q 638 533 626 486 q 649 665 649 581 q 638 797 649 750 q 587 869 626 843 q 464 896 547 896 l 197 896 l 197 433 l 464 433 z "},"Þ":{"ha":783,"x_min":133,"x_max":714,"o":"m 133 956 l 197 956 l 197 778 l 474 778 q 634 740 582 778 q 700 642 686 701 q 714 486 714 582 q 699 333 714 393 q 632 234 685 272 q 474 196 579 196 l 197 196 l 197 0 l 133 0 l 133 956 m 464 256 q 587 282 547 256 q 638 355 626 308 q 649 486 649 401 q 638 619 649 572 q 587 692 626 665 q 464 718 547 718 l 197 718 l 197 256 l 464 256 z "},"Q":{"ha":871,"x_min":103,"x_max":785,"o":"m 785 -157 l 785 -160 l 711 -160 l 604 1 q 436 -11 547 -11 q 208 23 275 -11 q 122 152 142 57 q 103 478 103 247 q 122 803 103 708 q 208 933 142 899 q 436 967 275 967 q 663 933 597 967 q 749 803 729 899 q 768 478 768 708 q 761 238 768 322 q 732 101 754 153 q 664 24 710 49 l 785 -157 m 436 49 q 569 54 535 49 l 404 303 l 476 303 l 629 75 q 676 139 661 94 q 697 260 692 183 q 703 478 703 338 q 686 781 703 697 q 620 885 669 864 q 436 907 571 907 q 251 885 301 907 q 185 781 201 864 q 168 478 168 697 q 185 175 168 258 q 251 70 201 92 q 436 49 301 49 z "},"R":{"ha":824,"x_min":133,"x_max":736,"o":"m 665 0 l 521 403 q 478 401 506 401 l 197 401 l 197 0 l 133 0 l 133 956 l 492 956 q 646 919 596 956 q 710 825 696 882 q 724 679 724 768 q 715 560 724 610 q 676 471 706 510 q 585 415 646 432 l 736 0 l 665 0 m 471 461 q 594 487 554 461 q 647 557 635 513 q 658 679 658 601 q 648 801 658 757 q 600 870 638 844 q 483 896 563 896 l 197 896 l 197 461 l 471 461 z "},"Ŕ":{"ha":824,"x_min":133,"x_max":736,"o":"m 665 0 l 521 403 q 478 401 506 401 l 197 401 l 197 0 l 133 0 l 133 956 l 492 956 q 646 919 596 956 q 710 825 696 882 q 724 679 724 768 q 715 560 724 610 q 676 471 706 510 q 585 415 646 432 l 736 0 l 665 0 m 471 461 q 594 487 554 461 q 647 557 635 513 q 658 679 658 601 q 648 801 658 757 q 600 870 638 844 q 483 896 563 896 l 197 896 l 197 461 l 471 461 m 382 1040 l 382 1047 l 496 1233 l 569 1233 l 569 1226 l 428 1040 l 382 1040 z "},"Ř":{"ha":824,"x_min":133,"x_max":736,"o":"m 665 0 l 521 403 q 478 401 506 401 l 197 401 l 197 0 l 133 0 l 133 956 l 492 956 q 646 919 596 956 q 710 825 696 882 q 724 679 724 768 q 715 560 724 610 q 676 471 706 510 q 585 415 646 432 l 736 0 l 665 0 m 471 461 q 594 487 554 461 q 647 557 635 513 q 658 679 658 601 q 648 801 658 757 q 600 870 638 844 q 483 896 563 896 l 197 896 l 197 461 l 471 461 m 375 1042 l 244 1226 l 244 1233 l 292 1233 l 413 1088 l 533 1233 l 581 1233 l 581 1226 l 450 1042 l 375 1042 z "},"Ŗ":{"ha":824,"x_min":133,"x_max":736,"o":"m 665 0 l 521 403 q 478 401 506 401 l 197 401 l 197 0 l 133 0 l 133 956 l 492 956 q 646 919 596 956 q 710 825 696 882 q 724 679 724 768 q 715 560 724 610 q 676 471 706 510 q 585 415 646 432 l 736 0 l 665 0 m 471 461 q 594 487 554 461 q 647 557 635 513 q 658 679 658 601 q 648 801 658 757 q 600 870 638 844 q 483 896 563 896 l 197 896 l 197 461 l 471 461 m 356 -293 q 412 -277 400 -293 q 424 -208 424 -261 l 424 -185 l 392 -185 l 392 -86 l 469 -86 l 469 -192 q 460 -276 469 -249 q 428 -316 451 -304 q 356 -328 404 -328 l 356 -293 z "},"Ȑ":{"ha":824,"x_min":133,"x_max":736,"o":"m 665 0 l 521 403 q 478 401 506 401 l 197 401 l 197 0 l 133 0 l 133 956 l 492 956 q 646 919 596 956 q 710 825 696 882 q 724 679 724 768 q 715 560 724 610 q 676 471 706 510 q 585 415 646 432 l 736 0 l 665 0 m 471 461 q 594 487 554 461 q 647 557 635 513 q 658 679 658 601 q 648 801 658 757 q 600 870 638 844 q 483 896 563 896 l 197 896 l 197 461 l 471 461 m 331 1044 l 288 1044 l 149 1219 l 149 1226 l 219 1226 l 331 1051 l 331 1044 m 558 1044 l 514 1044 l 375 1219 l 375 1226 l 446 1226 l 558 1051 l 558 1044 z "},"Ṛ":{"ha":824,"x_min":133,"x_max":736,"o":"m 665 0 l 521 403 q 478 401 506 401 l 197 401 l 197 0 l 133 0 l 133 956 l 492 956 q 646 919 596 956 q 710 825 696 882 q 724 679 724 768 q 715 560 724 610 q 676 471 706 510 q 585 415 646 432 l 736 0 l 665 0 m 471 461 q 594 487 554 461 q 647 557 635 513 q 658 679 658 601 q 648 801 658 757 q 600 870 638 844 q 483 896 563 896 l 197 896 l 197 461 l 471 461 m 372 -187 l 372 -86 l 451 -86 l 451 -187 l 372 -187 z "},"Ȓ":{"ha":824,"x_min":133,"x_max":736,"o":"m 665 0 l 521 403 q 478 401 506 401 l 197 401 l 197 0 l 133 0 l 133 956 l 492 956 q 646 919 596 956 q 710 825 696 882 q 724 679 724 768 q 715 560 724 610 q 676 471 706 510 q 585 415 646 432 l 736 0 l 665 0 m 471 461 q 594 487 554 461 q 647 557 635 513 q 658 679 658 601 q 648 801 658 757 q 600 870 638 844 q 483 896 563 896 l 197 896 l 197 461 l 471 461 m 247 1046 q 256 1156 247 1117 q 300 1218 264 1194 q 413 1242 336 1242 q 524 1218 489 1242 q 568 1156 560 1194 q 576 1046 576 1118 l 526 1046 q 521 1135 526 1106 q 491 1180 515 1164 q 413 1196 467 1196 q 334 1180 358 1196 q 303 1134 310 1164 q 297 1046 297 1104 l 247 1046 z "},"S":{"ha":756,"x_min":88,"x_max":668,"o":"m 390 -11 q 247 -6 325 -11 q 111 6 168 -1 l 111 67 q 247 54 172 60 q 372 49 322 49 q 481 56 440 49 q 553 83 521 63 q 593 145 583 103 q 603 256 603 188 q 595 380 603 346 q 560 428 588 414 q 457 451 532 442 l 243 478 q 138 515 171 486 q 96 588 104 544 q 88 711 88 631 q 117 867 88 811 q 210 944 147 922 q 381 967 274 967 q 519 962 451 967 q 625 947 588 957 l 625 890 q 510 902 576 897 q 390 907 444 907 q 269 897 315 907 q 196 864 222 886 q 161 805 169 840 q 153 710 153 769 q 160 608 153 640 q 192 560 168 575 q 267 539 215 546 l 469 514 q 563 498 529 507 q 619 469 596 489 q 656 413 643 450 q 666 356 664 390 q 668 264 668 322 q 638 91 668 150 q 550 10 608 32 q 390 -11 492 -11 z "},"Ś":{"ha":756,"x_min":88,"x_max":668,"o":"m 390 -11 q 247 -6 325 -11 q 111 6 168 -1 l 111 67 q 247 54 172 60 q 372 49 322 49 q 481 56 440 49 q 553 83 521 63 q 593 145 583 103 q 603 256 603 188 q 595 380 603 346 q 560 428 588 414 q 457 451 532 442 l 243 478 q 138 515 171 486 q 96 588 104 544 q 88 711 88 631 q 117 867 88 811 q 210 944 147 922 q 381 967 274 967 q 519 962 451 967 q 625 947 588 957 l 625 890 q 510 902 576 897 q 390 907 444 907 q 269 897 315 907 q 196 864 222 886 q 161 805 169 840 q 153 710 153 769 q 160 608 153 640 q 192 560 168 575 q 267 539 215 546 l 469 514 q 563 498 529 507 q 619 469 596 489 q 656 413 643 450 q 666 356 664 390 q 668 264 668 322 q 638 91 668 150 q 550 10 608 32 q 390 -11 492 -11 m 347 1040 l 347 1047 l 461 1233 l 535 1233 l 535 1226 l 393 1040 l 347 1040 z "},"Ꞌ":{"ha":146,"x_min":40,"x_max":106,"o":"m 40 404 l 40 956 l 106 956 l 106 710 l 82 404 l 40 404 z "},"Š":{"ha":756,"x_min":88,"x_max":668,"o":"m 390 -11 q 247 -6 325 -11 q 111 6 168 -1 l 111 67 q 247 54 172 60 q 372 49 322 49 q 481 56 440 49 q 553 83 521 63 q 593 145 583 103 q 603 256 603 188 q 595 380 603 346 q 560 428 588 414 q 457 451 532 442 l 243 478 q 138 515 171 486 q 96 588 104 544 q 88 711 88 631 q 117 867 88 811 q 210 944 147 922 q 381 967 274 967 q 519 962 451 967 q 625 947 588 957 l 625 890 q 510 902 576 897 q 390 907 444 907 q 269 897 315 907 q 196 864 222 886 q 161 805 169 840 q 153 710 153 769 q 160 608 153 640 q 192 560 168 575 q 267 539 215 546 l 469 514 q 563 498 529 507 q 619 469 596 489 q 656 413 643 450 q 666 356 664 390 q 668 264 668 322 q 638 91 668 150 q 550 10 608 32 q 390 -11 492 -11 m 350 1042 l 219 1226 l 219 1233 l 267 1233 l 388 1088 l 508 1233 l 556 1233 l 556 1226 l 425 1042 l 350 1042 z "},"Ş":{"ha":756,"x_min":88,"x_max":668,"o":"m 668 264 q 640 93 668 153 q 554 12 611 33 q 400 -11 497 -10 l 343 -264 l 275 -264 l 275 -257 l 350 -11 q 111 6 201 -6 l 111 67 q 247 54 172 60 q 372 49 322 49 q 481 56 440 49 q 553 83 521 63 q 593 145 583 103 q 603 256 603 188 q 595 380 603 346 q 560 428 588 414 q 457 451 532 442 l 243 478 q 138 515 171 486 q 96 588 104 544 q 88 711 88 631 q 117 867 88 811 q 210 944 147 922 q 381 967 274 967 q 519 962 451 967 q 625 947 588 957 l 625 890 q 510 902 576 897 q 390 907 444 907 q 269 897 315 907 q 196 864 222 886 q 161 805 169 840 q 153 710 153 769 q 160 608 153 640 q 192 560 168 575 q 267 539 215 546 l 469 514 q 563 498 529 507 q 619 469 596 489 q 656 413 643 450 q 666 356 664 390 q 668 264 668 322 z "},"Ŝ":{"ha":756,"x_min":88,"x_max":668,"o":"m 390 -11 q 247 -6 325 -11 q 111 6 168 -1 l 111 67 q 247 54 172 60 q 372 49 322 49 q 481 56 440 49 q 553 83 521 63 q 593 145 583 103 q 603 256 603 188 q 595 380 603 346 q 560 428 588 414 q 457 451 532 442 l 243 478 q 138 515 171 486 q 96 588 104 544 q 88 711 88 631 q 117 867 88 811 q 210 944 147 922 q 381 967 274 967 q 519 962 451 967 q 625 947 588 957 l 625 890 q 510 902 576 897 q 390 907 444 907 q 269 897 315 907 q 196 864 222 886 q 161 805 169 840 q 153 710 153 769 q 160 608 153 640 q 192 560 168 575 q 267 539 215 546 l 469 514 q 563 498 529 507 q 619 469 596 489 q 656 413 643 450 q 666 356 664 390 q 668 264 668 322 q 638 91 668 150 q 550 10 608 32 q 390 -11 492 -11 m 211 1042 l 211 1049 l 340 1233 l 415 1233 l 546 1049 l 546 1042 l 499 1042 l 378 1188 l 257 1042 l 211 1042 z "},"Ș":{"ha":756,"x_min":88,"x_max":668,"o":"m 390 -11 q 247 -6 325 -11 q 111 6 168 -1 l 111 67 q 247 54 172 60 q 372 49 322 49 q 481 56 440 49 q 553 83 521 63 q 593 145 583 103 q 603 256 603 188 q 595 380 603 346 q 560 428 588 414 q 457 451 532 442 l 243 478 q 138 515 171 486 q 96 588 104 544 q 88 711 88 631 q 117 867 88 811 q 210 944 147 922 q 381 967 274 967 q 519 962 451 967 q 625 947 588 957 l 625 890 q 510 902 576 897 q 390 907 444 907 q 269 897 315 907 q 196 864 222 886 q 161 805 169 840 q 153 710 153 769 q 160 608 153 640 q 192 560 168 575 q 267 539 215 546 l 469 514 q 563 498 529 507 q 619 469 596 489 q 656 413 643 450 q 666 356 664 390 q 668 264 668 322 q 638 91 668 150 q 550 10 608 32 q 390 -11 492 -11 m 321 -293 q 377 -277 365 -293 q 389 -208 389 -261 l 389 -185 l 357 -185 l 357 -86 l 435 -86 l 435 -192 q 426 -276 435 -249 q 393 -316 417 -304 q 321 -328 369 -328 l 321 -293 z "},"Ṣ":{"ha":756,"x_min":88,"x_max":668,"o":"m 390 -11 q 247 -6 325 -11 q 111 6 168 -1 l 111 67 q 247 54 172 60 q 372 49 322 49 q 481 56 440 49 q 553 83 521 63 q 593 145 583 103 q 603 256 603 188 q 595 380 603 346 q 560 428 588 414 q 457 451 532 442 l 243 478 q 138 515 171 486 q 96 588 104 544 q 88 711 88 631 q 117 867 88 811 q 210 944 147 922 q 381 967 274 967 q 519 962 451 967 q 625 947 588 957 l 625 890 q 510 902 576 897 q 390 907 444 907 q 269 897 315 907 q 196 864 222 886 q 161 805 169 840 q 153 710 153 769 q 160 608 153 640 q 192 560 168 575 q 267 539 215 546 l 469 514 q 563 498 529 507 q 619 469 596 489 q 656 413 643 450 q 666 356 664 390 q 668 264 668 322 q 638 91 668 150 q 550 10 608 32 q 390 -11 492 -11 m 338 -187 l 338 -86 l 417 -86 l 417 -187 l 338 -187 z "},"ẞ":{"ha":885,"x_min":122,"x_max":789,"o":"m 788 251 q 726 53 789 117 q 511 -11 664 -11 q 408 -6 464 -11 q 310 10 351 0 l 310 65 q 513 49 426 49 q 635 67 590 49 q 702 128 681 85 q 724 250 724 171 q 685 407 724 360 q 557 454 646 454 l 413 454 l 413 500 l 657 868 q 535 898 594 889 q 408 907 476 907 q 259 880 303 907 q 201 772 215 853 q 186 499 186 690 l 186 0 l 122 0 l 122 499 q 143 797 122 700 q 221 930 164 893 q 397 967 278 967 q 576 950 492 967 q 724 908 661 933 l 724 860 l 493 510 l 553 510 q 731 448 674 510 q 788 251 789 386 z "},"Ə":{"ha":853,"x_min":103,"x_max":750,"o":"m 410 967 q 633 933 564 967 q 726 801 701 900 q 750 478 750 701 q 731 152 750 247 q 648 23 713 57 q 426 -11 583 -11 q 205 23 269 -11 q 122 151 140 57 q 103 478 103 246 l 103 513 l 685 513 q 663 779 683 701 q 585 882 643 857 q 390 907 528 907 q 289 901 344 907 q 193 885 233 894 l 193 943 q 295 960 235 954 q 410 967 356 967 m 426 49 q 602 69 554 49 q 667 168 650 89 q 685 453 683 247 l 168 453 q 186 168 169 247 q 251 69 203 89 q 426 49 299 49 z "},"T":{"ha":696,"x_min":42,"x_max":654,"o":"m 315 0 l 315 896 l 42 896 l 42 956 l 654 956 l 654 896 l 381 896 l 381 0 l 315 0 z "},"Ŧ":{"ha":696,"x_min":42,"x_max":654,"o":"m 654 896 l 381 896 l 381 519 l 613 519 l 613 464 l 381 464 l 381 0 l 315 0 l 315 464 l 82 464 l 82 519 l 315 519 l 315 896 l 42 896 l 42 956 l 654 956 l 654 896 z "},"Ť":{"ha":696,"x_min":42,"x_max":654,"o":"m 315 0 l 315 896 l 42 896 l 42 956 l 654 956 l 654 896 l 381 896 l 381 0 l 315 0 m 310 1042 l 179 1226 l 179 1233 l 226 1233 l 347 1088 l 468 1233 l 515 1233 l 515 1226 l 385 1042 l 310 1042 z "},"Ţ":{"ha":696,"x_min":42,"x_max":654,"o":"m 42 956 l 654 956 l 654 896 l 381 896 l 381 0 l 371 0 l 313 -264 l 244 -264 l 244 -257 l 324 0 l 315 0 l 315 896 l 42 896 l 42 956 z "},"Ț":{"ha":696,"x_min":42,"x_max":654,"o":"m 315 0 l 315 896 l 42 896 l 42 956 l 654 956 l 654 896 l 381 896 l 381 0 l 315 0 m 290 -293 q 347 -277 335 -293 q 358 -208 358 -261 l 358 -185 l 326 -185 l 326 -86 l 404 -86 l 404 -192 q 395 -276 404 -249 q 363 -316 386 -304 q 290 -328 339 -328 l 290 -293 z "},"Ṭ":{"ha":696,"x_min":42,"x_max":654,"o":"m 315 0 l 315 896 l 42 896 l 42 956 l 654 956 l 654 896 l 381 896 l 381 0 l 315 0 m 307 -187 l 307 -86 l 386 -86 l 386 -187 l 307 -187 z "},"U":{"ha":863,"x_min":122,"x_max":740,"o":"m 740 956 l 740 410 q 722 142 740 226 q 639 24 703 58 q 432 -11 575 -11 q 225 24 289 -11 q 142 143 161 60 q 122 410 122 226 l 122 956 l 186 956 l 186 367 q 201 163 186 225 q 265 74 215 100 q 432 49 315 49 q 597 74 547 49 q 661 162 647 100 q 675 367 675 224 l 675 956 l 740 956 z "},"Ú":{"ha":863,"x_min":122,"x_max":740,"o":"m 740 956 l 740 410 q 722 142 740 226 q 639 24 703 58 q 432 -11 575 -11 q 225 24 289 -11 q 142 143 161 60 q 122 410 122 226 l 122 956 l 186 956 l 186 367 q 201 163 186 225 q 265 74 215 100 q 432 49 315 49 q 597 74 547 49 q 661 162 647 100 q 675 367 675 224 l 675 956 l 740 956 m 394 1042 l 394 1049 l 508 1235 l 582 1235 l 582 1228 l 440 1042 l 394 1042 z "},"Ŭ":{"ha":863,"x_min":122,"x_max":740,"o":"m 740 956 l 740 410 q 722 142 740 226 q 639 24 703 58 q 432 -11 575 -11 q 225 24 289 -11 q 142 143 161 60 q 122 410 122 226 l 122 956 l 186 956 l 186 367 q 201 163 186 225 q 265 74 215 100 q 432 49 315 49 q 597 74 547 49 q 661 162 647 100 q 675 367 675 224 l 675 956 l 740 956 m 596 1233 q 588 1124 596 1163 q 543 1061 579 1085 q 431 1038 507 1038 q 319 1061 354 1038 q 275 1123 283 1085 q 267 1233 267 1161 l 317 1233 q 322 1144 317 1174 q 352 1099 328 1115 q 431 1083 376 1083 q 509 1099 485 1083 q 540 1145 533 1115 q 546 1233 546 1175 l 596 1233 z "},"Ǔ":{"ha":863,"x_min":122,"x_max":740,"o":"m 740 956 l 740 410 q 722 142 740 226 q 639 24 703 58 q 432 -11 575 -11 q 225 24 289 -11 q 142 143 161 60 q 122 410 122 226 l 122 956 l 186 956 l 186 367 q 201 163 186 225 q 265 74 215 100 q 432 49 315 49 q 597 74 547 49 q 661 162 647 100 q 675 367 675 224 l 675 956 l 740 956 m 394 1042 l 264 1226 l 264 1233 l 311 1233 l 432 1088 l 553 1233 l 600 1233 l 600 1226 l 469 1042 l 394 1042 z "},"Û":{"ha":863,"x_min":122,"x_max":740,"o":"m 740 956 l 740 410 q 722 142 740 226 q 639 24 703 58 q 432 -11 575 -11 q 225 24 289 -11 q 142 143 161 60 q 122 410 122 226 l 122 956 l 186 956 l 186 367 q 201 163 186 225 q 265 74 215 100 q 432 49 315 49 q 597 74 547 49 q 661 162 647 100 q 675 367 675 224 l 675 956 l 740 956 m 265 1042 l 265 1049 l 394 1233 l 469 1233 l 600 1049 l 600 1042 l 553 1042 l 432 1188 l 311 1042 l 265 1042 z "},"Ȕ":{"ha":863,"x_min":122,"x_max":740,"o":"m 740 956 l 740 410 q 722 142 740 226 q 639 24 703 58 q 432 -11 575 -11 q 225 24 289 -11 q 142 143 161 60 q 122 410 122 226 l 122 956 l 186 956 l 186 367 q 201 163 186 225 q 265 74 215 100 q 432 49 315 49 q 597 74 547 49 q 661 162 647 100 q 675 367 675 224 l 675 956 l 740 956 m 350 1044 l 307 1044 l 168 1219 l 168 1226 l 239 1226 l 350 1051 l 350 1044 m 578 1044 l 533 1044 l 394 1219 l 394 1226 l 465 1226 l 578 1051 l 578 1044 z "},"Ü":{"ha":863,"x_min":122,"x_max":740,"o":"m 740 956 l 740 410 q 722 142 740 226 q 639 24 703 58 q 432 -11 575 -11 q 225 24 289 -11 q 142 143 161 60 q 122 410 122 226 l 122 956 l 186 956 l 186 367 q 201 163 186 225 q 265 74 215 100 q 432 49 315 49 q 597 74 547 49 q 661 162 647 100 q 675 367 675 224 l 675 956 l 740 956 m 272 1071 l 272 1163 l 342 1163 l 342 1071 l 272 1071 m 519 1071 l 519 1163 l 589 1163 l 589 1071 l 519 1071 z "},"Ǘ":{"ha":863,"x_min":122,"x_max":740,"o":"m 740 956 l 740 410 q 722 142 740 226 q 639 24 703 58 q 432 -11 575 -11 q 225 24 289 -11 q 142 143 161 60 q 122 410 122 226 l 122 956 l 186 956 l 186 367 q 201 163 186 225 q 265 74 215 100 q 432 49 315 49 q 597 74 547 49 q 661 162 647 100 q 675 367 675 224 l 675 956 l 740 956 m 274 1125 l 274 1217 l 343 1217 l 343 1125 l 274 1125 m 521 1125 l 521 1217 l 590 1217 l 590 1125 l 521 1125 m 404 1218 l 404 1225 l 518 1411 l 592 1411 l 592 1404 l 450 1218 l 404 1218 z "},"Ǚ":{"ha":863,"x_min":122,"x_max":740,"o":"m 740 956 l 740 410 q 722 142 740 226 q 639 24 703 58 q 432 -11 575 -11 q 225 24 289 -11 q 142 143 161 60 q 122 410 122 226 l 122 956 l 186 956 l 186 367 q 201 163 186 225 q 265 74 215 100 q 432 49 315 49 q 597 74 547 49 q 661 162 647 100 q 675 367 675 224 l 675 956 l 740 956 m 274 1125 l 274 1217 l 343 1217 l 343 1125 l 274 1125 m 521 1125 l 521 1217 l 590 1217 l 590 1125 l 521 1125 m 397 1219 l 267 1404 l 267 1411 l 314 1411 l 435 1265 l 556 1411 l 603 1411 l 603 1404 l 472 1219 l 397 1219 z "},"Ǜ":{"ha":863,"x_min":122,"x_max":740,"o":"m 740 956 l 740 410 q 722 142 740 226 q 639 24 703 58 q 432 -11 575 -11 q 225 24 289 -11 q 142 143 161 60 q 122 410 122 226 l 122 956 l 186 956 l 186 367 q 201 163 186 225 q 265 74 215 100 q 432 49 315 49 q 597 74 547 49 q 661 162 647 100 q 675 367 675 224 l 675 956 l 740 956 m 274 1125 l 274 1217 l 343 1217 l 343 1125 l 274 1125 m 521 1125 l 521 1217 l 590 1217 l 590 1125 l 521 1125 m 424 1218 l 283 1404 l 283 1411 l 357 1411 l 471 1225 l 471 1218 l 424 1218 z "},"Ǖ":{"ha":863,"x_min":122,"x_max":740,"o":"m 740 956 l 740 410 q 722 142 740 226 q 639 24 703 58 q 432 -11 575 -11 q 225 24 289 -11 q 142 143 161 60 q 122 410 122 226 l 122 956 l 186 956 l 186 367 q 201 163 186 225 q 265 74 215 100 q 432 49 315 49 q 597 74 547 49 q 661 162 647 100 q 675 367 675 224 l 675 956 l 740 956 m 274 1125 l 274 1217 l 343 1217 l 343 1125 l 274 1125 m 521 1125 l 521 1217 l 590 1217 l 590 1125 l 521 1125 m 289 1349 l 289 1410 l 579 1410 l 579 1349 l 289 1349 z "},"Ụ":{"ha":863,"x_min":122,"x_max":740,"o":"m 740 956 l 740 410 q 722 142 740 226 q 639 24 703 58 q 432 -11 575 -11 q 225 24 289 -11 q 142 143 161 60 q 122 410 122 226 l 122 956 l 186 956 l 186 367 q 201 163 186 225 q 265 74 215 100 q 432 49 315 49 q 597 74 547 49 q 661 162 647 100 q 675 367 675 224 l 675 956 l 740 956 m 392 -187 l 392 -86 l 471 -86 l 471 -187 l 392 -187 z "},"Ù":{"ha":863,"x_min":122,"x_max":740,"o":"m 740 956 l 740 410 q 722 142 740 226 q 639 24 703 58 q 432 -11 575 -11 q 225 24 289 -11 q 142 143 161 60 q 122 410 122 226 l 122 956 l 186 956 l 186 367 q 201 163 186 225 q 265 74 215 100 q 432 49 315 49 q 597 74 547 49 q 661 162 647 100 q 675 367 675 224 l 675 956 l 740 956 m 439 1042 l 299 1228 l 299 1235 l 372 1235 l 486 1049 l 486 1042 l 439 1042 z "},"Ủ":{"ha":863,"x_min":122,"x_max":740,"o":"m 740 956 l 740 410 q 722 142 740 226 q 639 24 703 58 q 432 -11 575 -11 q 225 24 289 -11 q 142 143 161 60 q 122 410 122 226 l 122 956 l 186 956 l 186 367 q 201 163 186 225 q 265 74 215 100 q 432 49 315 49 q 597 74 547 49 q 661 162 647 100 q 675 367 675 224 l 675 956 l 740 956 m 372 1031 q 384 1075 372 1063 q 428 1097 396 1088 l 457 1106 q 516 1129 503 1118 q 529 1168 529 1140 q 519 1205 529 1193 q 485 1219 508 1217 q 411 1222 463 1222 q 282 1215 361 1222 l 282 1258 q 421 1268 354 1268 q 546 1249 511 1268 q 581 1174 581 1229 q 567 1112 581 1132 q 508 1078 554 1092 l 476 1068 q 435 1054 446 1060 q 422 1042 425 1049 q 419 1017 419 1035 l 372 1017 l 372 1031 z "},"Ư":{"ha":863,"x_min":122,"x_max":881,"o":"m 881 1092 l 881 1049 q 871 965 881 993 q 835 924 861 936 q 758 913 810 913 l 740 913 l 740 410 q 722 142 740 226 q 639 24 703 58 q 432 -11 575 -11 q 225 24 289 -11 q 142 143 161 60 q 122 410 122 226 l 122 956 l 186 956 l 186 367 q 201 163 186 225 q 265 74 215 100 q 432 49 315 49 q 597 74 547 49 q 661 162 647 100 q 675 367 675 224 l 675 956 l 758 956 q 805 963 790 956 q 824 987 819 971 q 828 1038 828 1003 l 828 1092 l 881 1092 z "},"Ứ":{"ha":863,"x_min":122,"x_max":881,"o":"m 881 1092 l 881 1049 q 871 965 881 993 q 835 924 861 936 q 758 913 810 913 l 740 913 l 740 410 q 722 142 740 226 q 639 24 703 58 q 432 -11 575 -11 q 225 24 289 -11 q 142 143 161 60 q 122 410 122 226 l 122 956 l 186 956 l 186 367 q 201 163 186 225 q 265 74 215 100 q 432 49 315 49 q 597 74 547 49 q 661 162 647 100 q 675 367 675 224 l 675 956 l 758 956 q 805 963 790 956 q 824 987 819 971 q 828 1038 828 1003 l 828 1092 l 881 1092 m 401 1040 l 401 1047 l 515 1233 l 589 1233 l 589 1226 l 447 1040 l 401 1040 z "},"Ự":{"ha":863,"x_min":122,"x_max":881,"o":"m 881 1092 l 881 1049 q 871 965 881 993 q 835 924 861 936 q 758 913 810 913 l 740 913 l 740 410 q 722 142 740 226 q 639 24 703 58 q 432 -11 575 -11 q 225 24 289 -11 q 142 143 161 60 q 122 410 122 226 l 122 956 l 186 956 l 186 367 q 201 163 186 225 q 265 74 215 100 q 432 49 315 49 q 597 74 547 49 q 661 162 647 100 q 675 367 675 224 l 675 956 l 758 956 q 805 963 790 956 q 824 987 819 971 q 828 1038 828 1003 l 828 1092 l 881 1092 m 392 -187 l 392 -86 l 471 -86 l 471 -187 l 392 -187 z "},"Ừ":{"ha":863,"x_min":122,"x_max":881,"o":"m 881 1092 l 881 1049 q 871 965 881 993 q 835 924 861 936 q 758 913 810 913 l 740 913 l 740 410 q 722 142 740 226 q 639 24 703 58 q 432 -11 575 -11 q 225 24 289 -11 q 142 143 161 60 q 122 410 122 226 l 122 956 l 186 956 l 186 367 q 201 163 186 225 q 265 74 215 100 q 432 49 315 49 q 597 74 547 49 q 661 162 647 100 q 675 367 675 224 l 675 956 l 758 956 q 805 963 790 956 q 824 987 819 971 q 828 1038 828 1003 l 828 1092 l 881 1092 m 421 1040 l 281 1226 l 281 1233 l 354 1233 l 468 1047 l 468 1040 l 421 1040 z "},"Ử":{"ha":863,"x_min":122,"x_max":881,"o":"m 881 1092 l 881 1049 q 871 965 881 993 q 835 924 861 936 q 758 913 810 913 l 740 913 l 740 410 q 722 142 740 226 q 639 24 703 58 q 432 -11 575 -11 q 225 24 289 -11 q 142 143 161 60 q 122 410 122 226 l 122 956 l 186 956 l 186 367 q 201 163 186 225 q 265 74 215 100 q 432 49 315 49 q 597 74 547 49 q 661 162 647 100 q 675 367 675 224 l 675 956 l 758 956 q 805 963 790 956 q 824 987 819 971 q 828 1038 828 1003 l 828 1092 l 881 1092 m 372 1031 q 384 1075 372 1063 q 428 1097 396 1088 l 457 1106 q 516 1129 503 1118 q 529 1168 529 1140 q 519 1205 529 1193 q 485 1219 508 1217 q 411 1222 463 1222 q 282 1215 361 1222 l 282 1258 q 421 1268 354 1268 q 546 1249 511 1268 q 581 1174 581 1229 q 567 1112 581 1132 q 508 1078 554 1092 l 476 1068 q 435 1054 446 1060 q 422 1042 425 1049 q 419 1017 419 1035 l 372 1017 l 372 1031 z "},"Ữ":{"ha":863,"x_min":122,"x_max":881,"o":"m 881 1092 l 881 1049 q 871 965 881 993 q 835 924 861 936 q 758 913 810 913 l 740 913 l 740 410 q 722 142 740 226 q 639 24 703 58 q 432 -11 575 -11 q 225 24 289 -11 q 142 143 161 60 q 122 410 122 226 l 122 956 l 186 956 l 186 367 q 201 163 186 225 q 265 74 215 100 q 432 49 315 49 q 597 74 547 49 q 661 162 647 100 q 675 367 675 224 l 675 956 l 758 956 q 805 963 790 956 q 824 987 819 971 q 828 1038 828 1003 l 828 1092 l 881 1092 m 646 1233 q 630 1125 646 1154 q 563 1096 614 1096 q 500 1105 531 1096 q 419 1132 469 1114 q 353 1156 379 1147 q 301 1164 326 1164 q 267 1147 275 1164 q 260 1081 260 1129 l 215 1081 q 231 1189 215 1160 q 299 1218 247 1218 q 365 1208 332 1218 q 444 1181 399 1199 q 509 1158 482 1165 q 561 1150 536 1150 q 594 1167 588 1150 q 601 1233 601 1185 l 646 1233 z "},"Ű":{"ha":863,"x_min":122,"x_max":740,"o":"m 740 956 l 740 410 q 722 142 740 226 q 639 24 703 58 q 432 -11 575 -11 q 225 24 289 -11 q 142 143 161 60 q 122 410 122 226 l 122 956 l 186 956 l 186 367 q 201 163 186 225 q 265 74 215 100 q 432 49 315 49 q 597 74 547 49 q 661 162 647 100 q 675 367 675 224 l 675 956 l 740 956 m 296 1044 l 296 1051 l 408 1226 l 479 1226 l 479 1219 l 340 1044 l 296 1044 m 524 1044 l 524 1051 l 635 1226 l 706 1226 l 706 1219 l 567 1044 l 524 1044 z "},"Ȗ":{"ha":863,"x_min":122,"x_max":740,"o":"m 740 956 l 740 410 q 722 142 740 226 q 639 24 703 58 q 432 -11 575 -11 q 225 24 289 -11 q 142 143 161 60 q 122 410 122 226 l 122 956 l 186 956 l 186 367 q 201 163 186 225 q 265 74 215 100 q 432 49 315 49 q 597 74 547 49 q 661 162 647 100 q 675 367 675 224 l 675 956 l 740 956 m 267 1046 q 275 1156 267 1117 q 319 1218 283 1194 q 432 1242 356 1242 q 544 1218 508 1242 q 588 1156 579 1194 q 596 1046 596 1118 l 546 1046 q 540 1135 546 1106 q 510 1180 535 1164 q 432 1196 486 1196 q 353 1180 378 1196 q 323 1134 329 1164 q 317 1046 317 1104 l 267 1046 z "},"Ū":{"ha":863,"x_min":122,"x_max":740,"o":"m 740 956 l 740 410 q 722 142 740 226 q 639 24 703 58 q 432 -11 575 -11 q 225 24 289 -11 q 142 143 161 60 q 122 410 122 226 l 122 956 l 186 956 l 186 367 q 201 163 186 225 q 265 74 215 100 q 432 49 315 49 q 597 74 547 49 q 661 162 647 100 q 675 367 675 224 l 675 956 l 740 956 m 286 1171 l 286 1232 l 576 1232 l 576 1171 l 286 1171 z "},"Ų":{"ha":863,"x_min":122,"x_max":740,"o":"m 740 956 l 740 410 q 733 217 740 289 q 706 99 726 146 q 644 26 686 51 q 562 -54 599 -1 q 525 -158 525 -107 q 590 -221 525 -221 l 613 -219 l 613 -271 q 578 -272 599 -272 q 494 -244 521 -272 q 467 -171 467 -217 q 490 -87 467 -132 q 554 -1 514 -42 q 432 -11 506 -11 q 225 24 289 -11 q 142 143 161 60 q 122 410 122 226 l 122 956 l 186 956 l 186 367 q 201 163 186 225 q 265 74 215 100 q 432 49 315 49 q 597 74 547 49 q 661 162 647 100 q 675 367 675 224 l 675 956 l 740 956 z "},"Ů":{"ha":863,"x_min":122,"x_max":740,"o":"m 740 956 l 740 410 q 722 142 740 226 q 639 24 703 58 q 432 -11 575 -11 q 225 24 289 -11 q 142 143 161 60 q 122 410 122 226 l 122 956 l 186 956 l 186 367 q 201 163 186 225 q 265 74 215 100 q 432 49 315 49 q 597 74 547 49 q 661 162 647 100 q 675 367 675 224 l 675 956 l 740 956 m 431 1011 q 333 1023 364 1011 q 294 1060 303 1035 q 285 1140 285 1086 q 294 1220 285 1194 q 333 1258 303 1246 q 431 1271 364 1271 q 530 1258 499 1271 q 570 1220 561 1246 q 579 1140 579 1194 q 570 1060 579 1086 q 530 1023 561 1035 q 431 1011 499 1011 m 431 1056 q 497 1063 476 1056 q 522 1086 517 1069 q 526 1140 526 1103 q 522 1194 526 1178 q 497 1219 517 1211 q 431 1226 476 1226 q 367 1219 386 1226 q 342 1194 347 1211 q 338 1140 338 1178 q 342 1086 338 1103 q 367 1063 347 1069 q 431 1056 386 1056 z "},"Ũ":{"ha":863,"x_min":122,"x_max":740,"o":"m 740 956 l 740 410 q 722 142 740 226 q 639 24 703 58 q 432 -11 575 -11 q 225 24 289 -11 q 142 143 161 60 q 122 410 122 226 l 122 956 l 186 956 l 186 367 q 201 163 186 225 q 265 74 215 100 q 432 49 315 49 q 597 74 547 49 q 661 162 647 100 q 675 367 675 224 l 675 956 l 740 956 m 646 1233 q 630 1125 646 1154 q 563 1096 614 1096 q 500 1105 531 1096 q 419 1132 469 1114 q 353 1156 379 1147 q 301 1164 326 1164 q 267 1147 275 1164 q 260 1081 260 1129 l 215 1081 q 231 1189 215 1160 q 299 1218 247 1218 q 365 1208 332 1218 q 444 1181 399 1199 q 509 1158 482 1165 q 561 1150 536 1150 q 594 1167 588 1150 q 601 1233 601 1185 l 646 1233 z "},"V":{"ha":786,"x_min":38,"x_max":747,"o":"m 356 0 l 38 956 l 107 956 l 390 96 l 397 96 l 682 956 l 747 956 l 429 0 l 356 0 z "},"W":{"ha":1168,"x_min":46,"x_max":1124,"o":"m 815 0 l 588 839 l 582 839 l 354 0 l 282 0 l 46 956 l 114 956 l 318 110 l 325 110 l 550 956 l 622 956 l 847 110 l 856 110 l 1058 956 l 1124 956 l 888 0 l 815 0 z "},"Ẃ":{"ha":1168,"x_min":46,"x_max":1124,"o":"m 815 0 l 588 839 l 582 839 l 354 0 l 282 0 l 46 956 l 114 956 l 318 110 l 325 110 l 550 956 l 622 956 l 847 110 l 856 110 l 1058 956 l 1124 956 l 888 0 l 815 0 m 554 1040 l 554 1047 l 668 1233 l 742 1233 l 742 1226 l 600 1040 l 554 1040 z "},"Ŵ":{"ha":1168,"x_min":46,"x_max":1124,"o":"m 815 0 l 588 839 l 582 839 l 354 0 l 282 0 l 46 956 l 114 956 l 318 110 l 325 110 l 550 956 l 622 956 l 847 110 l 856 110 l 1058 956 l 1124 956 l 888 0 l 815 0 m 418 1042 l 418 1049 l 547 1233 l 622 1233 l 753 1049 l 753 1042 l 706 1042 l 585 1188 l 464 1042 l 418 1042 z "},"Ẅ":{"ha":1168,"x_min":46,"x_max":1124,"o":"m 815 0 l 588 839 l 582 839 l 354 0 l 282 0 l 46 956 l 114 956 l 318 110 l 325 110 l 550 956 l 622 956 l 847 110 l 856 110 l 1058 956 l 1124 956 l 888 0 l 815 0 m 426 1125 l 426 1217 l 496 1217 l 496 1125 l 426 1125 m 674 1125 l 674 1217 l 743 1217 l 743 1125 l 674 1125 z "},"Ẁ":{"ha":1168,"x_min":46,"x_max":1124,"o":"m 815 0 l 588 839 l 582 839 l 354 0 l 282 0 l 46 956 l 114 956 l 318 110 l 325 110 l 550 956 l 622 956 l 847 110 l 856 110 l 1058 956 l 1124 956 l 888 0 l 815 0 m 574 1040 l 433 1226 l 433 1233 l 507 1233 l 621 1047 l 621 1040 l 574 1040 z "},"X":{"ha":808,"x_min":42,"x_max":767,"o":"m 690 0 l 408 422 l 399 422 l 117 0 l 42 0 l 364 481 l 46 956 l 122 956 l 401 539 l 410 539 l 688 956 l 763 956 l 444 482 l 767 0 l 690 0 z "},"Y":{"ha":718,"x_min":17,"x_max":700,"o":"m 325 0 l 325 383 l 17 956 l 89 956 l 356 460 l 364 460 l 631 956 l 700 956 l 390 383 l 390 0 l 325 0 z "},"Ý":{"ha":718,"x_min":17,"x_max":700,"o":"m 325 0 l 325 383 l 17 956 l 89 956 l 356 460 l 364 460 l 631 956 l 700 956 l 390 383 l 390 0 l 325 0 m 333 1042 l 333 1049 l 447 1235 l 521 1235 l 521 1228 l 379 1042 l 333 1042 z "},"Ŷ":{"ha":718,"x_min":17,"x_max":700,"o":"m 325 0 l 325 383 l 17 956 l 89 956 l 356 460 l 364 460 l 631 956 l 700 956 l 390 383 l 390 0 l 325 0 m 193 1042 l 193 1049 l 322 1233 l 397 1233 l 528 1049 l 528 1042 l 481 1042 l 360 1188 l 239 1042 l 193 1042 z "},"Ÿ":{"ha":718,"x_min":17,"x_max":700,"o":"m 325 0 l 325 383 l 17 956 l 89 956 l 356 460 l 364 460 l 631 956 l 700 956 l 390 383 l 390 0 l 325 0 m 203 1071 l 203 1163 l 272 1163 l 272 1071 l 203 1071 m 450 1071 l 450 1163 l 519 1163 l 519 1071 l 450 1071 z "},"Ỵ":{"ha":718,"x_min":17,"x_max":700,"o":"m 325 0 l 325 383 l 17 956 l 89 956 l 356 460 l 364 460 l 631 956 l 700 956 l 390 383 l 390 0 l 325 0 m 319 -187 l 319 -86 l 399 -86 l 399 -187 l 319 -187 z "},"Ỳ":{"ha":718,"x_min":17,"x_max":700,"o":"m 325 0 l 325 383 l 17 956 l 89 956 l 356 460 l 364 460 l 631 956 l 700 956 l 390 383 l 390 0 l 325 0 m 349 1040 l 208 1226 l 208 1233 l 282 1233 l 396 1047 l 396 1040 l 349 1040 z "},"Ỷ":{"ha":718,"x_min":17,"x_max":700,"o":"m 325 0 l 325 383 l 17 956 l 89 956 l 356 460 l 364 460 l 631 956 l 700 956 l 390 383 l 390 0 l 325 0 m 300 1031 q 312 1075 300 1063 q 356 1097 324 1088 l 385 1106 q 444 1129 431 1118 q 457 1168 457 1140 q 447 1205 457 1193 q 413 1219 436 1217 q 339 1222 390 1222 q 210 1215 289 1222 l 210 1258 q 349 1268 282 1268 q 474 1249 439 1268 q 508 1174 508 1229 q 495 1112 508 1132 q 436 1078 482 1092 l 404 1068 q 363 1054 374 1060 q 350 1042 353 1049 q 347 1017 347 1035 l 300 1017 l 300 1031 z "},"Ȳ":{"ha":718,"x_min":17,"x_max":700,"o":"m 325 0 l 325 383 l 17 956 l 89 956 l 356 460 l 364 460 l 631 956 l 700 956 l 390 383 l 390 0 l 325 0 m 214 1171 l 214 1232 l 504 1232 l 504 1171 l 214 1171 z "},"Ỹ":{"ha":718,"x_min":17,"x_max":700,"o":"m 325 0 l 325 383 l 17 956 l 89 956 l 356 460 l 364 460 l 631 956 l 700 956 l 390 383 l 390 0 l 325 0 m 574 1233 q 558 1125 574 1154 q 490 1096 542 1096 q 428 1105 458 1096 q 347 1132 397 1114 q 281 1156 307 1147 q 229 1164 254 1164 q 195 1147 203 1164 q 188 1081 188 1129 l 143 1081 q 159 1189 143 1160 q 226 1218 175 1218 q 293 1208 260 1218 q 372 1181 326 1199 q 437 1158 410 1165 q 489 1150 464 1150 q 522 1167 515 1150 q 529 1233 529 1185 l 574 1233 z "},"Z":{"ha":715,"x_min":64,"x_max":656,"o":"m 64 0 l 64 56 l 568 896 l 78 896 l 78 956 l 647 956 l 647 900 l 143 60 l 656 60 l 656 0 l 64 0 z "},"Ź":{"ha":715,"x_min":64,"x_max":656,"o":"m 64 0 l 64 56 l 568 896 l 78 896 l 78 956 l 647 956 l 647 900 l 143 60 l 656 60 l 656 0 l 64 0 m 328 1040 l 328 1047 l 442 1233 l 515 1233 l 515 1226 l 374 1040 l 328 1040 z "},"Ž":{"ha":715,"x_min":64,"x_max":656,"o":"m 64 0 l 64 56 l 568 896 l 78 896 l 78 956 l 647 956 l 647 900 l 143 60 l 656 60 l 656 0 l 64 0 m 329 1040 l 199 1225 l 199 1232 l 246 1232 l 367 1086 l 488 1232 l 535 1232 l 535 1225 l 404 1040 l 329 1040 z "},"Ż":{"ha":715,"x_min":64,"x_max":656,"o":"m 64 0 l 64 56 l 568 896 l 78 896 l 78 956 l 647 956 l 647 900 l 143 60 l 656 60 l 656 0 l 64 0 m 324 1125 l 324 1217 l 392 1217 l 392 1125 l 324 1125 z "},"Ẓ":{"ha":715,"x_min":64,"x_max":656,"o":"m 64 0 l 64 56 l 568 896 l 78 896 l 78 956 l 647 956 l 647 900 l 143 60 l 656 60 l 656 0 l 64 0 m 318 -187 l 318 -86 l 397 -86 l 397 -187 l 318 -187 z "},"a":{"ha":699,"x_min":72,"x_max":583,"o":"m 296 -11 q 167 6 214 -11 q 96 66 119 22 q 72 193 72 110 q 90 315 72 272 q 148 377 107 358 q 265 396 189 396 q 521 390 351 396 l 521 450 q 506 594 521 550 q 449 651 490 638 q 314 664 408 664 q 210 658 271 664 q 115 646 150 653 l 115 703 q 335 719 203 719 q 492 697 440 719 q 564 620 544 675 q 583 456 583 565 l 583 0 l 532 0 l 526 108 l 521 108 q 438 13 497 36 q 296 -11 378 -11 m 304 44 q 426 59 379 44 q 493 122 472 74 q 515 199 508 160 q 521 290 521 238 l 521 343 l 281 343 q 188 333 218 343 q 147 291 158 322 q 135 194 135 260 q 149 101 135 132 q 197 57 163 69 q 304 44 232 44 z "},"á":{"ha":699,"x_min":72,"x_max":583,"o":"m 296 -11 q 167 6 214 -11 q 96 66 119 22 q 72 193 72 110 q 90 315 72 272 q 148 377 107 358 q 265 396 189 396 q 521 390 351 396 l 521 450 q 506 594 521 550 q 449 651 490 638 q 314 664 408 664 q 210 658 271 664 q 115 646 150 653 l 115 703 q 335 719 203 719 q 492 697 440 719 q 564 620 544 675 q 583 456 583 565 l 583 0 l 532 0 l 526 108 l 521 108 q 438 13 497 36 q 296 -11 378 -11 m 304 44 q 426 59 379 44 q 493 122 472 74 q 515 199 508 160 q 521 290 521 238 l 521 343 l 281 343 q 188 333 218 343 q 147 291 158 322 q 135 194 135 260 q 149 101 135 132 q 197 57 163 69 q 304 44 232 44 m 307 839 l 307 846 l 421 1032 l 494 1032 l 494 1025 l 353 839 l 307 839 z "},"ă":{"ha":699,"x_min":72,"x_max":583,"o":"m 296 -11 q 167 6 214 -11 q 96 66 119 22 q 72 193 72 110 q 90 315 72 272 q 148 377 107 358 q 265 396 189 396 q 521 390 351 396 l 521 450 q 506 594 521 550 q 449 651 490 638 q 314 664 408 664 q 210 658 271 664 q 115 646 150 653 l 115 703 q 335 719 203 719 q 492 697 440 719 q 564 620 544 675 q 583 456 583 565 l 583 0 l 532 0 l 526 108 l 521 108 q 438 13 497 36 q 296 -11 378 -11 m 304 44 q 426 59 379 44 q 493 122 472 74 q 515 199 508 160 q 521 290 521 238 l 521 343 l 281 343 q 188 333 218 343 q 147 291 158 322 q 135 194 135 260 q 149 101 135 132 q 197 57 163 69 q 304 44 232 44 m 514 1032 q 506 922 514 961 q 461 860 497 883 q 349 836 425 836 q 237 860 272 836 q 193 922 201 883 q 185 1032 185 960 l 235 1032 q 240 943 235 972 q 270 898 246 914 q 349 882 294 882 q 427 898 403 882 q 458 944 451 914 q 464 1032 464 974 l 514 1032 z "},"ắ":{"ha":699,"x_min":72,"x_max":583,"o":"m 296 -11 q 167 6 214 -11 q 96 66 119 22 q 72 193 72 110 q 90 315 72 272 q 148 377 107 358 q 265 396 189 396 q 521 390 351 396 l 521 450 q 506 594 521 550 q 449 651 490 638 q 314 664 408 664 q 210 658 271 664 q 115 646 150 653 l 115 703 q 335 719 203 719 q 492 697 440 719 q 564 620 544 675 q 583 456 583 565 l 583 0 l 532 0 l 526 108 l 521 108 q 438 13 497 36 q 296 -11 378 -11 m 304 44 q 426 59 379 44 q 493 122 472 74 q 515 199 508 160 q 521 290 521 238 l 521 343 l 281 343 q 188 333 218 343 q 147 291 158 322 q 135 194 135 260 q 149 101 135 132 q 197 57 163 69 q 304 44 232 44 m 510 1032 q 501 922 510 961 q 457 860 493 883 q 344 836 421 836 q 233 860 268 836 q 189 922 197 883 q 181 1032 181 960 l 231 1032 q 236 943 231 972 q 266 898 242 914 q 344 882 290 882 q 423 898 399 882 q 453 944 447 914 q 460 1032 460 974 l 510 1032 m 319 1079 l 319 1086 l 433 1272 l 507 1272 l 507 1265 l 365 1079 l 319 1079 z "},"ặ":{"ha":699,"x_min":72,"x_max":583,"o":"m 296 -11 q 167 6 214 -11 q 96 66 119 22 q 72 193 72 110 q 90 315 72 272 q 148 377 107 358 q 265 396 189 396 q 521 390 351 396 l 521 450 q 506 594 521 550 q 449 651 490 638 q 314 664 408 664 q 210 658 271 664 q 115 646 150 653 l 115 703 q 335 719 203 719 q 492 697 440 719 q 564 620 544 675 q 583 456 583 565 l 583 0 l 532 0 l 526 108 l 521 108 q 438 13 497 36 q 296 -11 378 -11 m 304 44 q 426 59 379 44 q 493 122 472 74 q 515 199 508 160 q 521 290 521 238 l 521 343 l 281 343 q 188 333 218 343 q 147 291 158 322 q 135 194 135 260 q 149 101 135 132 q 197 57 163 69 q 304 44 232 44 m 310 -187 l 310 -86 l 389 -86 l 389 -187 l 310 -187 m 514 1032 q 506 922 514 961 q 461 860 497 883 q 349 836 425 836 q 237 860 272 836 q 193 922 201 883 q 185 1032 185 960 l 235 1032 q 240 943 235 972 q 270 898 246 914 q 349 882 294 882 q 427 898 403 882 q 458 944 451 914 q 464 1032 464 974 l 514 1032 z "},"ằ":{"ha":699,"x_min":72,"x_max":583,"o":"m 296 -11 q 167 6 214 -11 q 96 66 119 22 q 72 193 72 110 q 90 315 72 272 q 148 377 107 358 q 265 396 189 396 q 521 390 351 396 l 521 450 q 506 594 521 550 q 449 651 490 638 q 314 664 408 664 q 210 658 271 664 q 115 646 150 653 l 115 703 q 335 719 203 719 q 492 697 440 719 q 564 620 544 675 q 583 456 583 565 l 583 0 l 532 0 l 526 108 l 521 108 q 438 13 497 36 q 296 -11 378 -11 m 304 44 q 426 59 379 44 q 493 122 472 74 q 515 199 508 160 q 521 290 521 238 l 521 343 l 281 343 q 188 333 218 343 q 147 291 158 322 q 135 194 135 260 q 149 101 135 132 q 197 57 163 69 q 304 44 232 44 m 515 1032 q 507 922 515 961 q 463 860 499 883 q 350 836 426 836 q 238 860 274 836 q 194 922 203 883 q 186 1032 186 960 l 236 1032 q 242 943 236 972 q 272 898 247 914 q 350 882 296 882 q 428 898 404 882 q 459 944 453 914 q 465 1032 465 974 l 515 1032 m 342 1079 l 201 1265 l 201 1272 l 275 1272 l 389 1086 l 389 1079 l 342 1079 z "},"ẳ":{"ha":699,"x_min":72,"x_max":583,"o":"m 296 -11 q 167 6 214 -11 q 96 66 119 22 q 72 193 72 110 q 90 315 72 272 q 148 377 107 358 q 265 396 189 396 q 521 390 351 396 l 521 450 q 506 594 521 550 q 449 651 490 638 q 314 664 408 664 q 210 658 271 664 q 115 646 150 653 l 115 703 q 335 719 203 719 q 492 697 440 719 q 564 620 544 675 q 583 456 583 565 l 583 0 l 532 0 l 526 108 l 521 108 q 438 13 497 36 q 296 -11 378 -11 m 304 44 q 426 59 379 44 q 493 122 472 74 q 515 199 508 160 q 521 290 521 238 l 521 343 l 281 343 q 188 333 218 343 q 147 291 158 322 q 135 194 135 260 q 149 101 135 132 q 197 57 163 69 q 304 44 232 44 m 514 1032 q 506 922 514 961 q 461 860 497 883 q 349 836 425 836 q 237 860 272 836 q 193 922 201 883 q 185 1032 185 960 l 235 1032 q 240 943 235 972 q 270 898 246 914 q 349 882 294 882 q 427 898 403 882 q 458 944 451 914 q 464 1032 464 974 l 514 1032 m 294 1046 q 306 1090 294 1078 q 350 1113 318 1103 l 379 1121 q 438 1144 425 1133 q 451 1183 451 1156 q 441 1220 451 1208 q 408 1235 431 1232 q 333 1238 385 1238 q 204 1231 283 1238 l 204 1274 q 343 1283 276 1283 q 468 1264 433 1283 q 503 1189 503 1244 q 490 1127 503 1147 q 431 1093 476 1107 l 399 1083 q 358 1069 368 1075 q 344 1057 347 1064 q 342 1032 342 1050 l 294 1032 l 294 1046 z "},"ẵ":{"ha":699,"x_min":72,"x_max":583,"o":"m 296 -11 q 167 6 214 -11 q 96 66 119 22 q 72 193 72 110 q 90 315 72 272 q 148 377 107 358 q 265 396 189 396 q 521 390 351 396 l 521 450 q 506 594 521 550 q 449 651 490 638 q 314 664 408 664 q 210 658 271 664 q 115 646 150 653 l 115 703 q 335 719 203 719 q 492 697 440 719 q 564 620 544 675 q 583 456 583 565 l 583 0 l 532 0 l 526 108 l 521 108 q 438 13 497 36 q 296 -11 378 -11 m 304 44 q 426 59 379 44 q 493 122 472 74 q 515 199 508 160 q 521 290 521 238 l 521 343 l 281 343 q 188 333 218 343 q 147 291 158 322 q 135 194 135 260 q 149 101 135 132 q 197 57 163 69 q 304 44 232 44 m 511 1032 q 503 922 511 961 q 458 860 494 883 q 346 836 422 836 q 234 860 269 836 q 190 922 199 883 q 182 1032 182 960 l 232 1032 q 238 943 232 972 q 267 898 243 914 q 346 882 292 882 q 424 898 400 882 q 455 944 449 914 q 461 1032 461 974 l 511 1032 m 564 1274 q 548 1165 564 1194 q 481 1136 532 1136 q 418 1145 449 1136 q 338 1172 388 1154 q 271 1196 297 1188 q 219 1204 244 1204 q 185 1187 193 1204 q 178 1121 178 1169 l 133 1121 q 149 1229 133 1200 q 217 1258 165 1258 q 283 1249 250 1258 q 363 1221 317 1239 q 427 1198 400 1206 q 479 1190 454 1190 q 513 1208 506 1190 q 519 1274 519 1225 l 564 1274 z "},"ǎ":{"ha":699,"x_min":72,"x_max":583,"o":"m 296 -11 q 167 6 214 -11 q 96 66 119 22 q 72 193 72 110 q 90 315 72 272 q 148 377 107 358 q 265 396 189 396 q 521 390 351 396 l 521 450 q 506 594 521 550 q 449 651 490 638 q 314 664 408 664 q 210 658 271 664 q 115 646 150 653 l 115 703 q 335 719 203 719 q 492 697 440 719 q 564 620 544 675 q 583 456 583 565 l 583 0 l 532 0 l 526 108 l 521 108 q 438 13 497 36 q 296 -11 378 -11 m 304 44 q 426 59 379 44 q 493 122 472 74 q 515 199 508 160 q 521 290 521 238 l 521 343 l 281 343 q 188 333 218 343 q 147 291 158 322 q 135 194 135 260 q 149 101 135 132 q 197 57 163 69 q 304 44 232 44 m 313 840 l 182 1025 l 182 1032 l 229 1032 l 350 886 l 471 1032 l 518 1032 l 518 1025 l 388 840 l 313 840 z "},"â":{"ha":699,"x_min":72,"x_max":583,"o":"m 296 -11 q 167 6 214 -11 q 96 66 119 22 q 72 193 72 110 q 90 315 72 272 q 148 377 107 358 q 265 396 189 396 q 521 390 351 396 l 521 450 q 506 594 521 550 q 449 651 490 638 q 314 664 408 664 q 210 658 271 664 q 115 646 150 653 l 115 703 q 335 719 203 719 q 492 697 440 719 q 564 620 544 675 q 583 456 583 565 l 583 0 l 532 0 l 526 108 l 521 108 q 438 13 497 36 q 296 -11 378 -11 m 304 44 q 426 59 379 44 q 493 122 472 74 q 515 199 508 160 q 521 290 521 238 l 521 343 l 281 343 q 188 333 218 343 q 147 291 158 322 q 135 194 135 260 q 149 101 135 132 q 197 57 163 69 q 304 44 232 44 m 186 840 l 186 847 l 315 1032 l 390 1032 l 521 847 l 521 840 l 474 840 l 353 986 l 232 840 l 186 840 z "},"ấ":{"ha":699,"x_min":72,"x_max":626,"o":"m 296 -11 q 167 6 214 -11 q 96 66 119 22 q 72 193 72 110 q 90 315 72 272 q 148 377 107 358 q 265 396 189 396 q 521 390 351 396 l 521 450 q 506 594 521 550 q 449 651 490 638 q 314 664 408 664 q 210 658 271 664 q 115 646 150 653 l 115 703 q 335 719 203 719 q 492 697 440 719 q 564 620 544 675 q 583 456 583 565 l 583 0 l 532 0 l 526 108 l 521 108 q 438 13 497 36 q 296 -11 378 -11 m 304 44 q 426 59 379 44 q 493 122 472 74 q 515 199 508 160 q 521 290 521 238 l 521 343 l 281 343 q 188 333 218 343 q 147 291 158 322 q 135 194 135 260 q 149 101 135 132 q 197 57 163 69 q 304 44 232 44 m 179 840 l 179 847 l 308 1032 l 383 1032 l 514 847 l 514 840 l 467 840 l 346 986 l 225 840 l 179 840 m 439 1038 l 439 1044 l 553 1231 l 626 1231 l 626 1224 l 485 1038 l 439 1038 z "},"ậ":{"ha":699,"x_min":72,"x_max":583,"o":"m 296 -11 q 167 6 214 -11 q 96 66 119 22 q 72 193 72 110 q 90 315 72 272 q 148 377 107 358 q 265 396 189 396 q 521 390 351 396 l 521 450 q 506 594 521 550 q 449 651 490 638 q 314 664 408 664 q 210 658 271 664 q 115 646 150 653 l 115 703 q 335 719 203 719 q 492 697 440 719 q 564 620 544 675 q 583 456 583 565 l 583 0 l 532 0 l 526 108 l 521 108 q 438 13 497 36 q 296 -11 378 -11 m 304 44 q 426 59 379 44 q 493 122 472 74 q 515 199 508 160 q 521 290 521 238 l 521 343 l 281 343 q 188 333 218 343 q 147 291 158 322 q 135 194 135 260 q 149 101 135 132 q 197 57 163 69 q 304 44 232 44 m 310 -187 l 310 -86 l 389 -86 l 389 -187 l 310 -187 m 183 840 l 183 847 l 313 1032 l 388 1032 l 518 847 l 518 840 l 471 840 l 350 986 l 229 840 l 183 840 z "},"ầ":{"ha":699,"x_min":72,"x_max":583,"o":"m 296 -11 q 167 6 214 -11 q 96 66 119 22 q 72 193 72 110 q 90 315 72 272 q 148 377 107 358 q 265 396 189 396 q 521 390 351 396 l 521 450 q 506 594 521 550 q 449 651 490 638 q 314 664 408 664 q 210 658 271 664 q 115 646 150 653 l 115 703 q 335 719 203 719 q 492 697 440 719 q 564 620 544 675 q 583 456 583 565 l 583 0 l 532 0 l 526 108 l 521 108 q 438 13 497 36 q 296 -11 378 -11 m 304 44 q 426 59 379 44 q 493 122 472 74 q 515 199 508 160 q 521 290 521 238 l 521 343 l 281 343 q 188 333 218 343 q 147 291 158 322 q 135 194 135 260 q 149 101 135 132 q 197 57 163 69 q 304 44 232 44 m 178 840 l 178 847 l 307 1032 l 382 1032 l 513 847 l 513 840 l 465 840 l 344 986 l 224 840 l 178 840 m 472 1038 l 332 1224 l 332 1231 l 406 1231 l 519 1044 l 519 1038 l 472 1038 z "},"ẩ":{"ha":699,"x_min":72,"x_max":617,"o":"m 296 -11 q 167 6 214 -11 q 96 66 119 22 q 72 193 72 110 q 90 315 72 272 q 148 377 107 358 q 265 396 189 396 q 521 390 351 396 l 521 450 q 506 594 521 550 q 449 651 490 638 q 314 664 408 664 q 210 658 271 664 q 115 646 150 653 l 115 703 q 335 719 203 719 q 492 697 440 719 q 564 620 544 675 q 583 456 583 565 l 583 0 l 532 0 l 526 108 l 521 108 q 438 13 497 36 q 296 -11 378 -11 m 304 44 q 426 59 379 44 q 493 122 472 74 q 515 199 508 160 q 521 290 521 238 l 521 343 l 281 343 q 188 333 218 343 q 147 291 158 322 q 135 194 135 260 q 149 101 135 132 q 197 57 163 69 q 304 44 232 44 m 183 840 l 183 847 l 313 1032 l 388 1032 l 518 847 l 518 840 l 471 840 l 350 986 l 229 840 l 183 840 m 408 1050 q 420 1094 408 1082 q 464 1117 432 1107 l 493 1125 q 552 1149 539 1138 q 565 1188 565 1160 q 555 1224 565 1213 q 522 1239 544 1236 q 447 1242 499 1242 q 318 1235 397 1242 l 318 1278 q 457 1288 390 1288 q 582 1268 547 1288 q 617 1193 617 1249 q 603 1131 617 1151 q 544 1097 590 1111 l 513 1088 q 472 1074 482 1079 q 458 1061 461 1068 q 456 1036 456 1054 l 408 1036 l 408 1050 z "},"ẫ":{"ha":699,"x_min":72,"x_max":583,"o":"m 296 -11 q 167 6 214 -11 q 96 66 119 22 q 72 193 72 110 q 90 315 72 272 q 148 377 107 358 q 265 396 189 396 q 521 390 351 396 l 521 450 q 506 594 521 550 q 449 651 490 638 q 314 664 408 664 q 210 658 271 664 q 115 646 150 653 l 115 703 q 335 719 203 719 q 492 697 440 719 q 564 620 544 675 q 583 456 583 565 l 583 0 l 532 0 l 526 108 l 521 108 q 438 13 497 36 q 296 -11 378 -11 m 304 44 q 426 59 379 44 q 493 122 472 74 q 515 199 508 160 q 521 290 521 238 l 521 343 l 281 343 q 188 333 218 343 q 147 291 158 322 q 135 194 135 260 q 149 101 135 132 q 197 57 163 69 q 304 44 232 44 m 181 840 l 181 847 l 310 1032 l 385 1032 l 515 847 l 515 840 l 468 840 l 347 986 l 226 840 l 181 840 m 564 1272 q 548 1164 564 1193 q 481 1135 532 1135 q 418 1144 449 1135 q 338 1171 388 1153 q 271 1194 297 1186 q 219 1203 244 1203 q 185 1185 193 1203 q 178 1119 178 1168 l 133 1119 q 149 1228 133 1199 q 217 1257 165 1257 q 283 1247 250 1257 q 363 1219 317 1238 q 427 1197 400 1204 q 479 1189 454 1189 q 513 1206 506 1189 q 519 1272 519 1224 l 564 1272 z "},"ȁ":{"ha":699,"x_min":72,"x_max":583,"o":"m 296 -11 q 167 6 214 -11 q 96 66 119 22 q 72 193 72 110 q 90 315 72 272 q 148 377 107 358 q 265 396 189 396 q 521 390 351 396 l 521 450 q 506 594 521 550 q 449 651 490 638 q 314 664 408 664 q 210 658 271 664 q 115 646 150 653 l 115 703 q 335 719 203 719 q 492 697 440 719 q 564 620 544 675 q 583 456 583 565 l 583 0 l 532 0 l 526 108 l 521 108 q 438 13 497 36 q 296 -11 378 -11 m 304 44 q 426 59 379 44 q 493 122 472 74 q 515 199 508 160 q 521 290 521 238 l 521 343 l 281 343 q 188 333 218 343 q 147 291 158 322 q 135 194 135 260 q 149 101 135 132 q 197 57 163 69 q 304 44 232 44 m 268 843 l 225 843 l 86 1018 l 86 1025 l 157 1025 l 268 850 l 268 843 m 496 843 l 451 843 l 313 1018 l 313 1025 l 383 1025 l 496 850 l 496 843 z "},"ä":{"ha":699,"x_min":72,"x_max":583,"o":"m 296 -11 q 167 6 214 -11 q 96 66 119 22 q 72 193 72 110 q 90 315 72 272 q 148 377 107 358 q 265 396 189 396 q 521 390 351 396 l 521 450 q 506 594 521 550 q 449 651 490 638 q 314 664 408 664 q 210 658 271 664 q 115 646 150 653 l 115 703 q 335 719 203 719 q 492 697 440 719 q 564 620 544 675 q 583 456 583 565 l 583 0 l 532 0 l 526 108 l 521 108 q 438 13 497 36 q 296 -11 378 -11 m 304 44 q 426 59 379 44 q 493 122 472 74 q 515 199 508 160 q 521 290 521 238 l 521 343 l 281 343 q 188 333 218 343 q 147 291 158 322 q 135 194 135 260 q 149 101 135 132 q 197 57 163 69 q 304 44 232 44 m 194 922 l 194 1014 l 264 1014 l 264 922 l 194 922 m 442 922 l 442 1014 l 511 1014 l 511 922 l 442 922 z "},"ạ":{"ha":699,"x_min":72,"x_max":583,"o":"m 296 -11 q 167 6 214 -11 q 96 66 119 22 q 72 193 72 110 q 90 315 72 272 q 148 377 107 358 q 265 396 189 396 q 521 390 351 396 l 521 450 q 506 594 521 550 q 449 651 490 638 q 314 664 408 664 q 210 658 271 664 q 115 646 150 653 l 115 703 q 335 719 203 719 q 492 697 440 719 q 564 620 544 675 q 583 456 583 565 l 583 0 l 532 0 l 526 108 l 521 108 q 438 13 497 36 q 296 -11 378 -11 m 304 44 q 426 59 379 44 q 493 122 472 74 q 515 199 508 160 q 521 290 521 238 l 521 343 l 281 343 q 188 333 218 343 q 147 291 158 322 q 135 194 135 260 q 149 101 135 132 q 197 57 163 69 q 304 44 232 44 m 310 -187 l 310 -86 l 389 -86 l 389 -187 l 310 -187 z "},"à":{"ha":699,"x_min":72,"x_max":583,"o":"m 296 -11 q 167 6 214 -11 q 96 66 119 22 q 72 193 72 110 q 90 315 72 272 q 148 377 107 358 q 265 396 189 396 q 521 390 351 396 l 521 450 q 506 594 521 550 q 449 651 490 638 q 314 664 408 664 q 210 658 271 664 q 115 646 150 653 l 115 703 q 335 719 203 719 q 492 697 440 719 q 564 620 544 675 q 583 456 583 565 l 583 0 l 532 0 l 526 108 l 521 108 q 438 13 497 36 q 296 -11 378 -11 m 304 44 q 426 59 379 44 q 493 122 472 74 q 515 199 508 160 q 521 290 521 238 l 521 343 l 281 343 q 188 333 218 343 q 147 291 158 322 q 135 194 135 260 q 149 101 135 132 q 197 57 163 69 q 304 44 232 44 m 354 839 l 214 1025 l 214 1032 l 288 1032 l 401 846 l 401 839 l 354 839 z "},"ả":{"ha":699,"x_min":72,"x_max":583,"o":"m 296 -11 q 167 6 214 -11 q 96 66 119 22 q 72 193 72 110 q 90 315 72 272 q 148 377 107 358 q 265 396 189 396 q 521 390 351 396 l 521 450 q 506 594 521 550 q 449 651 490 638 q 314 664 408 664 q 210 658 271 664 q 115 646 150 653 l 115 703 q 335 719 203 719 q 492 697 440 719 q 564 620 544 675 q 583 456 583 565 l 583 0 l 532 0 l 526 108 l 521 108 q 438 13 497 36 q 296 -11 378 -11 m 304 44 q 426 59 379 44 q 493 122 472 74 q 515 199 508 160 q 521 290 521 238 l 521 343 l 281 343 q 188 333 218 343 q 147 291 158 322 q 135 194 135 260 q 149 101 135 132 q 197 57 163 69 q 304 44 232 44 m 290 858 q 302 903 290 890 q 346 925 314 915 l 375 933 q 434 957 421 946 q 447 996 447 968 q 437 1033 447 1021 q 403 1047 426 1044 q 329 1050 381 1050 q 200 1043 279 1050 l 200 1086 q 339 1096 272 1096 q 464 1076 429 1096 q 499 1001 499 1057 q 485 940 499 960 q 426 906 472 919 l 394 896 q 353 882 364 888 q 340 869 343 876 q 338 844 338 863 l 290 844 l 290 858 z "},"ȃ":{"ha":699,"x_min":72,"x_max":583,"o":"m 296 -11 q 167 6 214 -11 q 96 66 119 22 q 72 193 72 110 q 90 315 72 272 q 148 377 107 358 q 265 396 189 396 q 521 390 351 396 l 521 450 q 506 594 521 550 q 449 651 490 638 q 314 664 408 664 q 210 658 271 664 q 115 646 150 653 l 115 703 q 335 719 203 719 q 492 697 440 719 q 564 620 544 675 q 583 456 583 565 l 583 0 l 532 0 l 526 108 l 521 108 q 438 13 497 36 q 296 -11 378 -11 m 304 44 q 426 59 379 44 q 493 122 472 74 q 515 199 508 160 q 521 290 521 238 l 521 343 l 281 343 q 188 333 218 343 q 147 291 158 322 q 135 194 135 260 q 149 101 135 132 q 197 57 163 69 q 304 44 232 44 m 185 844 q 193 954 185 915 q 238 1017 201 993 q 350 1040 274 1040 q 462 1017 426 1040 q 506 955 497 993 q 514 844 514 917 l 464 844 q 458 933 464 904 q 428 978 453 963 q 350 994 404 994 q 272 978 296 994 q 241 933 247 963 q 235 844 235 903 l 185 844 z "},"ā":{"ha":699,"x_min":72,"x_max":583,"o":"m 296 -11 q 167 6 214 -11 q 96 66 119 22 q 72 193 72 110 q 90 315 72 272 q 148 377 107 358 q 265 396 189 396 q 521 390 351 396 l 521 450 q 506 594 521 550 q 449 651 490 638 q 314 664 408 664 q 210 658 271 664 q 115 646 150 653 l 115 703 q 335 719 203 719 q 492 697 440 719 q 564 620 544 675 q 583 456 583 565 l 583 0 l 532 0 l 526 108 l 521 108 q 438 13 497 36 q 296 -11 378 -11 m 304 44 q 426 59 379 44 q 493 122 472 74 q 515 199 508 160 q 521 290 521 238 l 521 343 l 281 343 q 188 333 218 343 q 147 291 158 322 q 135 194 135 260 q 149 101 135 132 q 197 57 163 69 q 304 44 232 44 m 204 969 l 204 1031 l 494 1031 l 494 969 l 204 969 z "},"ą":{"ha":699,"x_min":72,"x_max":589,"o":"m 565 -221 q 589 -219 578 -221 l 589 -271 q 553 -272 574 -272 q 469 -244 496 -272 q 443 -174 443 -217 q 467 -83 443 -131 q 532 3 492 -35 l 526 108 l 521 108 q 438 13 497 36 q 296 -11 378 -11 q 167 6 214 -11 q 96 66 119 22 q 72 193 72 110 q 90 315 72 272 q 148 377 107 358 q 265 396 189 396 q 521 390 351 396 l 521 450 q 506 594 521 550 q 449 651 490 638 q 314 664 408 664 q 210 658 271 664 q 115 646 150 653 l 115 703 q 335 719 203 719 q 492 697 440 719 q 564 620 544 675 q 583 456 583 565 l 583 0 q 528 -73 554 -25 q 501 -161 501 -121 q 565 -221 501 -221 m 521 343 l 281 343 q 188 333 218 343 q 147 291 158 322 q 135 194 135 260 q 149 101 135 132 q 197 57 163 69 q 304 44 232 44 q 426 59 379 44 q 493 122 472 74 q 515 199 508 160 q 521 290 521 238 l 521 343 z "},"å":{"ha":699,"x_min":72,"x_max":583,"o":"m 296 -11 q 167 6 214 -11 q 96 66 119 22 q 72 193 72 110 q 90 315 72 272 q 148 377 107 358 q 265 396 189 396 q 521 390 351 396 l 521 450 q 506 594 521 550 q 449 651 490 638 q 314 664 408 664 q 210 658 271 664 q 115 646 150 653 l 115 703 q 335 719 203 719 q 492 697 440 719 q 564 620 544 675 q 583 456 583 565 l 583 0 l 532 0 l 526 108 l 521 108 q 438 13 497 36 q 296 -11 378 -11 m 304 44 q 426 59 379 44 q 493 122 472 74 q 515 199 508 160 q 521 290 521 238 l 521 343 l 281 343 q 188 333 218 343 q 147 291 158 322 q 135 194 135 260 q 149 101 135 132 q 197 57 163 69 q 304 44 232 44 m 347 847 q 250 859 281 847 q 210 897 219 871 q 201 976 201 922 q 210 1056 201 1031 q 250 1094 219 1082 q 347 1107 281 1107 q 447 1094 415 1107 q 487 1056 478 1082 q 496 976 496 1031 q 487 897 496 922 q 447 859 478 871 q 347 847 415 847 m 347 892 q 413 899 393 892 q 438 922 433 906 q 443 976 443 939 q 438 1031 443 1014 q 413 1055 433 1047 q 347 1063 393 1063 q 283 1055 303 1063 q 259 1031 264 1047 q 254 976 254 1014 q 259 922 254 939 q 283 899 264 906 q 347 892 303 892 z "},"ǻ":{"ha":699,"x_min":72,"x_max":583,"o":"m 296 -11 q 167 6 214 -11 q 96 66 119 22 q 72 193 72 110 q 90 315 72 272 q 148 377 107 358 q 265 396 189 396 q 521 390 351 396 l 521 450 q 506 594 521 550 q 449 651 490 638 q 314 664 408 664 q 210 658 271 664 q 115 646 150 653 l 115 703 q 335 719 203 719 q 492 697 440 719 q 564 620 544 675 q 583 456 583 565 l 583 0 l 532 0 l 526 108 l 521 108 q 438 13 497 36 q 296 -11 378 -11 m 304 44 q 426 59 379 44 q 493 122 472 74 q 515 199 508 160 q 521 290 521 238 l 521 343 l 281 343 q 188 333 218 343 q 147 291 158 322 q 135 194 135 260 q 149 101 135 132 q 197 57 163 69 q 304 44 232 44 m 349 851 q 251 863 282 851 q 212 901 221 875 q 203 981 203 926 q 212 1060 203 1035 q 251 1099 221 1086 q 349 1111 282 1111 q 448 1099 417 1111 q 488 1060 479 1086 q 497 981 497 1035 q 488 901 497 926 q 448 863 479 875 q 349 851 417 851 m 349 896 q 415 903 394 896 q 440 926 435 910 q 444 981 444 943 q 440 1035 444 1018 q 415 1059 435 1051 q 349 1067 394 1067 q 285 1059 304 1067 q 260 1035 265 1051 q 256 981 256 1018 q 260 926 256 943 q 285 903 265 910 q 349 896 304 896 m 325 1158 l 325 1165 l 439 1351 l 513 1351 l 513 1344 l 371 1158 l 325 1158 z "},"ã":{"ha":699,"x_min":72,"x_max":583,"o":"m 296 -11 q 167 6 214 -11 q 96 66 119 22 q 72 193 72 110 q 90 315 72 272 q 148 377 107 358 q 265 396 189 396 q 521 390 351 396 l 521 450 q 506 594 521 550 q 449 651 490 638 q 314 664 408 664 q 210 658 271 664 q 115 646 150 653 l 115 703 q 335 719 203 719 q 492 697 440 719 q 564 620 544 675 q 583 456 583 565 l 583 0 l 532 0 l 526 108 l 521 108 q 438 13 497 36 q 296 -11 378 -11 m 304 44 q 426 59 379 44 q 493 122 472 74 q 515 199 508 160 q 521 290 521 238 l 521 343 l 281 343 q 188 333 218 343 q 147 291 158 322 q 135 194 135 260 q 149 101 135 132 q 197 57 163 69 q 304 44 232 44 m 564 1032 q 548 924 564 953 q 481 894 532 894 q 418 903 449 894 q 338 931 388 913 q 271 954 297 946 q 219 963 244 963 q 185 945 193 963 q 178 879 178 928 l 133 879 q 149 988 133 958 q 217 1017 165 1017 q 283 1007 250 1017 q 363 979 317 997 q 427 956 400 964 q 479 949 454 949 q 513 966 506 949 q 519 1032 519 983 l 564 1032 z "},"æ":{"ha":1125,"x_min":72,"x_max":1038,"o":"m 1038 338 l 583 338 q 597 150 583 208 q 657 68 611 92 q 804 44 703 44 q 909 50 850 44 q 1013 63 968 56 l 1013 7 q 916 -6 976 -1 q 794 -11 856 -11 q 625 17 681 -11 q 547 117 569 44 q 453 13 517 38 q 299 -11 390 -11 q 167 6 215 -11 q 96 66 119 22 q 72 193 72 110 q 89 313 72 271 q 147 374 106 356 q 265 392 189 392 q 521 390 440 392 l 521 449 q 506 594 521 550 q 449 651 490 638 q 313 664 408 664 q 210 658 271 664 q 114 646 150 653 l 114 703 q 335 719 204 719 q 485 699 433 719 q 557 628 536 679 q 638 698 582 676 q 794 719 693 719 q 959 688 908 719 q 1024 585 1010 656 q 1038 360 1038 515 l 1038 338 m 790 664 q 651 644 693 664 q 597 571 610 625 q 583 390 583 517 l 975 390 l 975 411 q 959 578 975 526 q 906 647 943 631 q 790 664 869 664 m 521 338 l 281 338 q 188 328 218 338 q 146 288 158 318 q 133 194 133 258 q 147 101 133 132 q 197 57 161 69 q 304 44 232 44 q 427 60 381 44 q 496 128 474 75 q 521 290 521 193 l 521 338 z "},"ǽ":{"ha":1125,"x_min":72,"x_max":1038,"o":"m 1038 338 l 583 338 q 597 150 583 208 q 657 68 611 92 q 804 44 703 44 q 909 50 850 44 q 1013 63 968 56 l 1013 7 q 916 -6 976 -1 q 794 -11 856 -11 q 625 17 681 -11 q 547 117 569 44 q 453 13 517 38 q 299 -11 390 -11 q 167 6 215 -11 q 96 66 119 22 q 72 193 72 110 q 89 313 72 271 q 147 374 106 356 q 265 392 189 392 q 521 390 440 392 l 521 449 q 506 594 521 550 q 449 651 490 638 q 313 664 408 664 q 210 658 271 664 q 114 646 150 653 l 114 703 q 335 719 204 719 q 485 699 433 719 q 557 628 536 679 q 638 698 582 676 q 794 719 693 719 q 959 688 908 719 q 1024 585 1010 656 q 1038 360 1038 515 l 1038 338 m 790 664 q 651 644 693 664 q 597 571 610 625 q 583 390 583 517 l 975 390 l 975 411 q 959 578 975 526 q 906 647 943 631 q 790 664 869 664 m 521 338 l 281 338 q 188 328 218 338 q 146 288 158 318 q 133 194 133 258 q 147 101 133 132 q 197 57 161 69 q 304 44 232 44 q 427 60 381 44 q 496 128 474 75 q 521 290 521 193 l 521 338 m 535 839 l 535 846 l 649 1032 l 722 1032 l 722 1025 l 581 839 l 535 839 z "},"b":{"ha":732,"x_min":117,"x_max":643,"o":"m 399 -11 q 258 13 314 -11 q 179 108 203 38 l 174 108 l 169 0 l 117 0 l 117 1032 l 179 1032 l 179 613 l 185 613 q 259 694 207 669 q 399 719 311 719 q 554 690 503 719 q 624 584 606 660 q 643 354 643 508 q 624 124 643 200 q 554 19 606 49 q 399 -11 503 -11 m 379 46 q 513 67 472 46 q 567 150 553 88 q 581 354 581 213 q 567 558 581 496 q 513 642 553 621 q 379 663 472 663 q 260 638 304 663 q 200 563 215 614 q 183 474 188 522 q 179 354 179 426 q 183 235 179 281 q 199 149 186 189 q 258 70 214 94 q 379 46 303 46 z "},"c":{"ha":565,"x_min":88,"x_max":504,"o":"m 504 6 q 429 -6 475 -1 q 340 -11 383 -11 q 173 24 226 -11 q 103 133 119 60 q 88 353 88 207 q 108 580 88 503 q 180 688 128 657 q 335 719 232 719 q 422 715 376 719 q 499 703 468 710 l 499 647 q 424 659 467 654 q 347 664 382 664 q 219 639 260 664 q 164 551 178 614 q 150 356 150 489 q 165 155 150 218 q 220 68 179 92 q 351 44 261 44 q 431 50 388 44 q 504 63 474 56 l 504 6 z "},"ć":{"ha":565,"x_min":88,"x_max":504,"o":"m 504 6 q 429 -6 475 -1 q 340 -11 383 -11 q 173 24 226 -11 q 103 133 119 60 q 88 353 88 207 q 108 580 88 503 q 180 688 128 657 q 335 719 232 719 q 422 715 376 719 q 499 703 468 710 l 499 647 q 424 659 467 654 q 347 664 382 664 q 219 639 260 664 q 164 551 178 614 q 150 356 150 489 q 165 155 150 218 q 220 68 179 92 q 351 44 261 44 q 431 50 388 44 q 504 63 474 56 l 504 6 m 256 839 l 256 846 l 369 1032 l 443 1032 l 443 1025 l 301 839 l 256 839 z "},"č":{"ha":565,"x_min":88,"x_max":504,"o":"m 504 6 q 429 -6 475 -1 q 340 -11 383 -11 q 173 24 226 -11 q 103 133 119 60 q 88 353 88 207 q 108 580 88 503 q 180 688 128 657 q 335 719 232 719 q 422 715 376 719 q 499 703 468 710 l 499 647 q 424 659 467 654 q 347 664 382 664 q 219 639 260 664 q 164 551 178 614 q 150 356 150 489 q 165 155 150 218 q 220 68 179 92 q 351 44 261 44 q 431 50 388 44 q 504 63 474 56 l 504 6 m 246 840 l 115 1025 l 115 1032 l 163 1032 l 283 886 l 404 1032 l 451 1032 l 451 1025 l 321 840 l 246 840 z "},"ç":{"ha":565,"x_min":88,"x_max":504,"o":"m 351 44 q 431 50 388 44 q 504 63 474 56 l 504 6 q 429 -6 475 -1 q 340 -11 383 -11 q 306 -10 317 -11 l 249 -264 l 181 -264 l 181 -257 l 257 -6 q 146 47 182 7 q 99 157 110 88 q 88 353 88 226 q 108 580 88 503 q 180 688 128 657 q 335 719 232 719 q 422 715 376 719 q 499 703 468 710 l 499 647 q 424 659 467 654 q 347 664 382 664 q 219 639 260 664 q 164 551 178 614 q 150 356 150 489 q 165 155 150 218 q 220 68 179 92 q 351 44 261 44 z "},"ĉ":{"ha":565,"x_min":88,"x_max":504,"o":"m 504 6 q 429 -6 475 -1 q 340 -11 383 -11 q 173 24 226 -11 q 103 133 119 60 q 88 353 88 207 q 108 580 88 503 q 180 688 128 657 q 335 719 232 719 q 422 715 376 719 q 499 703 468 710 l 499 647 q 424 659 467 654 q 347 664 382 664 q 219 639 260 664 q 164 551 178 614 q 150 356 150 489 q 165 155 150 218 q 220 68 179 92 q 351 44 261 44 q 431 50 388 44 q 504 63 474 56 l 504 6 m 117 840 l 117 847 l 246 1032 l 321 1032 l 451 847 l 451 840 l 404 840 l 283 986 l 163 840 l 117 840 z "},"ċ":{"ha":565,"x_min":88,"x_max":504,"o":"m 504 6 q 429 -6 475 -1 q 340 -11 383 -11 q 173 24 226 -11 q 103 133 119 60 q 88 353 88 207 q 108 580 88 503 q 180 688 128 657 q 335 719 232 719 q 422 715 376 719 q 499 703 468 710 l 499 647 q 424 659 467 654 q 347 664 382 664 q 219 639 260 664 q 164 551 178 614 q 150 356 150 489 q 165 155 150 218 q 220 68 179 92 q 351 44 261 44 q 431 50 388 44 q 504 63 474 56 l 504 6 m 249 924 l 249 1015 l 317 1015 l 317 924 l 249 924 z "},"d":{"ha":732,"x_min":88,"x_max":614,"o":"m 333 -11 q 178 19 229 -11 q 107 124 126 49 q 88 354 88 200 q 106 584 88 508 q 176 690 125 660 q 332 719 228 719 q 472 694 419 719 q 546 613 525 669 l 551 613 l 551 1032 l 614 1032 l 614 0 l 563 0 l 557 108 l 551 108 q 473 13 529 38 q 333 -11 417 -11 m 351 46 q 473 70 428 46 q 533 144 518 94 q 549 234 546 188 q 551 371 551 281 q 549 474 551 432 q 536 549 546 517 q 473 636 518 610 q 346 663 428 663 q 217 642 257 663 q 164 558 178 621 q 150 354 150 496 q 164 150 150 213 q 219 67 178 88 q 351 46 260 46 z "},"ð":{"ha":713,"x_min":88,"x_max":625,"o":"m 356 -11 q 173 18 228 -11 q 103 118 118 47 q 88 353 88 189 q 103 588 88 517 q 172 690 118 660 q 350 719 225 719 q 524 672 468 719 l 531 675 q 438 888 496 796 l 282 863 l 282 914 l 406 933 q 350 997 376 971 q 319 1026 324 1022 l 319 1032 l 392 1032 q 471 944 435 993 l 597 967 l 597 915 l 501 899 q 569 747 539 833 q 613 576 600 661 q 625 385 625 483 q 612 126 625 201 q 544 20 599 51 q 356 -11 489 -11 m 356 44 q 502 67 461 44 q 553 147 543 90 q 563 353 563 204 q 553 541 563 482 q 499 632 543 600 q 356 664 456 664 q 210 641 251 664 q 160 561 169 618 q 150 353 150 504 q 160 147 150 204 q 210 67 169 90 q 356 44 251 44 z "},"ď":{"ha":735,"x_min":88,"x_max":761,"o":"m 333 -11 q 178 19 229 -11 q 107 124 126 49 q 88 354 88 200 q 106 584 88 508 q 176 690 125 660 q 332 719 228 719 q 472 694 419 719 q 546 613 525 669 l 551 613 l 551 1032 l 614 1032 l 614 0 l 563 0 l 557 108 l 551 108 q 473 13 529 38 q 333 -11 417 -11 m 351 46 q 473 70 428 46 q 533 144 518 94 q 549 234 546 188 q 551 371 551 281 q 549 474 551 432 q 536 549 546 517 q 473 636 518 610 q 346 663 428 663 q 217 642 257 663 q 164 558 178 621 q 150 354 150 496 q 164 150 150 213 q 219 67 178 88 q 351 46 260 46 m 676 626 l 694 836 l 694 956 l 761 956 l 761 836 l 719 626 l 676 626 z "},"đ":{"ha":732,"x_min":88,"x_max":701,"o":"m 701 900 l 614 900 l 614 0 l 563 0 l 557 108 l 551 108 q 473 13 529 38 q 333 -11 417 -11 q 178 19 229 -11 q 107 124 126 49 q 88 354 88 200 q 106 584 88 508 q 176 690 125 660 q 332 719 228 719 q 472 694 419 719 q 546 613 525 669 l 551 613 l 551 900 l 363 900 l 363 956 l 551 956 l 551 1032 l 614 1032 l 614 956 l 701 956 l 701 900 m 533 144 q 549 234 546 188 q 551 371 551 281 q 549 474 551 432 q 536 549 546 517 q 473 636 518 610 q 346 663 428 663 q 217 642 257 663 q 164 558 178 621 q 150 354 150 496 q 164 150 150 213 q 219 67 178 88 q 351 46 260 46 q 473 70 428 46 q 533 144 518 94 z "},"ḍ":{"ha":732,"x_min":88,"x_max":614,"o":"m 333 -11 q 178 19 229 -11 q 107 124 126 49 q 88 354 88 200 q 106 584 88 508 q 176 690 125 660 q 332 719 228 719 q 472 694 419 719 q 546 613 525 669 l 551 613 l 551 1032 l 614 1032 l 614 0 l 563 0 l 557 108 l 551 108 q 473 13 529 38 q 333 -11 417 -11 m 351 46 q 473 70 428 46 q 533 144 518 94 q 549 234 546 188 q 551 371 551 281 q 549 474 551 432 q 536 549 546 517 q 473 636 518 610 q 346 663 428 663 q 217 642 257 663 q 164 558 178 621 q 150 354 150 496 q 164 150 150 213 q 219 67 178 88 q 351 46 260 46 m 325 -187 l 325 -86 l 404 -86 l 404 -187 l 325 -187 z "},"ǳ":{"ha":1336,"x_min":88,"x_max":1274,"o":"m 333 -11 q 178 19 229 -11 q 107 124 126 49 q 88 354 88 200 q 106 584 88 508 q 176 690 125 660 q 332 719 228 719 q 472 694 419 719 q 546 613 525 669 l 551 613 l 551 1032 l 614 1032 l 614 0 l 563 0 l 557 108 l 551 108 q 473 13 529 38 q 333 -11 417 -11 m 351 46 q 473 70 428 46 q 533 144 518 94 q 549 234 546 188 q 551 371 551 281 q 549 474 551 432 q 536 549 546 517 q 473 636 518 610 q 346 663 428 663 q 217 642 257 663 q 164 558 178 621 q 150 354 150 496 q 164 150 150 213 q 219 67 178 88 q 351 46 260 46 m 794 0 l 794 50 l 1192 653 l 810 653 l 810 708 l 1271 708 l 1271 658 l 875 56 l 1274 56 l 1274 0 l 794 0 z "},"ǆ":{"ha":1336,"x_min":88,"x_max":1274,"o":"m 333 -11 q 178 19 229 -11 q 107 124 126 49 q 88 354 88 200 q 106 584 88 508 q 176 690 125 660 q 332 719 228 719 q 472 694 419 719 q 546 613 525 669 l 551 613 l 551 1032 l 614 1032 l 614 0 l 563 0 l 557 108 l 551 108 q 473 13 529 38 q 333 -11 417 -11 m 351 46 q 473 70 428 46 q 533 144 518 94 q 549 234 546 188 q 551 371 551 281 q 549 474 551 432 q 536 549 546 517 q 473 636 518 610 q 346 663 428 663 q 217 642 257 663 q 164 558 178 621 q 150 354 150 496 q 164 150 150 213 q 219 67 178 88 q 351 46 260 46 m 794 0 l 794 50 l 1192 653 l 810 653 l 810 708 l 1271 708 l 1271 658 l 875 56 l 1274 56 l 1274 0 l 794 0 m 997 840 l 867 1025 l 867 1032 l 914 1032 l 1035 886 l 1156 1032 l 1203 1032 l 1203 1025 l 1072 840 l 997 840 z "},"e":{"ha":692,"x_min":88,"x_max":604,"o":"m 604 333 l 150 333 q 164 149 150 207 q 224 67 178 90 q 371 44 269 44 q 476 50 417 44 q 579 63 535 56 l 579 7 q 483 -6 543 -1 q 361 -11 422 -11 q 182 19 239 -11 q 106 124 125 50 q 88 353 88 199 q 103 581 88 510 q 175 685 118 651 q 361 719 232 719 q 526 688 475 719 q 590 584 576 656 q 604 356 604 513 l 604 333 m 357 664 q 218 644 260 664 q 163 569 176 625 q 150 386 150 514 l 542 386 l 542 411 q 526 578 542 525 q 472 647 510 631 q 357 664 435 664 z "},"é":{"ha":692,"x_min":88,"x_max":604,"o":"m 604 333 l 150 333 q 164 149 150 207 q 224 67 178 90 q 371 44 269 44 q 476 50 417 44 q 579 63 535 56 l 579 7 q 483 -6 543 -1 q 361 -11 422 -11 q 182 19 239 -11 q 106 124 125 50 q 88 353 88 199 q 103 581 88 510 q 175 685 118 651 q 361 719 232 719 q 526 688 475 719 q 590 584 576 656 q 604 356 604 513 l 604 333 m 357 664 q 218 644 260 664 q 163 569 176 625 q 150 386 150 514 l 542 386 l 542 411 q 526 578 542 525 q 472 647 510 631 q 357 664 435 664 m 318 839 l 318 846 l 432 1032 l 506 1032 l 506 1025 l 364 839 l 318 839 z "},"ĕ":{"ha":692,"x_min":88,"x_max":604,"o":"m 604 333 l 150 333 q 164 149 150 207 q 224 67 178 90 q 371 44 269 44 q 476 50 417 44 q 579 63 535 56 l 579 7 q 483 -6 543 -1 q 361 -11 422 -11 q 182 19 239 -11 q 106 124 125 50 q 88 353 88 199 q 103 581 88 510 q 175 685 118 651 q 361 719 232 719 q 526 688 475 719 q 590 584 576 656 q 604 356 604 513 l 604 333 m 357 664 q 218 644 260 664 q 163 569 176 625 q 150 386 150 514 l 542 386 l 542 411 q 526 578 542 525 q 472 647 510 631 q 357 664 435 664 m 510 1032 q 501 922 510 961 q 457 860 493 883 q 344 836 421 836 q 233 860 268 836 q 189 922 197 883 q 181 1032 181 960 l 231 1032 q 236 943 231 972 q 266 898 242 914 q 344 882 290 882 q 423 898 399 882 q 453 944 447 914 q 460 1032 460 974 l 510 1032 z "},"ě":{"ha":692,"x_min":88,"x_max":604,"o":"m 604 333 l 150 333 q 164 149 150 207 q 224 67 178 90 q 371 44 269 44 q 476 50 417 44 q 579 63 535 56 l 579 7 q 483 -6 543 -1 q 361 -11 422 -11 q 182 19 239 -11 q 106 124 125 50 q 88 353 88 199 q 103 581 88 510 q 175 685 118 651 q 361 719 232 719 q 526 688 475 719 q 590 584 576 656 q 604 356 604 513 l 604 333 m 357 664 q 218 644 260 664 q 163 569 176 625 q 150 386 150 514 l 542 386 l 542 411 q 526 578 542 525 q 472 647 510 631 q 357 664 435 664 m 308 840 l 178 1025 l 178 1032 l 225 1032 l 346 886 l 467 1032 l 514 1032 l 514 1025 l 383 840 l 308 840 z "},"ê":{"ha":692,"x_min":88,"x_max":604,"o":"m 604 333 l 150 333 q 164 149 150 207 q 224 67 178 90 q 371 44 269 44 q 476 50 417 44 q 579 63 535 56 l 579 7 q 483 -6 543 -1 q 361 -11 422 -11 q 182 19 239 -11 q 106 124 125 50 q 88 353 88 199 q 103 581 88 510 q 175 685 118 651 q 361 719 232 719 q 526 688 475 719 q 590 584 576 656 q 604 356 604 513 l 604 333 m 357 664 q 218 644 260 664 q 163 569 176 625 q 150 386 150 514 l 542 386 l 542 411 q 526 578 542 525 q 472 647 510 631 q 357 664 435 664 m 181 840 l 181 847 l 310 1032 l 385 1032 l 515 847 l 515 840 l 468 840 l 347 986 l 226 840 l 181 840 z "},"ế":{"ha":692,"x_min":88,"x_max":622,"o":"m 604 333 l 150 333 q 164 149 150 207 q 224 67 178 90 q 371 44 269 44 q 476 50 417 44 q 579 63 535 56 l 579 7 q 483 -6 543 -1 q 361 -11 422 -11 q 182 19 239 -11 q 106 124 125 50 q 88 353 88 199 q 103 581 88 510 q 175 685 118 651 q 361 719 232 719 q 526 688 475 719 q 590 584 576 656 q 604 356 604 513 l 604 333 m 357 664 q 218 644 260 664 q 163 569 176 625 q 150 386 150 514 l 542 386 l 542 411 q 526 578 542 525 q 472 647 510 631 q 357 664 435 664 m 175 840 l 175 847 l 304 1032 l 379 1032 l 510 847 l 510 840 l 463 840 l 342 986 l 221 840 l 175 840 m 435 1038 l 435 1044 l 549 1231 l 622 1231 l 622 1224 l 481 1038 l 435 1038 z "},"ệ":{"ha":692,"x_min":88,"x_max":604,"o":"m 604 333 l 150 333 q 164 149 150 207 q 224 67 178 90 q 371 44 269 44 q 476 50 417 44 q 579 63 535 56 l 579 7 q 483 -6 543 -1 q 361 -11 422 -11 q 182 19 239 -11 q 106 124 125 50 q 88 353 88 199 q 103 581 88 510 q 175 685 118 651 q 361 719 232 719 q 526 688 475 719 q 590 584 576 656 q 604 356 604 513 l 604 333 m 357 664 q 218 644 260 664 q 163 569 176 625 q 150 386 150 514 l 542 386 l 542 411 q 526 578 542 525 q 472 647 510 631 q 357 664 435 664 m 306 -187 l 306 -86 l 385 -86 l 385 -187 l 306 -187 m 179 840 l 179 847 l 308 1032 l 383 1032 l 514 847 l 514 840 l 467 840 l 346 986 l 225 840 l 179 840 z "},"ề":{"ha":692,"x_min":88,"x_max":604,"o":"m 604 333 l 150 333 q 164 149 150 207 q 224 67 178 90 q 371 44 269 44 q 476 50 417 44 q 579 63 535 56 l 579 7 q 483 -6 543 -1 q 361 -11 422 -11 q 182 19 239 -11 q 106 124 125 50 q 88 353 88 199 q 103 581 88 510 q 175 685 118 651 q 361 719 232 719 q 526 688 475 719 q 590 584 576 656 q 604 356 604 513 l 604 333 m 357 664 q 218 644 260 664 q 163 569 176 625 q 150 386 150 514 l 542 386 l 542 411 q 526 578 542 525 q 472 647 510 631 q 357 664 435 664 m 174 840 l 174 847 l 303 1032 l 378 1032 l 508 847 l 508 840 l 461 840 l 340 986 l 219 840 l 174 840 m 468 1038 l 328 1224 l 328 1231 l 401 1231 l 515 1044 l 515 1038 l 468 1038 z "},"ể":{"ha":692,"x_min":88,"x_max":613,"o":"m 604 333 l 150 333 q 164 149 150 207 q 224 67 178 90 q 371 44 269 44 q 476 50 417 44 q 579 63 535 56 l 579 7 q 483 -6 543 -1 q 361 -11 422 -11 q 182 19 239 -11 q 106 124 125 50 q 88 353 88 199 q 103 581 88 510 q 175 685 118 651 q 361 719 232 719 q 526 688 475 719 q 590 584 576 656 q 604 356 604 513 l 604 333 m 357 664 q 218 644 260 664 q 163 569 176 625 q 150 386 150 514 l 542 386 l 542 411 q 526 578 542 525 q 472 647 510 631 q 357 664 435 664 m 179 840 l 179 847 l 308 1032 l 383 1032 l 514 847 l 514 840 l 467 840 l 346 986 l 225 840 l 179 840 m 404 1050 q 416 1094 404 1082 q 460 1117 428 1107 l 489 1125 q 548 1149 535 1138 q 561 1188 561 1160 q 551 1224 561 1213 q 517 1239 540 1236 q 443 1242 494 1242 q 314 1235 393 1242 l 314 1278 q 453 1288 386 1288 q 578 1268 543 1288 q 613 1193 613 1249 q 599 1131 613 1151 q 540 1097 586 1111 l 508 1088 q 467 1074 478 1079 q 454 1061 457 1068 q 451 1036 451 1054 l 404 1036 l 404 1050 z "},"ễ":{"ha":692,"x_min":88,"x_max":604,"o":"m 604 333 l 150 333 q 164 149 150 207 q 224 67 178 90 q 371 44 269 44 q 476 50 417 44 q 579 63 535 56 l 579 7 q 483 -6 543 -1 q 361 -11 422 -11 q 182 19 239 -11 q 106 124 125 50 q 88 353 88 199 q 103 581 88 510 q 175 685 118 651 q 361 719 232 719 q 526 688 475 719 q 590 584 576 656 q 604 356 604 513 l 604 333 m 357 664 q 218 644 260 664 q 163 569 176 625 q 150 386 150 514 l 542 386 l 542 411 q 526 578 542 525 q 472 647 510 631 q 357 664 435 664 m 176 840 l 176 847 l 306 1032 l 381 1032 l 511 847 l 511 840 l 464 840 l 343 986 l 222 840 l 176 840 m 560 1272 q 544 1164 560 1193 q 476 1135 528 1135 q 414 1144 444 1135 q 333 1171 383 1153 q 267 1194 293 1186 q 215 1203 240 1203 q 181 1185 189 1203 q 174 1119 174 1168 l 129 1119 q 145 1228 129 1199 q 213 1257 161 1257 q 279 1247 246 1257 q 358 1219 313 1238 q 423 1197 396 1204 q 475 1189 450 1189 q 508 1206 501 1189 q 515 1272 515 1224 l 560 1272 z "},"ȅ":{"ha":692,"x_min":82,"x_max":604,"o":"m 604 333 l 150 333 q 164 149 150 207 q 224 67 178 90 q 371 44 269 44 q 476 50 417 44 q 579 63 535 56 l 579 7 q 483 -6 543 -1 q 361 -11 422 -11 q 182 19 239 -11 q 106 124 125 50 q 88 353 88 199 q 103 581 88 510 q 175 685 118 651 q 361 719 232 719 q 526 688 475 719 q 590 584 576 656 q 604 356 604 513 l 604 333 m 357 664 q 218 644 260 664 q 163 569 176 625 q 150 386 150 514 l 542 386 l 542 411 q 526 578 542 525 q 472 647 510 631 q 357 664 435 664 m 264 843 l 221 843 l 82 1018 l 82 1025 l 153 1025 l 264 850 l 264 843 m 492 843 l 447 843 l 308 1018 l 308 1025 l 379 1025 l 492 850 l 492 843 z "},"ë":{"ha":692,"x_min":88,"x_max":604,"o":"m 604 333 l 150 333 q 164 149 150 207 q 224 67 178 90 q 371 44 269 44 q 476 50 417 44 q 579 63 535 56 l 579 7 q 483 -6 543 -1 q 361 -11 422 -11 q 182 19 239 -11 q 106 124 125 50 q 88 353 88 199 q 103 581 88 510 q 175 685 118 651 q 361 719 232 719 q 526 688 475 719 q 590 584 576 656 q 604 356 604 513 l 604 333 m 357 664 q 218 644 260 664 q 163 569 176 625 q 150 386 150 514 l 542 386 l 542 411 q 526 578 542 525 q 472 647 510 631 q 357 664 435 664 m 190 922 l 190 1014 l 260 1014 l 260 922 l 190 922 m 438 922 l 438 1014 l 507 1014 l 507 922 l 438 922 z "},"ė":{"ha":692,"x_min":88,"x_max":604,"o":"m 604 333 l 150 333 q 164 149 150 207 q 224 67 178 90 q 371 44 269 44 q 476 50 417 44 q 579 63 535 56 l 579 7 q 483 -6 543 -1 q 361 -11 422 -11 q 182 19 239 -11 q 106 124 125 50 q 88 353 88 199 q 103 581 88 510 q 175 685 118 651 q 361 719 232 719 q 526 688 475 719 q 590 584 576 656 q 604 356 604 513 l 604 333 m 357 664 q 218 644 260 664 q 163 569 176 625 q 150 386 150 514 l 542 386 l 542 411 q 526 578 542 525 q 472 647 510 631 q 357 664 435 664 m 311 924 l 311 1015 l 379 1015 l 379 924 l 311 924 z "},"ẹ":{"ha":692,"x_min":88,"x_max":604,"o":"m 604 333 l 150 333 q 164 149 150 207 q 224 67 178 90 q 371 44 269 44 q 476 50 417 44 q 579 63 535 56 l 579 7 q 483 -6 543 -1 q 361 -11 422 -11 q 182 19 239 -11 q 106 124 125 50 q 88 353 88 199 q 103 581 88 510 q 175 685 118 651 q 361 719 232 719 q 526 688 475 719 q 590 584 576 656 q 604 356 604 513 l 604 333 m 357 664 q 218 644 260 664 q 163 569 176 625 q 150 386 150 514 l 542 386 l 542 411 q 526 578 542 525 q 472 647 510 631 q 357 664 435 664 m 306 -187 l 306 -86 l 385 -86 l 385 -187 l 306 -187 z "},"è":{"ha":692,"x_min":88,"x_max":604,"o":"m 604 333 l 150 333 q 164 149 150 207 q 224 67 178 90 q 371 44 269 44 q 476 50 417 44 q 579 63 535 56 l 579 7 q 483 -6 543 -1 q 361 -11 422 -11 q 182 19 239 -11 q 106 124 125 50 q 88 353 88 199 q 103 581 88 510 q 175 685 118 651 q 361 719 232 719 q 526 688 475 719 q 590 584 576 656 q 604 356 604 513 l 604 333 m 357 664 q 218 644 260 664 q 163 569 176 625 q 150 386 150 514 l 542 386 l 542 411 q 526 578 542 525 q 472 647 510 631 q 357 664 435 664 m 344 839 l 204 1025 l 204 1032 l 278 1032 l 392 846 l 392 839 l 344 839 z "},"ẻ":{"ha":692,"x_min":88,"x_max":604,"o":"m 604 333 l 150 333 q 164 149 150 207 q 224 67 178 90 q 371 44 269 44 q 476 50 417 44 q 579 63 535 56 l 579 7 q 483 -6 543 -1 q 361 -11 422 -11 q 182 19 239 -11 q 106 124 125 50 q 88 353 88 199 q 103 581 88 510 q 175 685 118 651 q 361 719 232 719 q 526 688 475 719 q 590 584 576 656 q 604 356 604 513 l 604 333 m 357 664 q 218 644 260 664 q 163 569 176 625 q 150 386 150 514 l 542 386 l 542 411 q 526 578 542 525 q 472 647 510 631 q 357 664 435 664 m 286 858 q 298 903 286 890 q 342 925 310 915 l 371 933 q 430 957 417 946 q 443 996 443 968 q 433 1033 443 1021 q 399 1047 422 1044 q 325 1050 376 1050 q 196 1043 275 1050 l 196 1086 q 335 1096 268 1096 q 460 1076 425 1096 q 494 1001 494 1057 q 481 940 494 960 q 422 906 468 919 l 390 896 q 349 882 360 888 q 336 869 339 876 q 333 844 333 863 l 286 844 l 286 858 z "},"ȇ":{"ha":692,"x_min":88,"x_max":604,"o":"m 604 333 l 150 333 q 164 149 150 207 q 224 67 178 90 q 371 44 269 44 q 476 50 417 44 q 579 63 535 56 l 579 7 q 483 -6 543 -1 q 361 -11 422 -11 q 182 19 239 -11 q 106 124 125 50 q 88 353 88 199 q 103 581 88 510 q 175 685 118 651 q 361 719 232 719 q 526 688 475 719 q 590 584 576 656 q 604 356 604 513 l 604 333 m 357 664 q 218 644 260 664 q 163 569 176 625 q 150 386 150 514 l 542 386 l 542 411 q 526 578 542 525 q 472 647 510 631 q 357 664 435 664 m 181 844 q 189 954 181 915 q 233 1017 197 993 q 346 1040 269 1040 q 458 1017 422 1040 q 501 955 493 993 q 510 844 510 917 l 460 844 q 454 933 460 904 q 424 978 449 963 q 346 994 400 994 q 267 978 292 994 q 237 933 243 963 q 231 844 231 903 l 181 844 z "},"ē":{"ha":692,"x_min":88,"x_max":604,"o":"m 604 333 l 150 333 q 164 149 150 207 q 224 67 178 90 q 371 44 269 44 q 476 50 417 44 q 579 63 535 56 l 579 7 q 483 -6 543 -1 q 361 -11 422 -11 q 182 19 239 -11 q 106 124 125 50 q 88 353 88 199 q 103 581 88 510 q 175 685 118 651 q 361 719 232 719 q 526 688 475 719 q 590 584 576 656 q 604 356 604 513 l 604 333 m 357 664 q 218 644 260 664 q 163 569 176 625 q 150 386 150 514 l 542 386 l 542 411 q 526 578 542 525 q 472 647 510 631 q 357 664 435 664 m 200 969 l 200 1031 l 490 1031 l 490 969 l 200 969 z "},"ę":{"ha":692,"x_min":88,"x_max":604,"o":"m 604 333 l 150 333 q 164 149 150 207 q 224 67 178 90 q 371 44 269 44 q 476 50 417 44 q 579 63 535 56 l 579 7 q 513 -69 544 -19 q 482 -161 482 -119 q 497 -204 482 -187 q 546 -221 513 -221 l 571 -219 l 571 -271 q 535 -272 557 -272 q 451 -244 478 -272 q 424 -174 424 -217 q 447 -87 424 -132 q 510 -3 471 -42 q 361 -11 443 -11 q 182 19 239 -11 q 106 124 125 50 q 88 353 88 199 q 103 581 88 510 q 175 685 118 651 q 361 719 232 719 q 526 688 475 719 q 590 584 576 656 q 604 356 604 513 l 604 333 m 357 664 q 218 644 260 664 q 163 569 176 625 q 150 386 150 514 l 542 386 l 542 411 q 526 578 542 525 q 472 647 510 631 q 357 664 435 664 z "},"ẽ":{"ha":692,"x_min":88,"x_max":604,"o":"m 604 333 l 150 333 q 164 149 150 207 q 224 67 178 90 q 371 44 269 44 q 476 50 417 44 q 579 63 535 56 l 579 7 q 483 -6 543 -1 q 361 -11 422 -11 q 182 19 239 -11 q 106 124 125 50 q 88 353 88 199 q 103 581 88 510 q 175 685 118 651 q 361 719 232 719 q 526 688 475 719 q 590 584 576 656 q 604 356 604 513 l 604 333 m 357 664 q 218 644 260 664 q 163 569 176 625 q 150 386 150 514 l 542 386 l 542 411 q 526 578 542 525 q 472 647 510 631 q 357 664 435 664 m 560 1032 q 544 924 560 953 q 476 894 528 894 q 414 903 444 894 q 333 931 383 913 q 267 954 293 946 q 215 963 240 963 q 181 945 189 963 q 174 879 174 928 l 129 879 q 145 988 129 958 q 213 1017 161 1017 q 279 1007 246 1017 q 358 979 313 997 q 423 956 396 964 q 475 949 450 949 q 508 966 501 949 q 515 1032 515 983 l 560 1032 z "},"ə":{"ha":692,"x_min":88,"x_max":604,"o":"m 331 719 q 510 689 453 719 q 585 584 567 658 q 604 356 604 510 q 589 128 604 199 q 517 23 574 57 q 331 -11 460 -11 q 166 21 217 -11 q 101 124 115 53 q 88 353 88 196 l 88 375 l 542 375 q 528 560 542 501 q 468 641 514 618 q 321 664 422 664 q 216 658 275 664 q 113 646 157 653 l 113 701 q 209 715 149 710 q 331 719 269 719 m 335 44 q 474 64 432 44 q 528 139 515 83 q 542 322 542 194 l 150 322 l 150 297 q 166 131 150 183 q 219 61 182 78 q 335 44 257 44 z "},"f":{"ha":431,"x_min":36,"x_max":390,"o":"m 165 653 l 36 653 l 36 708 l 165 708 l 165 857 q 189 972 165 935 q 258 1020 213 1008 q 390 1032 304 1032 l 390 981 q 290 972 324 981 q 242 939 256 963 q 228 868 228 915 l 228 708 l 390 708 l 390 653 l 228 653 l 228 0 l 165 0 l 165 653 z "},"g":{"ha":732,"x_min":88,"x_max":614,"o":"m 336 -282 q 111 -272 214 -282 l 111 -217 q 326 -225 211 -225 q 475 -199 428 -225 q 537 -112 522 -174 q 551 79 551 -51 l 551 97 l 546 97 q 474 15 525 39 q 333 -10 422 -10 q 176 20 228 -10 q 106 125 125 50 q 88 354 88 200 q 107 584 88 508 q 178 690 126 660 q 333 719 229 719 q 473 695 417 719 q 551 600 529 671 l 557 600 l 563 708 l 614 708 l 614 103 q 594 -132 614 -53 q 517 -247 575 -211 q 336 -282 458 -282 m 351 47 q 472 72 428 47 q 533 151 517 97 q 548 234 544 189 q 551 354 551 279 q 549 474 551 432 q 538 547 547 515 q 474 636 519 610 q 351 663 429 663 q 219 642 260 663 q 164 558 178 621 q 150 354 150 496 q 164 151 150 213 q 218 68 178 89 q 351 47 258 47 z "},"ǵ":{"ha":732,"x_min":88,"x_max":614,"o":"m 336 -282 q 111 -272 214 -282 l 111 -217 q 326 -225 211 -225 q 475 -199 428 -225 q 537 -112 522 -174 q 551 79 551 -51 l 551 97 l 546 97 q 474 15 525 39 q 333 -10 422 -10 q 176 20 228 -10 q 106 125 125 50 q 88 354 88 200 q 107 584 88 508 q 178 690 126 660 q 333 719 229 719 q 473 695 417 719 q 551 600 529 671 l 557 600 l 563 708 l 614 708 l 614 103 q 594 -132 614 -53 q 517 -247 575 -211 q 336 -282 458 -282 m 351 47 q 472 72 428 47 q 533 151 517 97 q 548 234 544 189 q 551 354 551 279 q 549 474 551 432 q 538 547 547 515 q 474 636 519 610 q 351 663 429 663 q 219 642 260 663 q 164 558 178 621 q 150 354 150 496 q 164 151 150 213 q 218 68 178 89 q 351 47 258 47 m 338 839 l 338 846 l 451 1032 l 525 1032 l 525 1025 l 383 839 l 338 839 z "},"ğ":{"ha":732,"x_min":88,"x_max":614,"o":"m 336 -282 q 111 -272 214 -282 l 111 -217 q 326 -225 211 -225 q 475 -199 428 -225 q 537 -112 522 -174 q 551 79 551 -51 l 551 97 l 546 97 q 474 15 525 39 q 333 -10 422 -10 q 176 20 228 -10 q 106 125 125 50 q 88 354 88 200 q 107 584 88 508 q 178 690 126 660 q 333 719 229 719 q 473 695 417 719 q 551 600 529 671 l 557 600 l 563 708 l 614 708 l 614 103 q 594 -132 614 -53 q 517 -247 575 -211 q 336 -282 458 -282 m 351 47 q 472 72 428 47 q 533 151 517 97 q 548 234 544 189 q 551 354 551 279 q 549 474 551 432 q 538 547 547 515 q 474 636 519 610 q 351 663 429 663 q 219 642 260 663 q 164 558 178 621 q 150 354 150 496 q 164 151 150 213 q 218 68 178 89 q 351 47 258 47 m 529 1032 q 521 922 529 961 q 476 860 513 883 q 364 836 440 836 q 252 860 288 836 q 208 922 217 883 q 200 1032 200 960 l 250 1032 q 256 943 250 972 q 285 898 261 914 q 364 882 310 882 q 442 898 418 882 q 473 944 467 914 q 479 1032 479 974 l 529 1032 z "},"ǧ":{"ha":732,"x_min":88,"x_max":614,"o":"m 336 -282 q 111 -272 214 -282 l 111 -217 q 326 -225 211 -225 q 475 -199 428 -225 q 537 -112 522 -174 q 551 79 551 -51 l 551 97 l 546 97 q 474 15 525 39 q 333 -10 422 -10 q 176 20 228 -10 q 106 125 125 50 q 88 354 88 200 q 107 584 88 508 q 178 690 126 660 q 333 719 229 719 q 473 695 417 719 q 551 600 529 671 l 557 600 l 563 708 l 614 708 l 614 103 q 594 -132 614 -53 q 517 -247 575 -211 q 336 -282 458 -282 m 351 47 q 472 72 428 47 q 533 151 517 97 q 548 234 544 189 q 551 354 551 279 q 549 474 551 432 q 538 547 547 515 q 474 636 519 610 q 351 663 429 663 q 219 642 260 663 q 164 558 178 621 q 150 354 150 496 q 164 151 150 213 q 218 68 178 89 q 351 47 258 47 m 328 840 l 197 1025 l 197 1032 l 244 1032 l 365 886 l 486 1032 l 533 1032 l 533 1025 l 403 840 l 328 840 z "},"ĝ":{"ha":732,"x_min":88,"x_max":614,"o":"m 336 -282 q 111 -272 214 -282 l 111 -217 q 326 -225 211 -225 q 475 -199 428 -225 q 537 -112 522 -174 q 551 79 551 -51 l 551 97 l 546 97 q 474 15 525 39 q 333 -10 422 -10 q 176 20 228 -10 q 106 125 125 50 q 88 354 88 200 q 107 584 88 508 q 178 690 126 660 q 333 719 229 719 q 473 695 417 719 q 551 600 529 671 l 557 600 l 563 708 l 614 708 l 614 103 q 594 -132 614 -53 q 517 -247 575 -211 q 336 -282 458 -282 m 351 47 q 472 72 428 47 q 533 151 517 97 q 548 234 544 189 q 551 354 551 279 q 549 474 551 432 q 538 547 547 515 q 474 636 519 610 q 351 663 429 663 q 219 642 260 663 q 164 558 178 621 q 150 354 150 496 q 164 151 150 213 q 218 68 178 89 q 351 47 258 47 m 199 840 l 199 847 l 328 1032 l 403 1032 l 533 847 l 533 840 l 486 840 l 365 986 l 244 840 l 199 840 z "},"ģ":{"ha":732,"x_min":88,"x_max":614,"o":"m 336 -282 q 111 -272 214 -282 l 111 -217 q 326 -225 211 -225 q 475 -199 428 -225 q 537 -112 522 -174 q 551 79 551 -51 l 551 97 l 546 97 q 474 15 525 39 q 333 -10 422 -10 q 176 20 228 -10 q 106 125 125 50 q 88 354 88 200 q 107 584 88 508 q 178 690 126 660 q 333 719 229 719 q 473 695 417 719 q 551 600 529 671 l 557 600 l 563 708 l 614 708 l 614 103 q 594 -132 614 -53 q 517 -247 575 -211 q 336 -282 458 -282 m 351 47 q 472 72 428 47 q 533 151 517 97 q 548 234 544 189 q 551 354 551 279 q 549 474 551 432 q 538 547 547 515 q 474 636 519 610 q 351 663 429 663 q 219 642 260 663 q 164 558 178 621 q 150 354 150 496 q 164 151 150 213 q 218 68 178 89 q 351 47 258 47 m 440 1049 q 384 1033 396 1049 q 372 964 372 1017 l 372 940 l 404 940 l 404 842 l 326 842 l 326 947 q 335 1032 326 1004 q 368 1072 344 1060 q 440 1083 392 1083 l 440 1049 z "},"ġ":{"ha":732,"x_min":88,"x_max":614,"o":"m 336 -282 q 111 -272 214 -282 l 111 -217 q 326 -225 211 -225 q 475 -199 428 -225 q 537 -112 522 -174 q 551 79 551 -51 l 551 97 l 546 97 q 474 15 525 39 q 333 -10 422 -10 q 176 20 228 -10 q 106 125 125 50 q 88 354 88 200 q 107 584 88 508 q 178 690 126 660 q 333 719 229 719 q 473 695 417 719 q 551 600 529 671 l 557 600 l 563 708 l 614 708 l 614 103 q 594 -132 614 -53 q 517 -247 575 -211 q 336 -282 458 -282 m 351 47 q 472 72 428 47 q 533 151 517 97 q 548 234 544 189 q 551 354 551 279 q 549 474 551 432 q 538 547 547 515 q 474 636 519 610 q 351 663 429 663 q 219 642 260 663 q 164 558 178 621 q 150 354 150 496 q 164 151 150 213 q 218 68 178 89 q 351 47 258 47 m 331 924 l 331 1015 l 399 1015 l 399 924 l 331 924 z "},"h":{"ha":739,"x_min":117,"x_max":624,"o":"m 561 431 q 548 583 561 536 q 498 647 535 631 q 379 663 461 663 q 242 626 285 663 q 189 531 199 589 q 179 367 179 474 l 179 0 l 117 0 l 117 1032 l 179 1032 l 179 613 l 185 613 q 399 719 225 719 q 542 692 494 719 q 607 609 590 665 q 624 446 624 553 l 624 0 l 561 0 l 561 431 z "},"ħ":{"ha":739,"x_min":29,"x_max":624,"o":"m 399 719 q 542 692 494 719 q 607 609 590 665 q 624 446 624 553 l 624 0 l 561 0 l 561 431 q 548 583 561 536 q 498 647 535 631 q 379 663 461 663 q 242 626 285 663 q 189 531 199 589 q 179 367 179 474 l 179 0 l 117 0 l 117 900 l 29 900 l 29 956 l 117 956 l 117 1032 l 179 1032 l 179 956 l 368 956 l 368 900 l 179 900 l 179 613 l 185 613 q 399 719 225 719 z "},"ĥ":{"ha":739,"x_min":-18,"x_max":624,"o":"m 561 431 q 548 583 561 536 q 498 647 535 631 q 379 663 461 663 q 242 626 285 663 q 189 531 199 589 q 179 367 179 474 l 179 0 l 117 0 l 117 1032 l 179 1032 l 179 613 l 185 613 q 399 719 225 719 q 542 692 494 719 q 607 609 590 665 q 624 446 624 553 l 624 0 l 561 0 l 561 431 m -18 1088 l -18 1094 l 111 1279 l 186 1279 l 317 1094 l 317 1088 l 269 1088 l 149 1233 l 28 1088 l -18 1088 z "},"ḥ":{"ha":739,"x_min":117,"x_max":624,"o":"m 561 431 q 548 583 561 536 q 498 647 535 631 q 379 663 461 663 q 242 626 285 663 q 189 531 199 589 q 179 367 179 474 l 179 0 l 117 0 l 117 1032 l 179 1032 l 179 613 l 185 613 q 399 719 225 719 q 542 692 494 719 q 607 609 590 665 q 624 446 624 553 l 624 0 l 561 0 l 561 431 m 329 -187 l 329 -86 l 408 -86 l 408 -187 l 329 -187 z "},"i":{"ha":296,"x_min":113,"x_max":183,"o":"m 113 939 l 113 1032 l 183 1032 l 183 939 l 113 939 m 117 0 l 117 708 l 179 708 l 179 0 l 117 0 z "},"ı":{"ha":296,"x_min":117,"x_max":179,"o":"m 117 0 l 117 708 l 179 708 l 179 0 l 117 0 z "},"í":{"ha":296,"x_min":115,"x_max":303,"o":"m 117 0 l 117 708 l 179 708 l 179 0 l 117 0 m 115 839 l 115 846 l 229 1032 l 303 1032 l 303 1025 l 161 839 l 115 839 z "},"ĭ":{"ha":296,"x_min":-17,"x_max":313,"o":"m 117 0 l 117 708 l 179 708 l 179 0 l 117 0 m 313 1032 q 304 922 313 961 q 260 860 296 883 q 147 836 224 836 q 35 860 71 836 q -8 922 0 883 q -17 1032 -17 960 l 33 1032 q 39 943 33 972 q 69 898 44 914 q 147 882 93 882 q 226 898 201 882 q 256 944 250 914 q 263 1032 263 974 l 313 1032 z "},"ǐ":{"ha":296,"x_min":-19,"x_max":317,"o":"m 117 0 l 117 708 l 179 708 l 179 0 l 117 0 m 111 840 l -19 1025 l -19 1032 l 28 1032 l 149 886 l 269 1032 l 317 1032 l 317 1025 l 186 840 l 111 840 z "},"î":{"ha":296,"x_min":-18,"x_max":317,"o":"m 117 0 l 117 708 l 179 708 l 179 0 l 117 0 m -18 840 l -18 847 l 111 1032 l 186 1032 l 317 847 l 317 840 l 269 840 l 149 986 l 28 840 l -18 840 z "},"ȉ":{"ha":296,"x_min":-115,"x_max":294,"o":"m 117 0 l 117 708 l 179 708 l 179 0 l 117 0 m 67 843 l 24 843 l -115 1018 l -115 1025 l -44 1025 l 67 850 l 67 843 m 294 843 l 250 843 l 111 1018 l 111 1025 l 182 1025 l 294 850 l 294 843 z "},"ï":{"ha":296,"x_min":-10,"x_max":307,"o":"m 117 0 l 117 708 l 179 708 l 179 0 l 117 0 m -10 922 l -10 1014 l 60 1014 l 60 922 l -10 922 m 238 922 l 238 1014 l 307 1014 l 307 922 l 238 922 z "},"ị":{"ha":296,"x_min":83,"x_max":183,"o":"m 113 939 l 113 1032 l 183 1032 l 183 939 l 113 939 m 117 0 l 117 708 l 179 708 l 179 0 l 117 0 m 83 -187 l 83 -86 l 163 -86 l 163 -187 l 83 -187 z "},"ì":{"ha":296,"x_min":-4,"x_max":183,"o":"m 117 0 l 117 708 l 179 708 l 179 0 l 117 0 m 136 839 l -4 1025 l -4 1032 l 69 1032 l 183 846 l 183 839 l 136 839 z "},"ỉ":{"ha":296,"x_min":-1,"x_max":297,"o":"m 117 0 l 117 708 l 179 708 l 179 0 l 117 0 m 89 858 q 101 903 89 890 q 144 925 113 915 l 174 933 q 233 957 219 946 q 246 996 246 968 q 235 1033 246 1021 q 202 1047 225 1044 q 128 1050 179 1050 q -1 1043 78 1050 l -1 1086 q 138 1096 71 1096 q 263 1076 228 1096 q 297 1001 297 1057 q 284 940 297 960 q 225 906 271 919 l 193 896 q 152 882 163 888 q 139 869 142 876 q 136 844 136 863 l 89 844 l 89 858 z "},"ȋ":{"ha":296,"x_min":-17,"x_max":313,"o":"m 117 0 l 117 708 l 179 708 l 179 0 l 117 0 m -17 844 q -8 954 -17 915 q 36 1017 0 993 q 149 1040 72 1040 q 260 1017 225 1040 q 304 955 296 993 q 313 844 313 917 l 263 844 q 257 933 263 904 q 227 978 251 963 q 149 994 203 994 q 70 978 94 994 q 40 933 46 963 q 33 844 33 903 l -17 844 z "},"ĳ":{"ha":592,"x_min":113,"x_max":479,"o":"m 113 939 l 113 1032 l 183 1032 l 183 939 l 113 939 m 117 0 l 117 708 l 179 708 l 179 0 l 117 0 m 408 939 l 408 1032 l 479 1032 l 479 939 l 408 939 m 292 -221 q 372 -214 347 -221 q 405 -192 397 -207 q 413 -143 413 -176 l 413 708 l 475 708 l 475 -125 q 457 -225 475 -193 q 402 -265 439 -257 q 292 -274 365 -274 l 292 -221 z "},"ī":{"ha":296,"x_min":3,"x_max":293,"o":"m 117 0 l 117 708 l 179 708 l 179 0 l 117 0 m 3 969 l 3 1031 l 293 1031 l 293 969 l 3 969 z "},"į":{"ha":296,"x_min":35,"x_max":183,"o":"m 114 1015 l 183 1015 l 183 924 l 114 924 l 114 1015 m 93 -160 q 157 -221 93 -221 q 181 -219 169 -221 l 181 -271 q 146 -272 167 -272 q 61 -244 88 -272 q 35 -171 35 -217 q 58 -84 35 -131 q 119 0 82 -37 l 117 0 l 117 708 l 179 708 l 179 0 q 121 -74 149 -26 q 93 -160 93 -121 z "},"ĩ":{"ha":296,"x_min":-68,"x_max":363,"o":"m 117 0 l 117 708 l 179 708 l 179 0 l 117 0 m 363 1032 q 347 924 363 953 q 279 894 331 894 q 217 903 247 894 q 136 931 186 913 q 69 954 96 946 q 18 963 43 963 q -16 945 -8 963 q -24 879 -24 928 l -68 879 q -52 988 -68 958 q 15 1017 -36 1017 q 82 1007 49 1017 q 161 979 115 997 q 226 956 199 964 q 278 949 253 949 q 311 966 304 949 q 318 1032 318 983 l 363 1032 z "},"j":{"ha":296,"x_min":-4,"x_max":183,"o":"m 113 939 l 113 1032 l 183 1032 l 183 939 l 113 939 m -4 -221 q 76 -214 51 -221 q 109 -192 101 -207 q 117 -143 117 -176 l 117 708 l 179 708 l 179 -125 q 161 -225 179 -193 q 106 -265 143 -257 q -4 -274 69 -274 l -4 -221 z "},"ȷ":{"ha":296,"x_min":-4,"x_max":179,"o":"m -4 -221 q 76 -214 51 -221 q 109 -192 101 -207 q 117 -143 117 -176 l 117 708 l 179 708 l 179 -125 q 161 -225 179 -193 q 106 -265 143 -257 q -4 -274 69 -274 l -4 -221 z "},"ĵ":{"ha":296,"x_min":-18,"x_max":317,"o":"m -4 -221 q 76 -214 51 -221 q 109 -192 101 -207 q 117 -143 117 -176 l 117 708 l 179 708 l 179 -125 q 161 -225 179 -193 q 106 -265 143 -257 q -4 -274 69 -274 l -4 -221 m -18 840 l -18 847 l 111 1032 l 186 1032 l 317 847 l 317 840 l 269 840 l 149 986 l 28 840 l -18 840 z "},"k":{"ha":643,"x_min":117,"x_max":600,"o":"m 525 0 l 281 331 l 179 331 l 179 0 l 117 0 l 117 1032 l 179 1032 l 179 389 l 281 389 l 522 708 l 596 708 l 332 364 l 600 0 l 525 0 z "},"ķ":{"ha":643,"x_min":117,"x_max":600,"o":"m 525 0 l 281 331 l 179 331 l 179 0 l 117 0 l 117 1032 l 179 1032 l 179 389 l 281 389 l 522 708 l 596 708 l 332 364 l 600 0 l 525 0 m 265 -293 q 322 -277 310 -293 q 333 -208 333 -261 l 333 -185 l 301 -185 l 301 -86 l 379 -86 l 379 -192 q 370 -276 379 -249 q 338 -316 361 -304 q 265 -328 314 -328 l 265 -293 z "},"ĸ":{"ha":643,"x_min":117,"x_max":600,"o":"m 525 0 l 281 331 l 179 331 l 179 0 l 117 0 l 117 708 l 179 708 l 179 389 l 281 389 l 522 708 l 596 708 l 332 364 l 600 0 l 525 0 z "},"l":{"ha":296,"x_min":117,"x_max":179,"o":"m 117 0 l 117 1032 l 179 1032 l 179 0 l 117 0 z "},"ĺ":{"ha":296,"x_min":117,"x_max":308,"o":"m 117 0 l 117 1032 l 179 1032 l 179 0 l 117 0 m 121 1086 l 121 1093 l 235 1279 l 308 1279 l 308 1272 l 167 1086 l 121 1086 z "},"ľ":{"ha":301,"x_min":117,"x_max":329,"o":"m 117 0 l 117 1032 l 179 1032 l 179 0 l 117 0 m 244 626 l 263 836 l 263 956 l 329 956 l 329 836 l 288 626 l 244 626 z "},"ļ":{"ha":296,"x_min":92,"x_max":206,"o":"m 117 0 l 117 1032 l 179 1032 l 179 0 l 117 0 m 92 -293 q 148 -277 136 -293 q 160 -208 160 -261 l 160 -185 l 128 -185 l 128 -86 l 206 -86 l 206 -192 q 197 -276 206 -249 q 164 -316 188 -304 q 92 -328 140 -328 l 92 -293 z "},"ŀ":{"ha":324,"x_min":117,"x_max":349,"o":"m 117 0 l 117 1032 l 179 1032 l 179 0 l 117 0 m 269 365 l 269 467 l 349 467 l 349 365 l 269 365 z "},"ǉ":{"ha":592,"x_min":117,"x_max":479,"o":"m 117 0 l 117 1032 l 179 1032 l 179 0 l 117 0 m 408 939 l 408 1032 l 479 1032 l 479 939 l 408 939 m 292 -221 q 372 -214 347 -221 q 405 -192 397 -207 q 413 -143 413 -176 l 413 708 l 475 708 l 475 -125 q 457 -225 475 -193 q 402 -265 439 -257 q 292 -274 365 -274 l 292 -221 z "},"ł":{"ha":300,"x_min":36,"x_max":267,"o":"m 117 0 l 117 463 l 36 433 l 36 493 l 117 521 l 117 1032 l 179 1032 l 179 544 l 267 575 l 267 515 l 179 485 l 179 0 l 117 0 z "},"m":{"ha":1107,"x_min":117,"x_max":992,"o":"m 929 431 q 917 583 929 536 q 874 647 906 631 q 768 663 842 663 q 643 628 682 663 q 595 537 604 594 q 586 367 586 479 l 586 0 l 524 0 l 524 431 q 512 583 524 536 q 467 647 500 631 q 363 663 435 663 q 237 626 276 663 q 188 532 197 590 q 179 367 179 474 l 179 0 l 117 0 l 117 708 l 169 708 l 174 600 l 181 600 q 241 687 196 654 q 379 719 286 719 q 515 692 471 719 q 574 600 558 664 l 581 600 q 644 687 597 654 q 785 719 690 719 q 917 692 872 719 q 976 608 961 665 q 992 446 992 551 l 992 0 l 929 0 l 929 431 z "},"n":{"ha":739,"x_min":117,"x_max":624,"o":"m 561 431 q 548 583 561 536 q 498 647 535 631 q 379 663 461 663 q 242 626 285 663 q 189 531 199 589 q 179 367 179 474 l 179 0 l 117 0 l 117 708 l 169 708 l 174 600 l 179 600 q 247 688 197 656 q 399 719 296 719 q 542 692 494 719 q 607 609 590 665 q 624 446 624 553 l 624 0 l 561 0 l 561 431 z "},"ń":{"ha":739,"x_min":117,"x_max":624,"o":"m 561 431 q 548 583 561 536 q 498 647 535 631 q 379 663 461 663 q 242 626 285 663 q 189 531 199 589 q 179 367 179 474 l 179 0 l 117 0 l 117 708 l 169 708 l 174 600 l 179 600 q 247 688 197 656 q 399 719 296 719 q 542 692 494 719 q 607 609 590 665 q 624 446 624 553 l 624 0 l 561 0 l 561 431 m 342 839 l 342 846 l 456 1032 l 529 1032 l 529 1025 l 388 839 l 342 839 z "},"ŉ":{"ha":754,"x_min":7,"x_max":639,"o":"m 7 826 q 52 834 38 826 q 71 859 67 842 q 75 914 75 876 l 75 938 l 43 938 l 43 1032 l 121 1032 l 121 931 q 112 844 121 872 q 79 803 103 815 q 7 792 56 792 l 7 826 m 576 431 q 563 583 576 536 q 513 647 550 631 q 394 663 476 663 q 257 626 300 663 q 204 531 214 589 q 194 367 194 474 l 194 0 l 132 0 l 132 708 l 185 708 l 189 600 l 194 600 q 262 688 213 656 q 414 719 311 719 q 558 692 510 719 q 622 609 606 665 q 639 446 639 553 l 639 0 l 576 0 l 576 431 z "},"ň":{"ha":739,"x_min":117,"x_max":624,"o":"m 561 431 q 548 583 561 536 q 498 647 535 631 q 379 663 461 663 q 242 626 285 663 q 189 531 199 589 q 179 367 179 474 l 179 0 l 117 0 l 117 708 l 169 708 l 174 600 l 179 600 q 247 688 197 656 q 399 719 296 719 q 542 692 494 719 q 607 609 590 665 q 624 446 624 553 l 624 0 l 561 0 l 561 431 m 332 840 l 201 1025 l 201 1032 l 249 1032 l 369 886 l 490 1032 l 538 1032 l 538 1025 l 407 840 l 332 840 z "},"ņ":{"ha":739,"x_min":117,"x_max":624,"o":"m 561 431 q 548 583 561 536 q 498 647 535 631 q 379 663 461 663 q 242 626 285 663 q 189 531 199 589 q 179 367 179 474 l 179 0 l 117 0 l 117 708 l 169 708 l 174 600 l 179 600 q 247 688 197 656 q 399 719 296 719 q 542 692 494 719 q 607 609 590 665 q 624 446 624 553 l 624 0 l 561 0 l 561 431 m 313 -293 q 369 -277 357 -293 q 381 -208 381 -261 l 381 -185 l 349 -185 l 349 -86 l 426 -86 l 426 -192 q 417 -276 426 -249 q 385 -316 408 -304 q 313 -328 361 -328 l 313 -293 z "},"ṅ":{"ha":739,"x_min":117,"x_max":624,"o":"m 561 431 q 548 583 561 536 q 498 647 535 631 q 379 663 461 663 q 242 626 285 663 q 189 531 199 589 q 179 367 179 474 l 179 0 l 117 0 l 117 708 l 169 708 l 174 600 l 179 600 q 247 688 197 656 q 399 719 296 719 q 542 692 494 719 q 607 609 590 665 q 624 446 624 553 l 624 0 l 561 0 l 561 431 m 335 924 l 335 1015 l 403 1015 l 403 924 l 335 924 z "},"ŋ":{"ha":739,"x_min":117,"x_max":624,"o":"m 399 719 q 542 692 494 719 q 607 609 590 665 q 624 446 624 553 l 624 -125 q 606 -225 624 -193 q 551 -265 588 -257 q 440 -274 514 -274 l 440 -221 q 521 -214 496 -221 q 553 -192 546 -207 q 561 -143 561 -176 l 561 431 q 548 583 561 536 q 498 647 535 631 q 379 663 461 663 q 242 626 285 663 q 189 531 199 589 q 179 367 179 474 l 179 0 l 117 0 l 117 708 l 169 708 l 174 600 l 179 600 q 247 688 197 656 q 399 719 296 719 z "},"ɲ":{"ha":739,"x_min":-4,"x_max":624,"o":"m -4 -221 q 76 -214 51 -221 q 109 -192 101 -207 q 117 -143 117 -176 l 117 708 l 169 708 l 174 600 l 179 600 q 247 688 197 656 q 399 719 296 719 q 542 692 494 719 q 607 609 590 665 q 624 446 624 553 l 624 0 l 561 0 l 561 431 q 548 583 561 536 q 498 647 535 631 q 379 663 461 663 q 242 626 285 663 q 189 533 199 590 q 179 368 179 475 l 179 -125 q 161 -225 179 -193 q 106 -265 143 -257 q -4 -274 69 -274 l -4 -221 z "},"ǌ":{"ha":1035,"x_min":117,"x_max":922,"o":"m 561 431 q 548 583 561 536 q 498 647 535 631 q 379 663 461 663 q 242 626 285 663 q 189 531 199 589 q 179 367 179 474 l 179 0 l 117 0 l 117 708 l 169 708 l 174 600 l 179 600 q 247 688 197 656 q 399 719 296 719 q 542 692 494 719 q 607 609 590 665 q 624 446 624 553 l 624 0 l 561 0 l 561 431 m 851 939 l 851 1032 l 922 1032 l 922 939 l 851 939 m 735 -221 q 815 -214 790 -221 q 848 -192 840 -207 q 856 -143 856 -176 l 856 708 l 918 708 l 918 -125 q 900 -225 918 -193 q 845 -265 882 -257 q 735 -274 808 -274 l 735 -221 z "},"ñ":{"ha":739,"x_min":117,"x_max":624,"o":"m 561 431 q 548 583 561 536 q 498 647 535 631 q 379 663 461 663 q 242 626 285 663 q 189 531 199 589 q 179 367 179 474 l 179 0 l 117 0 l 117 708 l 169 708 l 174 600 l 179 600 q 247 688 197 656 q 399 719 296 719 q 542 692 494 719 q 607 609 590 665 q 624 446 624 553 l 624 0 l 561 0 l 561 431 m 586 1032 q 570 924 586 953 q 503 894 554 894 q 440 903 471 894 q 360 931 410 913 q 293 954 319 946 q 242 963 267 963 q 208 945 215 963 q 200 879 200 928 l 156 879 q 172 988 156 958 q 239 1017 188 1017 q 306 1007 272 1017 q 385 979 339 997 q 449 956 422 964 q 501 949 476 949 q 535 966 528 949 q 542 1032 542 983 l 586 1032 z "},"o":{"ha":713,"x_min":88,"x_max":625,"o":"m 356 -11 q 174 17 228 -11 q 103 117 119 46 q 88 353 88 188 q 103 590 88 518 q 174 690 119 661 q 356 719 229 719 q 538 690 483 719 q 609 590 593 661 q 625 353 625 518 q 609 117 625 188 q 538 17 593 46 q 356 -11 483 -11 m 356 44 q 501 67 460 44 q 553 147 543 89 q 563 353 563 204 q 553 560 563 503 q 501 641 543 618 q 356 664 460 664 q 211 641 253 664 q 160 560 169 618 q 150 353 150 503 q 160 147 150 204 q 210 67 169 89 q 356 44 251 44 z "},"ó":{"ha":713,"x_min":88,"x_max":625,"o":"m 356 -11 q 174 17 228 -11 q 103 117 119 46 q 88 353 88 188 q 103 590 88 518 q 174 690 119 661 q 356 719 229 719 q 538 690 483 719 q 609 590 593 661 q 625 353 625 518 q 609 117 625 188 q 538 17 593 46 q 356 -11 483 -11 m 356 44 q 501 67 460 44 q 553 147 543 89 q 563 353 563 204 q 553 560 563 503 q 501 641 543 618 q 356 664 460 664 q 211 641 253 664 q 160 560 169 618 q 150 353 150 503 q 160 147 150 204 q 210 67 169 89 q 356 44 251 44 m 318 839 l 318 846 l 432 1032 l 506 1032 l 506 1025 l 364 839 l 318 839 z "},"ŏ":{"ha":713,"x_min":88,"x_max":625,"o":"m 356 -11 q 174 17 228 -11 q 103 117 119 46 q 88 353 88 188 q 103 590 88 518 q 174 690 119 661 q 356 719 229 719 q 538 690 483 719 q 609 590 593 661 q 625 353 625 518 q 609 117 625 188 q 538 17 593 46 q 356 -11 483 -11 m 356 44 q 501 67 460 44 q 553 147 543 89 q 563 353 563 204 q 553 560 563 503 q 501 641 543 618 q 356 664 460 664 q 211 641 253 664 q 160 560 169 618 q 150 353 150 503 q 160 147 150 204 q 210 67 169 89 q 356 44 251 44 m 519 1032 q 511 922 519 961 q 467 860 503 883 q 354 836 431 836 q 242 860 278 836 q 199 922 207 883 q 190 1032 190 960 l 240 1032 q 246 943 240 972 q 276 898 251 914 q 354 882 300 882 q 433 898 408 882 q 463 944 457 914 q 469 1032 469 974 l 519 1032 z "},"ǒ":{"ha":713,"x_min":88,"x_max":625,"o":"m 356 -11 q 174 17 228 -11 q 103 117 119 46 q 88 353 88 188 q 103 590 88 518 q 174 690 119 661 q 356 719 229 719 q 538 690 483 719 q 609 590 593 661 q 625 353 625 518 q 609 117 625 188 q 538 17 593 46 q 356 -11 483 -11 m 356 44 q 501 67 460 44 q 553 147 543 89 q 563 353 563 204 q 553 560 563 503 q 501 641 543 618 q 356 664 460 664 q 211 641 253 664 q 160 560 169 618 q 150 353 150 503 q 160 147 150 204 q 210 67 169 89 q 356 44 251 44 m 318 840 l 188 1025 l 188 1032 l 235 1032 l 356 886 l 476 1032 l 524 1032 l 524 1025 l 393 840 l 318 840 z "},"ô":{"ha":713,"x_min":88,"x_max":625,"o":"m 356 -11 q 174 17 228 -11 q 103 117 119 46 q 88 353 88 188 q 103 590 88 518 q 174 690 119 661 q 356 719 229 719 q 538 690 483 719 q 609 590 593 661 q 625 353 625 518 q 609 117 625 188 q 538 17 593 46 q 356 -11 483 -11 m 356 44 q 501 67 460 44 q 553 147 543 89 q 563 353 563 204 q 553 560 563 503 q 501 641 543 618 q 356 664 460 664 q 211 641 253 664 q 160 560 169 618 q 150 353 150 503 q 160 147 150 204 q 210 67 169 89 q 356 44 251 44 m 190 840 l 190 847 l 319 1032 l 394 1032 l 525 847 l 525 840 l 478 840 l 357 986 l 236 840 l 190 840 z "},"ố":{"ha":713,"x_min":88,"x_max":632,"o":"m 356 -11 q 174 17 228 -11 q 103 117 119 46 q 88 353 88 188 q 103 590 88 518 q 174 690 119 661 q 356 719 229 719 q 538 690 483 719 q 609 590 593 661 q 625 353 625 518 q 609 117 625 188 q 538 17 593 46 q 356 -11 483 -11 m 356 44 q 501 67 460 44 q 553 147 543 89 q 563 353 563 204 q 553 560 563 503 q 501 641 543 618 q 356 664 460 664 q 211 641 253 664 q 160 560 169 618 q 150 353 150 503 q 160 147 150 204 q 210 67 169 89 q 356 44 251 44 m 185 840 l 185 847 l 314 1032 l 389 1032 l 519 847 l 519 840 l 472 840 l 351 986 l 231 840 l 185 840 m 444 1038 l 444 1044 l 558 1231 l 632 1231 l 632 1224 l 490 1038 l 444 1038 z "},"ộ":{"ha":713,"x_min":88,"x_max":625,"o":"m 356 -11 q 174 17 228 -11 q 103 117 119 46 q 88 353 88 188 q 103 590 88 518 q 174 690 119 661 q 356 719 229 719 q 538 690 483 719 q 609 590 593 661 q 625 353 625 518 q 609 117 625 188 q 538 17 593 46 q 356 -11 483 -11 m 356 44 q 501 67 460 44 q 553 147 543 89 q 563 353 563 204 q 553 560 563 503 q 501 641 543 618 q 356 664 460 664 q 211 641 253 664 q 160 560 169 618 q 150 353 150 503 q 160 147 150 204 q 210 67 169 89 q 356 44 251 44 m 315 -187 l 315 -86 l 394 -86 l 394 -187 l 315 -187 m 189 840 l 189 847 l 318 1032 l 393 1032 l 524 847 l 524 840 l 476 840 l 356 986 l 235 840 l 189 840 z "},"ồ":{"ha":713,"x_min":88,"x_max":625,"o":"m 356 -11 q 174 17 228 -11 q 103 117 119 46 q 88 353 88 188 q 103 590 88 518 q 174 690 119 661 q 356 719 229 719 q 538 690 483 719 q 609 590 593 661 q 625 353 625 518 q 609 117 625 188 q 538 17 593 46 q 356 -11 483 -11 m 356 44 q 501 67 460 44 q 553 147 543 89 q 563 353 563 204 q 553 560 563 503 q 501 641 543 618 q 356 664 460 664 q 211 641 253 664 q 160 560 169 618 q 150 353 150 503 q 160 147 150 204 q 210 67 169 89 q 356 44 251 44 m 183 840 l 183 847 l 313 1032 l 388 1032 l 518 847 l 518 840 l 471 840 l 350 986 l 229 840 l 183 840 m 478 1038 l 338 1224 l 338 1231 l 411 1231 l 525 1044 l 525 1038 l 478 1038 z "},"ổ":{"ha":713,"x_min":88,"x_max":625,"o":"m 356 -11 q 174 17 228 -11 q 103 117 119 46 q 88 353 88 188 q 103 590 88 518 q 174 690 119 661 q 356 719 229 719 q 538 690 483 719 q 609 590 593 661 q 625 353 625 518 q 609 117 625 188 q 538 17 593 46 q 356 -11 483 -11 m 356 44 q 501 67 460 44 q 553 147 543 89 q 563 353 563 204 q 553 560 563 503 q 501 641 543 618 q 356 664 460 664 q 211 641 253 664 q 160 560 169 618 q 150 353 150 503 q 160 147 150 204 q 210 67 169 89 q 356 44 251 44 m 189 840 l 189 847 l 318 1032 l 393 1032 l 524 847 l 524 840 l 476 840 l 356 986 l 235 840 l 189 840 m 414 1050 q 426 1094 414 1082 q 469 1117 438 1107 l 499 1125 q 558 1149 544 1138 q 571 1188 571 1160 q 560 1224 571 1213 q 527 1239 550 1236 q 453 1242 504 1242 q 324 1235 403 1242 l 324 1278 q 463 1288 396 1288 q 588 1268 553 1288 q 622 1193 622 1249 q 609 1131 622 1151 q 550 1097 596 1111 l 518 1088 q 477 1074 488 1079 q 464 1061 467 1068 q 461 1036 461 1054 l 414 1036 l 414 1050 z "},"ỗ":{"ha":713,"x_min":88,"x_max":625,"o":"m 356 -11 q 174 17 228 -11 q 103 117 119 46 q 88 353 88 188 q 103 590 88 518 q 174 690 119 661 q 356 719 229 719 q 538 690 483 719 q 609 590 593 661 q 625 353 625 518 q 609 117 625 188 q 538 17 593 46 q 356 -11 483 -11 m 356 44 q 501 67 460 44 q 553 147 543 89 q 563 353 563 204 q 553 560 563 503 q 501 641 543 618 q 356 664 460 664 q 211 641 253 664 q 160 560 169 618 q 150 353 150 503 q 160 147 150 204 q 210 67 169 89 q 356 44 251 44 m 186 840 l 186 847 l 315 1032 l 390 1032 l 521 847 l 521 840 l 474 840 l 353 986 l 232 840 l 186 840 m 569 1272 q 553 1164 569 1193 q 486 1135 538 1135 q 424 1144 454 1135 q 343 1171 393 1153 q 276 1194 303 1186 q 225 1203 250 1203 q 191 1185 199 1203 q 183 1119 183 1168 l 139 1119 q 155 1228 139 1199 q 222 1257 171 1257 q 289 1247 256 1257 q 368 1219 322 1238 q 433 1197 406 1204 q 485 1189 460 1189 q 518 1206 511 1189 q 525 1272 525 1224 l 569 1272 z "},"ȍ":{"ha":713,"x_min":88,"x_max":625,"o":"m 356 -11 q 174 17 228 -11 q 103 117 119 46 q 88 353 88 188 q 103 590 88 518 q 174 690 119 661 q 356 719 229 719 q 538 690 483 719 q 609 590 593 661 q 625 353 625 518 q 609 117 625 188 q 538 17 593 46 q 356 -11 483 -11 m 356 44 q 501 67 460 44 q 553 147 543 89 q 563 353 563 204 q 553 560 563 503 q 501 641 543 618 q 356 664 460 664 q 211 641 253 664 q 160 560 169 618 q 150 353 150 503 q 160 147 150 204 q 210 67 169 89 q 356 44 251 44 m 274 843 l 231 843 l 92 1018 l 92 1025 l 163 1025 l 274 850 l 274 843 m 501 843 l 457 843 l 318 1018 l 318 1025 l 389 1025 l 501 850 l 501 843 z "},"ö":{"ha":713,"x_min":88,"x_max":625,"o":"m 356 -11 q 174 17 228 -11 q 103 117 119 46 q 88 353 88 188 q 103 590 88 518 q 174 690 119 661 q 356 719 229 719 q 538 690 483 719 q 609 590 593 661 q 625 353 625 518 q 609 117 625 188 q 538 17 593 46 q 356 -11 483 -11 m 356 44 q 501 67 460 44 q 553 147 543 89 q 563 353 563 204 q 553 560 563 503 q 501 641 543 618 q 356 664 460 664 q 211 641 253 664 q 160 560 169 618 q 150 353 150 503 q 160 147 150 204 q 210 67 169 89 q 356 44 251 44 m 199 922 l 199 1014 l 268 1014 l 268 922 l 199 922 m 446 922 l 446 1014 l 515 1014 l 515 922 l 446 922 z "},"ọ":{"ha":713,"x_min":88,"x_max":625,"o":"m 356 -11 q 174 17 228 -11 q 103 117 119 46 q 88 353 88 188 q 103 590 88 518 q 174 690 119 661 q 356 719 229 719 q 538 690 483 719 q 609 590 593 661 q 625 353 625 518 q 609 117 625 188 q 538 17 593 46 q 356 -11 483 -11 m 356 44 q 501 67 460 44 q 553 147 543 89 q 563 353 563 204 q 553 560 563 503 q 501 641 543 618 q 356 664 460 664 q 211 641 253 664 q 160 560 169 618 q 150 353 150 503 q 160 147 150 204 q 210 67 169 89 q 356 44 251 44 m 315 -187 l 315 -86 l 394 -86 l 394 -187 l 315 -187 z "},"ò":{"ha":713,"x_min":88,"x_max":625,"o":"m 356 -11 q 174 17 228 -11 q 103 117 119 46 q 88 353 88 188 q 103 590 88 518 q 174 690 119 661 q 356 719 229 719 q 538 690 483 719 q 609 590 593 661 q 625 353 625 518 q 609 117 625 188 q 538 17 593 46 q 356 -11 483 -11 m 356 44 q 501 67 460 44 q 553 147 543 89 q 563 353 563 204 q 553 560 563 503 q 501 641 543 618 q 356 664 460 664 q 211 641 253 664 q 160 560 169 618 q 150 353 150 503 q 160 147 150 204 q 210 67 169 89 q 356 44 251 44 m 354 839 l 214 1025 l 214 1032 l 288 1032 l 401 846 l 401 839 l 354 839 z "},"ỏ":{"ha":713,"x_min":88,"x_max":625,"o":"m 356 -11 q 174 17 228 -11 q 103 117 119 46 q 88 353 88 188 q 103 590 88 518 q 174 690 119 661 q 356 719 229 719 q 538 690 483 719 q 609 590 593 661 q 625 353 625 518 q 609 117 625 188 q 538 17 593 46 q 356 -11 483 -11 m 356 44 q 501 67 460 44 q 553 147 543 89 q 563 353 563 204 q 553 560 563 503 q 501 641 543 618 q 356 664 460 664 q 211 641 253 664 q 160 560 169 618 q 150 353 150 503 q 160 147 150 204 q 210 67 169 89 q 356 44 251 44 m 296 858 q 308 903 296 890 q 351 925 319 915 l 381 933 q 440 957 426 946 q 453 996 453 968 q 442 1033 453 1021 q 409 1047 432 1044 q 335 1050 386 1050 q 206 1043 285 1050 l 206 1086 q 344 1096 278 1096 q 469 1076 435 1096 q 504 1001 504 1057 q 491 940 504 960 q 432 906 478 919 l 400 896 q 359 882 369 888 q 346 869 349 876 q 343 844 343 863 l 296 844 l 296 858 z "},"ơ":{"ha":713,"x_min":88,"x_max":683,"o":"m 683 844 l 683 801 q 674 719 683 747 q 642 679 665 692 q 571 665 618 667 q 615 560 604 629 q 625 353 625 492 q 609 117 625 188 q 538 17 593 46 q 356 -11 483 -11 q 174 17 228 -11 q 103 117 119 46 q 88 353 88 188 q 103 590 88 518 q 174 690 119 661 q 356 719 229 719 q 489 708 443 719 l 561 708 q 608 716 593 708 q 626 740 622 724 q 631 790 631 756 l 631 844 l 683 844 m 356 44 q 501 67 460 44 q 553 147 543 89 q 563 353 563 204 q 553 560 563 503 q 501 641 543 618 q 356 664 460 664 q 211 641 253 664 q 160 560 169 618 q 150 353 150 503 q 160 147 150 204 q 210 67 169 89 q 356 44 251 44 z "},"ớ":{"ha":713,"x_min":88,"x_max":683,"o":"m 683 844 l 683 801 q 674 719 683 747 q 642 679 665 692 q 571 665 618 667 q 615 560 604 629 q 625 353 625 492 q 609 117 625 188 q 538 17 593 46 q 356 -11 483 -11 q 174 17 228 -11 q 103 117 119 46 q 88 353 88 188 q 103 590 88 518 q 174 690 119 661 q 356 719 229 719 q 489 708 443 719 l 561 708 q 608 716 593 708 q 626 740 622 724 q 631 790 631 756 l 631 844 l 683 844 m 356 44 q 501 67 460 44 q 553 147 543 89 q 563 353 563 204 q 553 560 563 503 q 501 641 543 618 q 356 664 460 664 q 211 641 253 664 q 160 560 169 618 q 150 353 150 503 q 160 147 150 204 q 210 67 169 89 q 356 44 251 44 m 328 839 l 328 846 l 442 1032 l 515 1032 l 515 1025 l 374 839 l 328 839 z "},"ợ":{"ha":713,"x_min":88,"x_max":683,"o":"m 683 844 l 683 801 q 674 719 683 747 q 642 679 665 692 q 571 665 618 667 q 615 560 604 629 q 625 353 625 492 q 609 117 625 188 q 538 17 593 46 q 356 -11 483 -11 q 174 17 228 -11 q 103 117 119 46 q 88 353 88 188 q 103 590 88 518 q 174 690 119 661 q 356 719 229 719 q 489 708 443 719 l 561 708 q 608 716 593 708 q 626 740 622 724 q 631 790 631 756 l 631 844 l 683 844 m 356 44 q 501 67 460 44 q 553 147 543 89 q 563 353 563 204 q 553 560 563 503 q 501 641 543 618 q 356 664 460 664 q 211 641 253 664 q 160 560 169 618 q 150 353 150 503 q 160 147 150 204 q 210 67 169 89 q 356 44 251 44 m 315 -187 l 315 -86 l 394 -86 l 394 -187 l 315 -187 z "},"ờ":{"ha":713,"x_min":88,"x_max":683,"o":"m 683 844 l 683 801 q 674 719 683 747 q 642 679 665 692 q 571 665 618 667 q 615 560 604 629 q 625 353 625 492 q 609 117 625 188 q 538 17 593 46 q 356 -11 483 -11 q 174 17 228 -11 q 103 117 119 46 q 88 353 88 188 q 103 590 88 518 q 174 690 119 661 q 356 719 229 719 q 489 708 443 719 l 561 708 q 608 716 593 708 q 626 740 622 724 q 631 790 631 756 l 631 844 l 683 844 m 356 44 q 501 67 460 44 q 553 147 543 89 q 563 353 563 204 q 553 560 563 503 q 501 641 543 618 q 356 664 460 664 q 211 641 253 664 q 160 560 169 618 q 150 353 150 503 q 160 147 150 204 q 210 67 169 89 q 356 44 251 44 m 343 839 l 203 1025 l 203 1032 l 276 1032 l 390 846 l 390 839 l 343 839 z "},"ở":{"ha":713,"x_min":88,"x_max":683,"o":"m 683 844 l 683 801 q 674 719 683 747 q 642 679 665 692 q 571 665 618 667 q 615 560 604 629 q 625 353 625 492 q 609 117 625 188 q 538 17 593 46 q 356 -11 483 -11 q 174 17 228 -11 q 103 117 119 46 q 88 353 88 188 q 103 590 88 518 q 174 690 119 661 q 356 719 229 719 q 489 708 443 719 l 561 708 q 608 716 593 708 q 626 740 622 724 q 631 790 631 756 l 631 844 l 683 844 m 356 44 q 501 67 460 44 q 553 147 543 89 q 563 353 563 204 q 553 560 563 503 q 501 641 543 618 q 356 664 460 664 q 211 641 253 664 q 160 560 169 618 q 150 353 150 503 q 160 147 150 204 q 210 67 169 89 q 356 44 251 44 m 296 858 q 308 903 296 890 q 351 925 319 915 l 381 933 q 440 957 426 946 q 453 996 453 968 q 442 1033 453 1021 q 409 1047 432 1044 q 335 1050 386 1050 q 206 1043 285 1050 l 206 1086 q 344 1096 278 1096 q 469 1076 435 1096 q 504 1001 504 1057 q 491 940 504 960 q 432 906 478 919 l 400 896 q 359 882 369 888 q 346 869 349 876 q 343 844 343 863 l 296 844 l 296 858 z "},"ỡ":{"ha":713,"x_min":88,"x_max":683,"o":"m 683 844 l 683 801 q 674 719 683 747 q 642 679 665 692 q 571 665 618 667 q 615 560 604 629 q 625 353 625 492 q 609 117 625 188 q 538 17 593 46 q 356 -11 483 -11 q 174 17 228 -11 q 103 117 119 46 q 88 353 88 188 q 103 590 88 518 q 174 690 119 661 q 356 719 229 719 q 489 708 443 719 l 561 708 q 608 716 593 708 q 626 740 622 724 q 631 790 631 756 l 631 844 l 683 844 m 356 44 q 501 67 460 44 q 553 147 543 89 q 563 353 563 204 q 553 560 563 503 q 501 641 543 618 q 356 664 460 664 q 211 641 253 664 q 160 560 169 618 q 150 353 150 503 q 160 147 150 204 q 210 67 169 89 q 356 44 251 44 m 569 1032 q 553 924 569 953 q 486 894 538 894 q 424 903 454 894 q 343 931 393 913 q 276 954 303 946 q 225 963 250 963 q 191 945 199 963 q 183 879 183 928 l 139 879 q 155 988 139 958 q 222 1017 171 1017 q 289 1007 256 1017 q 368 979 322 997 q 433 956 406 964 q 485 949 460 949 q 518 966 511 949 q 525 1032 525 983 l 569 1032 z "},"ő":{"ha":713,"x_min":88,"x_max":639,"o":"m 356 -11 q 174 17 228 -11 q 103 117 119 46 q 88 353 88 188 q 103 590 88 518 q 174 690 119 661 q 356 719 229 719 q 538 690 483 719 q 609 590 593 661 q 625 353 625 518 q 609 117 625 188 q 538 17 593 46 q 356 -11 483 -11 m 356 44 q 501 67 460 44 q 553 147 543 89 q 563 353 563 204 q 553 560 563 503 q 501 641 543 618 q 356 664 460 664 q 211 641 253 664 q 160 560 169 618 q 150 353 150 503 q 160 147 150 204 q 210 67 169 89 q 356 44 251 44 m 229 843 l 229 850 l 342 1025 l 413 1025 l 413 1018 l 274 843 l 229 843 m 457 843 l 457 850 l 568 1025 l 639 1025 l 639 1018 l 500 843 l 457 843 z "},"ȏ":{"ha":713,"x_min":88,"x_max":625,"o":"m 356 -11 q 174 17 228 -11 q 103 117 119 46 q 88 353 88 188 q 103 590 88 518 q 174 690 119 661 q 356 719 229 719 q 538 690 483 719 q 609 590 593 661 q 625 353 625 518 q 609 117 625 188 q 538 17 593 46 q 356 -11 483 -11 m 356 44 q 501 67 460 44 q 553 147 543 89 q 563 353 563 204 q 553 560 563 503 q 501 641 543 618 q 356 664 460 664 q 211 641 253 664 q 160 560 169 618 q 150 353 150 503 q 160 147 150 204 q 210 67 169 89 q 356 44 251 44 m 190 844 q 199 954 190 915 q 243 1017 207 993 q 356 1040 279 1040 q 467 1017 432 1040 q 511 955 503 993 q 519 844 519 917 l 469 844 q 464 933 469 904 q 434 978 458 963 q 356 994 410 994 q 277 978 301 994 q 247 933 253 963 q 240 844 240 903 l 190 844 z "},"ō":{"ha":713,"x_min":88,"x_max":625,"o":"m 356 -11 q 174 17 228 -11 q 103 117 119 46 q 88 353 88 188 q 103 590 88 518 q 174 690 119 661 q 356 719 229 719 q 538 690 483 719 q 609 590 593 661 q 625 353 625 518 q 609 117 625 188 q 538 17 593 46 q 356 -11 483 -11 m 356 44 q 501 67 460 44 q 553 147 543 89 q 563 353 563 204 q 553 560 563 503 q 501 641 543 618 q 356 664 460 664 q 211 641 253 664 q 160 560 169 618 q 150 353 150 503 q 160 147 150 204 q 210 67 169 89 q 356 44 251 44 m 210 969 l 210 1031 l 500 1031 l 500 969 l 210 969 z "},"ǫ":{"ha":713,"x_min":88,"x_max":625,"o":"m 356 719 q 538 690 483 719 q 609 590 593 661 q 625 353 625 518 q 613 131 625 201 q 557 29 600 61 q 488 -56 519 0 q 456 -160 456 -112 q 519 -221 456 -221 l 544 -219 l 544 -271 q 508 -272 531 -272 q 424 -244 451 -272 q 397 -172 397 -217 q 417 -88 397 -132 q 469 -6 436 -44 q 356 -11 429 -11 q 174 17 228 -11 q 103 117 119 46 q 88 353 88 188 q 103 590 88 518 q 174 690 119 661 q 356 719 229 719 m 356 44 q 501 67 460 44 q 553 147 543 89 q 563 353 563 204 q 553 560 563 503 q 501 641 543 618 q 356 664 460 664 q 211 641 253 664 q 160 560 169 618 q 150 353 150 503 q 160 147 150 204 q 210 67 169 89 q 356 44 251 44 z "},"ø":{"ha":713,"x_min":88,"x_max":625,"o":"m 563 674 q 614 570 603 640 q 625 353 625 500 q 609 117 625 188 q 538 17 593 46 q 356 -11 483 -11 q 194 8 249 -11 l 149 -76 l 89 -76 l 150 33 q 99 136 110 67 q 88 353 88 206 q 103 590 88 518 q 174 690 119 661 q 356 719 229 719 q 517 700 463 719 l 563 785 l 624 785 l 563 674 m 150 353 q 155 174 150 228 q 181 90 160 119 l 488 649 q 356 664 446 664 q 211 641 253 664 q 160 560 169 618 q 150 353 150 503 m 356 44 q 501 67 460 44 q 553 147 543 89 q 563 353 563 204 q 558 533 563 479 q 531 617 553 588 l 224 60 q 356 44 261 44 z "},"ǿ":{"ha":713,"x_min":88,"x_max":625,"o":"m 563 674 q 614 570 603 640 q 625 353 625 500 q 609 117 625 188 q 538 17 593 46 q 356 -11 483 -11 q 194 8 249 -11 l 149 -76 l 89 -76 l 150 33 q 99 136 110 67 q 88 353 88 206 q 103 590 88 518 q 174 690 119 661 q 356 719 229 719 q 517 700 463 719 l 563 785 l 624 785 l 563 674 m 150 353 q 155 174 150 228 q 181 90 160 119 l 488 649 q 356 664 446 664 q 211 641 253 664 q 160 560 169 618 q 150 353 150 503 m 356 44 q 501 67 460 44 q 553 147 543 89 q 563 353 563 204 q 558 533 563 479 q 531 617 553 588 l 224 60 q 356 44 261 44 m 328 839 l 328 846 l 442 1032 l 515 1032 l 515 1025 l 374 839 l 328 839 z "},"õ":{"ha":713,"x_min":88,"x_max":625,"o":"m 356 -11 q 174 17 228 -11 q 103 117 119 46 q 88 353 88 188 q 103 590 88 518 q 174 690 119 661 q 356 719 229 719 q 538 690 483 719 q 609 590 593 661 q 625 353 625 518 q 609 117 625 188 q 538 17 593 46 q 356 -11 483 -11 m 356 44 q 501 67 460 44 q 553 147 543 89 q 563 353 563 204 q 553 560 563 503 q 501 641 543 618 q 356 664 460 664 q 211 641 253 664 q 160 560 169 618 q 150 353 150 503 q 160 147 150 204 q 210 67 169 89 q 356 44 251 44 m 571 1032 q 555 924 571 953 q 488 894 539 894 q 425 903 456 894 q 344 931 394 913 q 278 954 304 946 q 226 963 251 963 q 192 945 200 963 q 185 879 185 928 l 140 879 q 156 988 140 958 q 224 1017 172 1017 q 290 1007 257 1017 q 369 979 324 997 q 434 956 407 964 q 486 949 461 949 q 519 966 513 949 q 526 1032 526 983 l 571 1032 z "},"œ":{"ha":1167,"x_min":88,"x_max":1078,"o":"m 1078 333 l 625 333 q 639 148 625 206 q 698 67 653 90 q 846 44 743 44 q 950 50 892 44 q 1054 63 1008 56 l 1054 7 q 957 -6 1018 -1 q 835 -11 896 -11 q 676 13 731 -11 q 596 96 621 36 q 520 11 574 33 q 356 -11 467 -11 q 174 17 228 -11 q 103 117 119 46 q 88 353 88 188 q 103 590 88 518 q 174 690 119 661 q 356 719 229 719 q 518 697 464 719 q 594 617 572 675 q 674 696 618 672 q 836 719 729 719 q 1000 688 950 719 q 1064 584 1050 656 q 1078 356 1078 513 l 1078 333 m 356 44 q 501 67 460 44 q 553 147 543 89 q 563 353 563 204 q 553 560 563 503 q 501 641 543 618 q 356 664 460 664 q 211 641 253 664 q 160 560 169 618 q 150 353 150 503 q 160 147 150 204 q 210 67 169 89 q 356 44 251 44 m 832 664 q 693 644 735 664 q 638 569 651 625 q 625 386 625 514 l 1017 386 l 1017 411 q 1001 578 1017 525 q 947 647 985 631 q 832 664 910 664 z "},"p":{"ha":732,"x_min":117,"x_max":643,"o":"m 117 708 l 169 708 l 174 600 l 179 600 q 259 695 203 671 q 399 719 315 719 q 554 690 503 719 q 624 584 606 660 q 643 354 643 508 q 624 124 643 200 q 554 19 606 49 q 399 -11 503 -11 q 259 14 311 -11 q 186 97 207 39 l 179 97 l 179 -274 l 117 -274 l 117 708 m 379 46 q 513 67 472 46 q 567 150 553 88 q 581 354 581 213 q 567 558 581 496 q 513 642 553 621 q 379 663 472 663 q 258 637 303 663 q 196 556 213 611 q 182 472 185 518 q 179 354 179 426 q 193 165 179 218 q 257 74 213 101 q 379 46 301 46 z "},"þ":{"ha":732,"x_min":117,"x_max":643,"o":"m 117 1032 l 179 1032 l 179 611 l 185 611 q 259 694 207 669 q 399 719 311 719 q 554 690 503 719 q 624 584 606 660 q 643 354 643 508 q 624 124 643 200 q 554 19 606 49 q 399 -11 503 -11 q 259 13 311 -11 q 185 96 207 38 l 179 96 l 179 -264 l 117 -264 l 117 1032 m 379 46 q 513 67 472 46 q 567 150 553 88 q 581 354 581 213 q 567 558 581 496 q 513 642 553 621 q 379 663 472 663 q 256 636 301 663 q 194 549 211 610 q 182 471 185 515 q 179 354 179 426 q 192 172 179 218 q 257 74 213 103 q 379 46 301 46 z "},"q":{"ha":732,"x_min":88,"x_max":614,"o":"m 551 97 l 546 97 q 472 14 525 39 q 332 -11 419 -11 q 176 19 228 -11 q 106 124 125 49 q 88 354 88 200 q 107 584 88 508 q 178 690 126 660 q 333 719 229 719 q 473 695 417 719 q 551 600 529 671 l 557 600 l 563 708 l 614 708 l 614 -274 l 551 -274 l 551 97 m 351 46 q 474 72 429 46 q 536 157 518 99 q 549 236 546 192 q 551 354 551 281 q 548 478 551 433 q 532 564 544 522 q 473 639 518 615 q 351 663 428 663 q 219 642 260 663 q 164 558 178 621 q 150 354 150 496 q 164 150 150 213 q 219 67 178 88 q 351 46 260 46 z "},"r":{"ha":431,"x_min":117,"x_max":397,"o":"m 117 708 l 168 708 l 174 564 l 181 564 q 256 686 201 653 q 397 719 310 719 l 397 656 q 263 622 310 656 q 197 523 215 588 q 179 353 179 458 l 179 0 l 117 0 l 117 708 z "},"ŕ":{"ha":431,"x_min":117,"x_max":397,"o":"m 117 708 l 168 708 l 174 564 l 181 564 q 256 686 201 653 q 397 719 310 719 l 397 656 q 263 622 310 656 q 197 523 215 588 q 179 353 179 458 l 179 0 l 117 0 l 117 708 m 188 839 l 188 846 l 301 1032 l 375 1032 l 375 1025 l 233 839 l 188 839 z "},"ř":{"ha":431,"x_min":47,"x_max":397,"o":"m 117 708 l 168 708 l 174 564 l 181 564 q 256 686 201 653 q 397 719 310 719 l 397 656 q 263 622 310 656 q 197 523 215 588 q 179 353 179 458 l 179 0 l 117 0 l 117 708 m 178 840 l 47 1025 l 47 1032 l 94 1032 l 215 886 l 336 1032 l 383 1032 l 383 1025 l 253 840 l 178 840 z "},"ŗ":{"ha":431,"x_min":92,"x_max":397,"o":"m 117 708 l 168 708 l 174 564 l 181 564 q 256 686 201 653 q 397 719 310 719 l 397 656 q 263 622 310 656 q 197 523 215 588 q 179 353 179 458 l 179 0 l 117 0 l 117 708 m 92 -293 q 148 -277 136 -293 q 160 -208 160 -261 l 160 -185 l 128 -185 l 128 -86 l 206 -86 l 206 -192 q 197 -276 206 -249 q 164 -316 188 -304 q 92 -328 140 -328 l 92 -293 z "},"ȑ":{"ha":431,"x_min":-49,"x_max":397,"o":"m 117 708 l 168 708 l 174 564 l 181 564 q 256 686 201 653 q 397 719 310 719 l 397 656 q 263 622 310 656 q 197 523 215 588 q 179 353 179 458 l 179 0 l 117 0 l 117 708 m 133 843 l 90 843 l -49 1018 l -49 1025 l 22 1025 l 133 850 l 133 843 m 361 843 l 317 843 l 178 1018 l 178 1025 l 249 1025 l 361 850 l 361 843 z "},"ṛ":{"ha":431,"x_min":108,"x_max":397,"o":"m 117 708 l 168 708 l 174 564 l 181 564 q 256 686 201 653 q 397 719 310 719 l 397 656 q 263 622 310 656 q 197 523 215 588 q 179 353 179 458 l 179 0 l 117 0 l 117 708 m 108 -187 l 108 -86 l 188 -86 l 188 -187 l 108 -187 z "},"ȓ":{"ha":431,"x_min":50,"x_max":397,"o":"m 117 708 l 168 708 l 174 564 l 181 564 q 256 686 201 653 q 397 719 310 719 l 397 656 q 263 622 310 656 q 197 523 215 588 q 179 353 179 458 l 179 0 l 117 0 l 117 708 m 50 844 q 58 954 50 915 q 103 1017 67 993 q 215 1040 139 1040 q 327 1017 292 1040 q 371 955 363 993 q 379 844 379 917 l 329 844 q 324 933 329 904 q 294 978 318 963 q 215 994 269 994 q 137 978 161 994 q 106 933 113 963 q 100 844 100 903 l 50 844 z "},"s":{"ha":613,"x_min":74,"x_max":539,"o":"m 308 -11 q 198 -7 258 -11 q 93 4 138 -3 l 93 61 q 210 48 163 51 q 319 44 258 44 q 420 60 386 44 q 465 105 454 75 q 476 188 476 135 q 469 274 476 247 q 443 308 461 300 q 385 321 425 317 l 210 340 q 102 388 131 350 q 74 517 74 425 q 101 648 74 604 q 181 706 129 692 q 318 719 232 719 q 415 715 363 719 q 504 701 468 710 l 504 646 q 301 664 414 664 q 210 655 244 664 q 156 615 176 646 q 136 525 136 585 q 144 447 136 472 q 171 413 153 422 q 228 399 189 403 l 399 379 q 485 356 457 372 q 526 302 514 340 q 539 188 539 264 q 515 66 539 108 q 442 6 492 24 q 308 -11 393 -11 z "},"ś":{"ha":613,"x_min":74,"x_max":539,"o":"m 308 -11 q 198 -7 258 -11 q 93 4 138 -3 l 93 61 q 210 48 163 51 q 319 44 258 44 q 420 60 386 44 q 465 105 454 75 q 476 188 476 135 q 469 274 476 247 q 443 308 461 300 q 385 321 425 317 l 210 340 q 102 388 131 350 q 74 517 74 425 q 101 648 74 604 q 181 706 129 692 q 318 719 232 719 q 415 715 363 719 q 504 701 468 710 l 504 646 q 301 664 414 664 q 210 655 244 664 q 156 615 176 646 q 136 525 136 585 q 144 447 136 472 q 171 413 153 422 q 228 399 189 403 l 399 379 q 485 356 457 372 q 526 302 514 340 q 539 188 539 264 q 515 66 539 108 q 442 6 492 24 q 308 -11 393 -11 m 279 839 l 279 846 l 393 1032 l 467 1032 l 467 1025 l 325 839 l 279 839 z "},"ꞌ":{"ha":146,"x_min":40,"x_max":106,"o":"m 40 404 l 40 1032 l 106 1032 l 106 710 l 82 404 l 40 404 z "},"š":{"ha":613,"x_min":74,"x_max":539,"o":"m 308 -11 q 198 -7 258 -11 q 93 4 138 -3 l 93 61 q 210 48 163 51 q 319 44 258 44 q 420 60 386 44 q 465 105 454 75 q 476 188 476 135 q 469 274 476 247 q 443 308 461 300 q 385 321 425 317 l 210 340 q 102 388 131 350 q 74 517 74 425 q 101 648 74 604 q 181 706 129 692 q 318 719 232 719 q 415 715 363 719 q 504 701 468 710 l 504 646 q 301 664 414 664 q 210 655 244 664 q 156 615 176 646 q 136 525 136 585 q 144 447 136 472 q 171 413 153 422 q 228 399 189 403 l 399 379 q 485 356 457 372 q 526 302 514 340 q 539 188 539 264 q 515 66 539 108 q 442 6 492 24 q 308 -11 393 -11 m 274 840 l 143 1025 l 143 1032 l 190 1032 l 311 886 l 432 1032 l 479 1032 l 479 1025 l 349 840 l 274 840 z "},"ş":{"ha":613,"x_min":74,"x_max":539,"o":"m 539 188 q 517 70 539 113 q 451 10 496 28 q 329 -11 406 -8 l 272 -264 l 204 -264 l 204 -257 l 279 -11 q 93 4 186 -10 l 93 61 q 210 48 163 51 q 319 44 258 44 q 420 60 386 44 q 465 105 454 75 q 476 188 476 135 q 469 274 476 247 q 443 308 461 300 q 385 321 425 317 l 210 340 q 102 388 131 350 q 74 517 74 425 q 101 648 74 604 q 181 706 129 692 q 318 719 232 719 q 415 715 363 719 q 504 701 468 710 l 504 646 q 301 664 414 664 q 210 655 244 664 q 156 615 176 646 q 136 525 136 585 q 144 447 136 472 q 171 413 153 422 q 228 399 189 403 l 399 379 q 485 356 457 372 q 526 302 514 340 q 539 188 539 264 z "},"ŝ":{"ha":613,"x_min":74,"x_max":539,"o":"m 308 -11 q 198 -7 258 -11 q 93 4 138 -3 l 93 61 q 210 48 163 51 q 319 44 258 44 q 420 60 386 44 q 465 105 454 75 q 476 188 476 135 q 469 274 476 247 q 443 308 461 300 q 385 321 425 317 l 210 340 q 102 388 131 350 q 74 517 74 425 q 101 648 74 604 q 181 706 129 692 q 318 719 232 719 q 415 715 363 719 q 504 701 468 710 l 504 646 q 301 664 414 664 q 210 655 244 664 q 156 615 176 646 q 136 525 136 585 q 144 447 136 472 q 171 413 153 422 q 228 399 189 403 l 399 379 q 485 356 457 372 q 526 302 514 340 q 539 188 539 264 q 515 66 539 108 q 442 6 492 24 q 308 -11 393 -11 m 140 840 l 140 847 l 269 1032 l 344 1032 l 475 847 l 475 840 l 428 840 l 307 986 l 186 840 l 140 840 z "},"ș":{"ha":613,"x_min":74,"x_max":539,"o":"m 308 -11 q 198 -7 258 -11 q 93 4 138 -3 l 93 61 q 210 48 163 51 q 319 44 258 44 q 420 60 386 44 q 465 105 454 75 q 476 188 476 135 q 469 274 476 247 q 443 308 461 300 q 385 321 425 317 l 210 340 q 102 388 131 350 q 74 517 74 425 q 101 648 74 604 q 181 706 129 692 q 318 719 232 719 q 415 715 363 719 q 504 701 468 710 l 504 646 q 301 664 414 664 q 210 655 244 664 q 156 615 176 646 q 136 525 136 585 q 144 447 136 472 q 171 413 153 422 q 228 399 189 403 l 399 379 q 485 356 457 372 q 526 302 514 340 q 539 188 539 264 q 515 66 539 108 q 442 6 492 24 q 308 -11 393 -11 m 250 -293 q 306 -277 294 -293 q 318 -208 318 -261 l 318 -185 l 286 -185 l 286 -86 l 364 -86 l 364 -192 q 355 -276 364 -249 q 322 -316 346 -304 q 250 -328 299 -328 l 250 -293 z "},"ṣ":{"ha":613,"x_min":74,"x_max":539,"o":"m 308 -11 q 198 -7 258 -11 q 93 4 138 -3 l 93 61 q 210 48 163 51 q 319 44 258 44 q 420 60 386 44 q 465 105 454 75 q 476 188 476 135 q 469 274 476 247 q 443 308 461 300 q 385 321 425 317 l 210 340 q 102 388 131 350 q 74 517 74 425 q 101 648 74 604 q 181 706 129 692 q 318 719 232 719 q 415 715 363 719 q 504 701 468 710 l 504 646 q 301 664 414 664 q 210 655 244 664 q 156 615 176 646 q 136 525 136 585 q 144 447 136 472 q 171 413 153 422 q 228 399 189 403 l 399 379 q 485 356 457 372 q 526 302 514 340 q 539 188 539 264 q 515 66 539 108 q 442 6 492 24 q 308 -11 393 -11 m 267 -187 l 267 -86 l 346 -86 l 346 -187 l 267 -187 z "},"ß":{"ha":753,"x_min":117,"x_max":664,"o":"m 313 0 l 313 56 l 392 56 q 533 72 492 56 q 588 143 574 89 q 601 328 601 197 q 583 483 601 429 q 524 559 565 538 q 404 581 482 581 l 357 581 l 357 636 l 404 636 q 548 676 506 636 q 590 807 590 715 q 572 914 590 875 q 510 969 554 953 q 386 986 467 986 q 265 967 310 986 q 199 896 221 947 q 178 747 178 844 l 178 0 l 117 0 l 117 750 q 143 919 117 856 q 230 1012 169 982 q 393 1042 290 1042 q 548 1017 492 1042 q 628 942 604 993 q 653 806 653 890 q 618 674 653 718 q 508 617 583 629 l 508 611 q 626 534 589 596 q 664 339 664 472 q 646 133 664 203 q 575 31 628 63 q 415 0 522 0 l 313 0 z "},"ſ":{"ha":390,"x_min":36,"x_max":390,"o":"m 165 653 l 36 653 l 36 708 l 165 708 l 165 857 q 189 972 165 935 q 258 1020 213 1008 q 390 1032 304 1032 l 390 981 q 290 972 324 981 q 242 939 256 963 q 228 868 228 915 l 228 0 l 165 0 l 165 653 z "},"t":{"ha":414,"x_min":36,"x_max":378,"o":"m 165 0 l 165 653 l 36 653 l 36 708 l 165 708 l 165 914 l 228 914 l 228 708 l 378 708 l 378 653 l 228 653 l 228 0 l 165 0 z "},"ŧ":{"ha":414,"x_min":36,"x_max":378,"o":"m 378 653 l 228 653 l 228 394 l 375 394 l 375 339 l 228 339 l 228 0 l 165 0 l 165 339 l 44 339 l 44 394 l 165 394 l 165 653 l 36 653 l 36 708 l 165 708 l 165 914 l 228 914 l 228 708 l 378 708 l 378 653 z "},"ť":{"ha":425,"x_min":36,"x_max":511,"o":"m 165 0 l 165 653 l 36 653 l 36 708 l 165 708 l 165 914 l 228 914 l 228 708 l 378 708 l 378 653 l 228 653 l 228 0 l 165 0 m 426 626 l 444 836 l 444 956 l 511 956 l 511 836 l 469 626 l 426 626 z "},"ţ":{"ha":414,"x_min":36,"x_max":378,"o":"m 228 708 l 378 708 l 378 653 l 228 653 l 228 0 l 221 0 l 163 -264 l 94 -264 l 94 -257 l 174 0 l 165 0 l 165 653 l 36 653 l 36 708 l 165 708 l 165 914 l 228 914 l 228 708 z "},"ț":{"ha":414,"x_min":36,"x_max":378,"o":"m 165 0 l 165 653 l 36 653 l 36 708 l 165 708 l 165 914 l 228 914 l 228 708 l 378 708 l 378 653 l 228 653 l 228 0 l 165 0 m 140 -293 q 197 -277 185 -293 q 208 -208 208 -261 l 208 -185 l 176 -185 l 176 -86 l 254 -86 l 254 -192 q 245 -276 254 -249 q 213 -316 236 -304 q 140 -328 189 -328 l 140 -293 z "},"ṭ":{"ha":414,"x_min":36,"x_max":378,"o":"m 165 0 l 165 653 l 36 653 l 36 708 l 165 708 l 165 914 l 228 914 l 228 708 l 378 708 l 378 653 l 228 653 l 228 0 l 165 0 m 157 -187 l 157 -86 l 236 -86 l 236 -187 l 157 -187 z "},"u":{"ha":739,"x_min":115,"x_max":622,"o":"m 565 108 l 560 108 q 493 21 542 53 q 342 -11 444 -11 q 197 16 244 -11 q 132 99 149 43 q 115 263 115 156 l 115 708 l 178 708 l 178 278 q 191 125 178 172 q 241 62 204 78 q 360 46 278 46 q 497 83 454 46 q 550 177 540 119 q 560 342 560 235 l 560 708 l 622 708 l 622 0 l 569 0 l 565 108 z "},"ú":{"ha":739,"x_min":115,"x_max":622,"o":"m 565 108 l 560 108 q 493 21 542 53 q 342 -11 444 -11 q 197 16 244 -11 q 132 99 149 43 q 115 263 115 156 l 115 708 l 178 708 l 178 278 q 191 125 178 172 q 241 62 204 78 q 360 46 278 46 q 497 83 454 46 q 550 177 540 119 q 560 342 560 235 l 560 708 l 622 708 l 622 0 l 569 0 l 565 108 m 340 839 l 340 846 l 454 1032 l 528 1032 l 528 1025 l 386 839 l 340 839 z "},"ŭ":{"ha":739,"x_min":115,"x_max":622,"o":"m 565 108 l 560 108 q 493 21 542 53 q 342 -11 444 -11 q 197 16 244 -11 q 132 99 149 43 q 115 263 115 156 l 115 708 l 178 708 l 178 278 q 191 125 178 172 q 241 62 204 78 q 360 46 278 46 q 497 83 454 46 q 550 177 540 119 q 560 342 560 235 l 560 708 l 622 708 l 622 0 l 569 0 l 565 108 m 533 1032 q 525 922 533 961 q 481 860 517 883 q 368 836 444 836 q 256 860 292 836 q 213 922 221 883 q 204 1032 204 960 l 254 1032 q 260 943 254 972 q 290 898 265 914 q 368 882 314 882 q 447 898 422 882 q 477 944 471 914 q 483 1032 483 974 l 533 1032 z "},"ǔ":{"ha":739,"x_min":115,"x_max":622,"o":"m 565 108 l 560 108 q 493 21 542 53 q 342 -11 444 -11 q 197 16 244 -11 q 132 99 149 43 q 115 263 115 156 l 115 708 l 178 708 l 178 278 q 191 125 178 172 q 241 62 204 78 q 360 46 278 46 q 497 83 454 46 q 550 177 540 119 q 560 342 560 235 l 560 708 l 622 708 l 622 0 l 569 0 l 565 108 m 332 840 l 201 1025 l 201 1032 l 249 1032 l 369 886 l 490 1032 l 538 1032 l 538 1025 l 407 840 l 332 840 z "},"û":{"ha":739,"x_min":115,"x_max":622,"o":"m 565 108 l 560 108 q 493 21 542 53 q 342 -11 444 -11 q 197 16 244 -11 q 132 99 149 43 q 115 263 115 156 l 115 708 l 178 708 l 178 278 q 191 125 178 172 q 241 62 204 78 q 360 46 278 46 q 497 83 454 46 q 550 177 540 119 q 560 342 560 235 l 560 708 l 622 708 l 622 0 l 569 0 l 565 108 m 203 840 l 203 847 l 332 1032 l 407 1032 l 538 847 l 538 840 l 490 840 l 369 986 l 249 840 l 203 840 z "},"ȕ":{"ha":739,"x_min":106,"x_max":622,"o":"m 565 108 l 560 108 q 493 21 542 53 q 342 -11 444 -11 q 197 16 244 -11 q 132 99 149 43 q 115 263 115 156 l 115 708 l 178 708 l 178 278 q 191 125 178 172 q 241 62 204 78 q 360 46 278 46 q 497 83 454 46 q 550 177 540 119 q 560 342 560 235 l 560 708 l 622 708 l 622 0 l 569 0 l 565 108 m 288 843 l 244 843 l 106 1018 l 106 1025 l 176 1025 l 288 850 l 288 843 m 515 843 l 471 843 l 332 1018 l 332 1025 l 403 1025 l 515 850 l 515 843 z "},"ü":{"ha":739,"x_min":115,"x_max":622,"o":"m 565 108 l 560 108 q 493 21 542 53 q 342 -11 444 -11 q 197 16 244 -11 q 132 99 149 43 q 115 263 115 156 l 115 708 l 178 708 l 178 278 q 191 125 178 172 q 241 62 204 78 q 360 46 278 46 q 497 83 454 46 q 550 177 540 119 q 560 342 560 235 l 560 708 l 622 708 l 622 0 l 569 0 l 565 108 m 210 922 l 210 1014 l 279 1014 l 279 922 l 210 922 m 457 922 l 457 1014 l 526 1014 l 526 922 l 457 922 z "}}}
